# vtk DataFile Version 2.0
sampleSurface
ASCII
DATASET POLYDATA
POINTS 369 float
-9 0.02 0 -10 0.02 0 -10 0.02 1 -9 0.02
1 -8 0.02 0 -8 0.02 1 -7 0.02 0
-7 0.02 1 -6 0.02 0 -6 0.02 1 -5
0.02 0 -5 0.02 1 -4 0.02 0 -4 0.02
1 -3 0.02 0 -3 0.02 1 -2 0.02 0
-2 0.02 1 -1 0.02 0 -1 0.02 1 0
0.02 0 0 0.02 1 1 0.02 0 1 0.02
1 2 0.02 0 2 0.02 1 3 0.02 0
3 0.02 1 4 0.02 0 4 0.02 1 5
0.02 0 5 0.02 1 6 0.02 0 6 0.02
1 7 0.02 0 7 0.02 1 8 0.02 0
8 0.02 1 9 0.02 0 9 0.02 1 10
0.02 0 10 0.02 1 11 0.02 0 11 0.02
1 12 0.02 0 12 0.02 1 13 0.02 0
13 0.02 1 14 0.02 0 14 0.02 1 15
0.02 0 15 0.02 1 16 0.02 0 16 0.02
1 17 0.02 0 17 0.02 1 18 0.02 0
18 0.02 1 19 0.02 0 19 0.02 1 20
0.02 0 20 0.02 1 21 0.02 0 21 0.02
1 22 0.02 0 22 0.02 1 23 0.02 0
23 0.02 1 24 0.02 0 24 0.02 1 25
0.02 0 25 0.02 1 26 0.02 0 26 0.02
1 27 0.02 0 27 0.02 1 28 0.02 0
28 0.02 1 29 0.02 0 29 0.02 1 30
0.02 1 30 0.02 0 -10 0.02 2 -9 0.02
2 -8 0.02 2 -7 0.02 2 -6 0.02 2
-5 0.02 2 -4 0.02 2 -3 0.02 2 -2
0.02 2 -1 0.02 2 0 0.02 2 1 0.02
2 2 0.02 2 3 0.02 2 4 0.02 2
5 0.02 2 6 0.02 2 7 0.02 2 8
0.02 2 9 0.02 2 10 0.02 2 11 0.02
2 12 0.02 2 13 0.02 2 14 0.02 2
15 0.02 2 16 0.02 2 17 0.02 2 18
0.02 2 19 0.02 2 20 0.02 2 21 0.02
2 22 0.02 2 23 0.02 2 24 0.02 2
25 0.02 2 26 0.02 2 27 0.02 2 28
0.02 2 29 0.02 2 30 0.02 2 -10 0.02
3 -9 0.02 3 -8 0.02 3 -7 0.02 3
-6 0.02 3 -5 0.02 3 -4 0.02 3 -3
0.02 3 -2 0.02 3 -1 0.02 3 0 0.02
3 1 0.02 3 2 0.02 3 3 0.02 3
4 0.02 3 5 0.02 3 6 0.02 3 7
0.02 3 8 0.02 3 9 0.02 3 10 0.02
3 11 0.02 3 12 0.02 3 13 0.02 3
14 0.02 3 15 0.02 3 16 0.02 3 17
0.02 3 18 0.02 3 19 0.02 3 20 0.02
3 21 0.02 3 22 0.02 3 23 0.02 3
24 0.02 3 25 0.02 3 26 0.02 3 27
0.02 3 28 0.02 3 29 0.02 3 30 0.02
3 -10 0.02 4 -9 0.02 4 -8 0.02 4
-7 0.02 4 -6 0.02 4 -5 0.02 4 -4
0.02 4 -3 0.02 4 -2 0.02 4 -1 0.02
4 0 0.02 4 1 0.02 4 2 0.02 4
3 0.02 4 4 0.02 4 5 0.02 4 6
0.02 4 7 0.02 4 8 0.02 4 9 0.02
4 10 0.02 4 11 0.02 4 12 0.02 4
13 0.02 4 14 0.02 4 15 0.02 4 16
0.02 4 17 0.02 4 18 0.02 4 19 0.02
4 20 0.02 4 21 0.02 4 22 0.02 4
23 0.02 4 24 0.02 4 25 0.02 4 26
0.02 4 27 0.02 4 28 0.02 4 29 0.02
4 30 0.02 4 -10 0.02 5 -9 0.02 5
-8 0.02 5 -7 0.02 5 -6 0.02 5 -5
0.02 5 -4 0.02 5 -3 0.02 5 -2 0.02
5 -1 0.02 5 0 0.02 5 1 0.02 5
2 0.02 5 3 0.02 5 4 0.02 5 5
0.02 5 6 0.02 5 7 0.02 5 8 0.02
5 9 0.02 5 10 0.02 5 11 0.02 5
12 0.02 5 13 0.02 5 14 0.02 5 15
0.02 5 16 0.02 5 17 0.02 5 18 0.02
5 19 0.02 5 20 0.02 5 21 0.02 5
22 0.02 5 23 0.02 5 24 0.02 5 25
0.02 5 26 0.02 5 27 0.02 5 28 0.02
5 29 0.02 5 30 0.02 5 -10 0.02 6
-9 0.02 6 -8 0.02 6 -7 0.02 6 -6
0.02 6 -5 0.02 6 -4 0.02 6 -3 0.02
6 -2 0.02 6 -1 0.02 6 0 0.02 6
1 0.02 6 2 0.02 6 3 0.02 6 4
0.02 6 5 0.02 6 6 0.02 6 7 0.02
6 8 0.02 6 9 0.02 6 10 0.02 6
11 0.02 6 12 0.02 6 13 0.02 6 14
0.02 6 15 0.02 6 16 0.02 6 17 0.02
6 18 0.02 6 19 0.02 6 20 0.02 6
21 0.02 6 22 0.02 6 23 0.02 6 24
0.02 6 25 0.02 6 26 0.02 6 27 0.02
6 28 0.02 6 29 0.02 6 30 0.02 6
-10 0.02 7 -9 0.02 7 -8 0.02 7 -7
0.02 7 -6 0.02 7 -5 0.02 7 -4 0.02
7 -3 0.02 7 -2 0.02 7 -1 0.02 7
0 0.02 7 1 0.02 7 2 0.02 7 3
0.02 7 4 0.02 7 5 0.02 7 6 0.02
7 7 0.02 7 8 0.02 7 9 0.02 7
10 0.02 7 11 0.02 7 12 0.02 7 13
0.02 7 14 0.02 7 15 0.02 7 16 0.02
7 17 0.02 7 18 0.02 7 19 0.02 7
20 0.02 7 21 0.02 7 22 0.02 7 23
0.02 7 24 0.02 7 25 0.02 7 26 0.02
7 27 0.02 7 28 0.02 7 29 0.02 7
30 0.02 7 -10 0.02 8 -9 0.02 8 -8
0.02 8 -7 0.02 8 -6 0.02 8 -5 0.02
8 -4 0.02 8 -3 0.02 8 -2 0.02 8
-1 0.02 8 0 0.02 8 1 0.02 8 2
0.02 8 3 0.02 8 4 0.02 8 5 0.02
8 6 0.02 8 7 0.02 8 8 0.02 8
9 0.02 8 10 0.02 8 11 0.02 8 12
0.02 8 13 0.02 8 14 0.02 8 15 0.02
8 16 0.02 8 17 0.02 8 18 0.02 8
19 0.02 8 20 0.02 8 21 0.02 8 22
0.02 8 23 0.02 8 24 0.02 8 25 0.02
8 26 0.02 8 27 0.02 8 28 0.02 8
29 0.02 8 30 0.02 8 
POLYGONS 320 1600
4 0 1 2 3 4 4 0 3 5 4
6 4 5 7 4 8 6 7 9 4
10 8 9 11 4 12 10 11 13 4
14 12 13 15 4 16 14 15 17 4
18 16 17 19 4 20 18 19 21 4
22 20 21 23 4 24 22 23 25 4
26 24 25 27 4 28 26 27 29 4
30 28 29 31 4 32 30 31 33 4
34 32 33 35 4 36 34 35 37 4
38 36 37 39 4 40 38 39 41 4
42 40 41 43 4 44 42 43 45 4
46 44 45 47 4 48 46 47 49 4
50 48 49 51 4 52 50 51 53 4
54 52 53 55 4 56 54 55 57 4
58 56 57 59 4 60 58 59 61 4
62 60 61 63 4 64 62 63 65 4
66 64 65 67 4 68 66 67 69 4
70 68 69 71 4 72 70 71 73 4
74 72 73 75 4 76 74 75 77 4
78 76 77 79 4 80 81 78 79 4
3 2 82 83 4 5 3 83 84 4
7 5 84 85 4 9 7 85 86 4
11 9 86 87 4 13 11 87 88 4
15 13 88 89 4 17 15 89 90 4
19 17 90 91 4 21 19 91 92 4
23 21 92 93 4 25 23 93 94 4
27 25 94 95 4 29 27 95 96 4
31 29 96 97 4 33 31 97 98 4
35 33 98 99 4 37 35 99 100 4
39 37 100 101 4 41 39 101 102 4
43 41 102 103 4 45 43 103 104 4
47 45 104 105 4 49 47 105 106 4
51 49 106 107 4 53 51 107 108 4
55 53 108 109 4 57 55 109 110 4
59 57 110 111 4 61 59 111 112 4
63 61 112 113 4 65 63 113 114 4
67 65 114 115 4 69 67 115 116 4
71 69 116 117 4 73 71 117 118 4
75 73 118 119 4 77 75 119 120 4
79 77 120 121 4 122 80 79 121 4
83 82 123 124 4 84 83 124 125 4
85 84 125 126 4 86 85 126 127 4
87 86 127 128 4 88 87 128 129 4
89 88 129 130 4 90 89 130 131 4
91 90 131 132 4 92 91 132 133 4
93 92 133 134 4 94 93 134 135 4
95 94 135 136 4 96 95 136 137 4
97 96 137 138 4 98 97 138 139 4
99 98 139 140 4 100 99 140 141 4
101 100 141 142 4 102 101 142 143 4
103 102 143 144 4 104 103 144 145 4
105 104 145 146 4 106 105 146 147 4
107 106 147 148 4 108 107 148 149 4
109 108 149 150 4 110 109 150 151 4
111 110 151 152 4 112 111 152 153 4
113 112 153 154 4 114 113 154 155 4
115 114 155 156 4 116 115 156 157 4
117 116 157 158 4 118 117 158 159 4
119 118 159 160 4 120 119 160 161 4
121 120 161 162 4 163 122 121 162 4
124 123 164 165 4 125 124 165 166 4
126 125 166 167 4 127 126 167 168 4
128 127 168 169 4 129 128 169 170 4
130 129 170 171 4 131 130 171 172 4
132 131 172 173 4 133 132 173 174 4
134 133 174 175 4 135 134 175 176 4
136 135 176 177 4 137 136 177 178 4
138 137 178 179 4 139 138 179 180 4
140 139 180 181 4 141 140 181 182 4
142 141 182 183 4 143 142 183 184 4
144 143 184 185 4 145 144 185 186 4
146 145 186 187 4 147 146 187 188 4
148 147 188 189 4 149 148 189 190 4
150 149 190 191 4 151 150 191 192 4
152 151 192 193 4 153 152 193 194 4
154 153 194 195 4 155 154 195 196 4
156 155 196 197 4 157 156 197 198 4
158 157 198 199 4 159 158 199 200 4
160 159 200 201 4 161 160 201 202 4
162 161 202 203 4 204 163 162 203 4
165 164 205 206 4 166 165 206 207 4
167 166 207 208 4 168 167 208 209 4
169 168 209 210 4 170 169 210 211 4
171 170 211 212 4 172 171 212 213 4
173 172 213 214 4 174 173 214 215 4
175 174 215 216 4 176 175 216 217 4
177 176 217 218 4 178 177 218 219 4
179 178 219 220 4 180 179 220 221 4
181 180 221 222 4 182 181 222 223 4
183 182 223 224 4 184 183 224 225 4
185 184 225 226 4 186 185 226 227 4
187 186 227 228 4 188 187 228 229 4
189 188 229 230 4 190 189 230 231 4
191 190 231 232 4 192 191 232 233 4
193 192 233 234 4 194 193 234 235 4
195 194 235 236 4 196 195 236 237 4
197 196 237 238 4 198 197 238 239 4
199 198 239 240 4 200 199 240 241 4
201 200 241 242 4 202 201 242 243 4
203 202 243 244 4 245 204 203 244 4
206 205 246 247 4 207 206 247 248 4
208 207 248 249 4 209 208 249 250 4
210 209 250 251 4 211 210 251 252 4
212 211 252 253 4 213 212 253 254 4
214 213 254 255 4 215 214 255 256 4
216 215 256 257 4 217 216 257 258 4
218 217 258 259 4 219 218 259 260 4
220 219 260 261 4 221 220 261 262 4
222 221 262 263 4 223 222 263 264 4
224 223 264 265 4 225 224 265 266 4
226 225 266 267 4 227 226 267 268 4
228 227 268 269 4 229 228 269 270 4
230 229 270 271 4 231 230 271 272 4
232 231 272 273 4 233 232 273 274 4
234 233 274 275 4 235 234 275 276 4
236 235 276 277 4 237 236 277 278 4
238 237 278 279 4 239 238 279 280 4
240 239 280 281 4 241 240 281 282 4
242 241 282 283 4 243 242 283 284 4
244 243 284 285 4 286 245 244 285 4
247 246 287 288 4 248 247 288 289 4
249 248 289 290 4 250 249 290 291 4
251 250 291 292 4 252 251 292 293 4
253 252 293 294 4 254 253 294 295 4
255 254 295 296 4 256 255 296 297 4
257 256 297 298 4 258 257 298 299 4
259 258 299 300 4 260 259 300 301 4
261 260 301 302 4 262 261 302 303 4
263 262 303 304 4 264 263 304 305 4
265 264 305 306 4 266 265 306 307 4
267 266 307 308 4 268 267 308 309 4
269 268 309 310 4 270 269 310 311 4
271 270 311 312 4 272 271 312 313 4
273 272 313 314 4 274 273 314 315 4
275 274 315 316 4 276 275 316 317 4
277 276 317 318 4 278 277 318 319 4
279 278 319 320 4 280 279 320 321 4
281 280 321 322 4 282 281 322 323 4
283 282 323 324 4 284 283 324 325 4
285 284 325 326 4 327 286 285 326 4
288 287 328 329 4 289 288 329 330 4
290 289 330 331 4 291 290 331 332 4
292 291 332 333 4 293 292 333 334 4
294 293 334 335 4 295 294 335 336 4
296 295 336 337 4 297 296 337 338 4
298 297 338 339 4 299 298 339 340 4
300 299 340 341 4 301 300 341 342 4
302 301 342 343 4 303 302 343 344 4
304 303 344 345 4 305 304 345 346 4
306 305 346 347 4 307 306 347 348 4
308 307 348 349 4 309 308 349 350 4
310 309 350 351 4 311 310 351 352 4
312 311 352 353 4 313 312 353 354 4
314 313 354 355 4 315 314 355 356 4
316 315 356 357 4 317 316 357 358 4
318 317 358 359 4 319 318 359 360 4
320 319 360 361 4 321 320 361 362 4
322 321 362 363 4 323 322 363 364 4
324 323 364 365 4 325 324 365 366 4
326 325 366 367 4 327 326 367 368 
POINT_DATA 369
FIELD attributes 2
p 1 369 float
-1.47829e-15 -3.09114e-15 -6.98994e-15 -2.72119e-15 -4.6955e-15 -3.49845e-15 5.42887e-15 2.13968e-15 1.22794e-14 7.75217e-15 -7.78184e-16
-5.14009e-16 -1.11127e-14 -9.80767e-15 -1.54049e-14 -1.551e-14 -1.47861e-14 -1.3013e-14 -9.47561e-15 -5.48569e-15 -2.43969e-15
4.18931e-15 -2.31522e-15 6.67098e-15 -9.88942e-15 -1.43944e-15 -1.12862e-14 -6.31152e-15 -3.04619e-15 -1.18583e-15 7.2868e-17
8.92866e-16 2.31672e-15 2.06625e-15 3.08235e-15 4.47692e-16 -1.06981e-14 -1.3203e-14 -2.58764e-14 -2.38415e-14 -3.02644e-14
-2.45929e-14 -1.9611e-14 -1.28992e-14 -7.03905e-15 -4.63151e-15 -2.64423e-15 -2.48349e-15 7.72753e-15 5.871e-15 2.13412e-14
1.75559e-14 1.99546e-14 1.80204e-14 1.59667e-14 1.43919e-14 3.26152e-14 2.80055e-14 5.30114e-14 4.54043e-14 5.42924e-14
4.78422e-14 3.63009e-14 3.23916e-14 1.10827e-14 1.07852e-14 -1.4625e-14 -8.69119e-15 -1.70493e-14 -1.02939e-14 -7.05509e-15
-5.13993e-15 -1.91071e-14 -1.93506e-14 -3.82365e-14 -3.528e-14 -3.53203e-14 -3.16881e-14 -1.19948e-14 -1.16468e-14 -0
1.14785e-15 -9.83862e-15 -1.90924e-15 4.72969e-17 -4.84137e-15 -1.63123e-15 -3.76056e-16 -8.39746e-15 -1.27198e-14 -7.21972e-15
2.31756e-15 1.51481e-14 1.54876e-14 3.09856e-15 -4.42162e-15 -1.65279e-15 1.74862e-15 5.28014e-17 -5.58226e-15 -1.59565e-14
-2.03378e-14 -1.48067e-14 -1.97825e-15 4.19523e-15 3.3126e-15 2.14243e-15 6.99317e-15 1.36584e-14 1.0845e-14 1.82361e-14
3.00131e-14 3.1375e-14 2.20621e-14 5.81018e-15 -1.6013e-15 -3.08211e-15 -8.39871e-15 -1.9126e-14 -2.54334e-14 -2.06151e-14
-8.18301e-15 0 -4.64165e-15 6.5589e-16 2.75673e-15 -6.53305e-15 -8.33237e-15 -3.6312e-16 -5.65389e-15 -6.53545e-15
2.27069e-15 1.09655e-14 2.13573e-14 1.79108e-14 3.32051e-15 -7.83973e-15 -7.07287e-15 8.73985e-16 -2.37647e-15 -8.5559e-15
-1.42132e-14 -1.71712e-14 -5.34383e-15 8.66127e-15 1.03999e-14 7.07498e-15 1.54604e-15 -1.98664e-15 6.8456e-15 8.17723e-15
1.30926e-14 1.95119e-14 1.71718e-14 1.2087e-14 -3.09816e-15 -6.955e-15 -6.15455e-15 -1.05754e-14 -1.18329e-14 -9.25049e-15
-5.78442e-15 -3.91623e-15 -0 -1.09837e-15 1.20511e-15 3.80395e-15 -6.09027e-15 -1.38165e-14 -4.70197e-15 -3.63924e-15
-1.05953e-15 6.62002e-15 1.24427e-14 2.07331e-14 1.97715e-14 7.21622e-15 -7.91798e-15 -1.07214e-14 -4.36654e-15 -9.61692e-15
-1.05581e-14 -8.80498e-15 -1.15031e-14 3.89403e-15 1.83429e-14 9.33644e-15 2.98965e-15 1.77124e-15 -4.92821e-15 1.76806e-15
8.18494e-15 1.21998e-14 9.39641e-15 4.26952e-15 -6.17063e-16 -1.47559e-14 -1.37859e-14 -4.43393e-15 8.50529e-16 2.23112e-15
4.18503e-15 5.0691e-15 1.24605e-15 -0 -5.22816e-15 -3.1895e-15 -5.25824e-16 -7.0154e-15 -1.2618e-14 -6.4198e-15
-6.71944e-16 3.1635e-15 5.30701e-15 9.90584e-15 2.01395e-14 2.11393e-14 9.05932e-15 -5.32455e-15 -8.95112e-15 -4.70002e-15
-8.89543e-15 -9.9054e-15 -6.51964e-15 -5.12574e-15 5.08501e-15 1.23094e-14 5.89503e-15 3.34008e-16 -4.24872e-15 -4.23407e-15
7.77706e-15 1.23361e-14 1.09845e-14 1.30583e-15 -3.74781e-15 -7.60612e-15 -1.95373e-14 -1.20687e-14 2.42702e-15 9.0565e-15
9.55087e-15 1.0079e-14 1.02804e-14 6.27235e-15 -0 -6.67481e-15 -7.60732e-15 -8.65079e-15 -7.34958e-15 -4.2851e-15
2.68815e-15 5.83696e-15 6.98924e-16 1.46302e-15 7.35694e-15 1.43411e-14 1.90816e-14 9.92946e-15 -2.70755e-15 -4.52339e-15
-1.47367e-15 -4.2922e-15 -8.47982e-15 -7.99853e-15 -4.15073e-15 1.31702e-15 3.63061e-15 2.75554e-15 -1.28092e-15 -6.33546e-15
-4.67654e-16 1.18161e-14 1.29094e-14 6.81932e-15 -1.69473e-15 -2.45058e-15 -1.71619e-15 -1.10944e-14 -1.05349e-14 2.86935e-15
1.20829e-14 1.24455e-14 5.89038e-15 1.89107e-15 5.01607e-15 -0 -1.0873e-15 -3.45612e-15 -7.72861e-15 -6.82325e-15
-1.99721e-15 7.03382e-15 8.55934e-15 -6.19677e-17 1.4384e-15 6.21648e-15 8.56144e-15 1.32282e-14 8.46676e-15 -1.22975e-15
-2.53437e-15 -6.80771e-16 -5.3934e-15 -6.69358e-15 -4.22569e-15 -5.09195e-15 -2.23853e-15 5.60574e-15 5.84874e-15 1.22785e-15
3.65393e-15 6.2302e-15 5.83866e-15 5.93239e-15 4.04661e-15 -1.65309e-15 7.62393e-16 5.76962e-15 2.00315e-16 -7.14389e-15
-1.72653e-16 1.23122e-14 1.44401e-14 2.76508e-15 -6.47892e-15 -7.26989e-16 0 1.81548e-15 3.39681e-16 -1.84887e-15
-2.66523e-15 -1.60222e-15 2.51586e-15 4.18196e-15 1.83887e-15 2.53278e-15 4.22275e-15 5.24508e-15 5.76613e-15 4.10762e-15
-1.53228e-17 -1.32354e-15 4.41228e-16 -1.90109e-15 -1.62819e-15 -5.25636e-17 -2.30066e-15 -2.36235e-15 3.48741e-15 4.74445e-15
2.45414e-15 5.38027e-15 5.29748e-15 1.26185e-15 9.14944e-16 2.56642e-15 3.48459e-16 1.68848e-15 4.76277e-15 2.84879e-15
-1.62412e-15 -1.0227e-15 4.64613e-15 6.81031e-15 2.78983e-15 -2.35596e-15 -2.09944e-15 -1.11474e-17 
U 3 369 float
16 0 0 16 0 0 16 0 0 16 -3.57059e-16
-3.20024e-17 16 0 0 16 -7.09866e-16 -4.90845e-16 16 0 0
16 -6.95168e-16 -3.73182e-16 16 0 0 16 -2.60892e-16 -1.42184e-18 16
0 0 16 2.43143e-16 -4.63517e-17 16 0 0 16 5.77195e-16
-5.38303e-17 16 0 0 16 7.37781e-16 1.37321e-16 16 0 0
16 8.76096e-16 2.24549e-16 16 0 0 16 8.21854e-16 1.21733e-16 16
0 0 16 6.25502e-16 -1.49335e-16 16 0 0 16 4.86332e-16
-4.44132e-16 16 0 0 16 3.46833e-16 -5.16016e-16 16 0 0
16 1.65367e-17 -4.50434e-16 16 0 0 16 -2.2755e-16 -4.61541e-16 16
0 0 16 1.64891e-16 -5.57096e-16 16 0 0 16 6.94747e-16
-5.41627e-16 16 0 0 16 5.10348e-16 -3.85529e-16 16 0 0
16 1.70672e-16 -3.60026e-16 16 0 0 16 1.13177e-16 -6.08686e-16 16
0 0 16 1.98366e-16 -1.01443e-15 16 0 0 16 5.75577e-16
-1.32169e-15 16 0 0 16 7.45643e-16 -1.47557e-15 16 0 0
16 4.24676e-16 -1.66683e-15 16 0 0 16 -2.57166e-17 -1.54119e-15 16
0 0 16 -3.20721e-16 -9.97713e-16 16 0 0 16 -4.48267e-16
-7.39135e-16 16 0 0 16 -3.36674e-16 -8.56605e-16 16 0 0
16 -5.23505e-16 -1.10914e-15 16 0 0 16 -7.14242e-16 -1.18981e-15 16
0 0 16 -1.03085e-15 -1.07889e-15 16 0 0 16 -1.14601e-15
-1.03564e-15 16 0 0 16 -6.38806e-16 -8.62765e-16 16 0 0
16 -7.94648e-16 -9.12947e-16 16 0 0 16 -8.90498e-16 -9.69034e-16 16
0 0 16 -6.56966e-16 -5.75616e-16 16 0 0 16 -7.14282e-16
-3.06529e-16 16 0 0 16 -9.33177e-16 -5.30428e-16 16 0 0
16 -9.11835e-16 -7.02883e-16 16 0 0 16 -6.61973e-16 -4.05694e-16 16
-5.8493e-16 -1.77556e-16 16 1.81565e-16 -3.2559e-16 16 0 0 16 -2.54021e-16
-2.44041e-16 16 -4.94672e-16 -7.4955e-16 16 -2.75844e-16 -6.61874e-16 16 3.05728e-16 -1.72714e-16
16 9.29479e-16 -1.80636e-16 16 1.30902e-15 -2.51858e-16 16 1.26876e-15 -1.49165e-16 16
1.02485e-15 -7.94758e-19 16 5.72239e-16 3.34358e-17 16 2.08996e-16 -1.2073e-16 16 2.49245e-17
-3.58697e-16 16 -9.40758e-17 -5.80854e-16 16 -4.01169e-16 -5.66384e-16 16 -7.24239e-16 -2.8165e-16
16 -7.18619e-16 -9.64468e-17 16 -5.29831e-16 4.86166e-17 16 -5.27254e-16 1.3904e-16 16
-6.73849e-16 7.33767e-17 16 -6.81111e-16 -2.08733e-18 16 -4.16641e-16 -4.11927e-16 16 -4.29785e-17
-8.94085e-16 16 2.13855e-16 -1.24388e-15 16 5.28659e-17 -1.56202e-15 16 -5.92865e-16 -1.53729e-15
16 -1.04888e-15 -9.51611e-16 16 -8.48414e-16 -6.17513e-16 16 -3.01634e-16 -7.60436e-16 16
-4.78651e-17 -9.77333e-16 16 2.00927e-16 -9.39012e-16 16 2.01366e-16 -5.41681e-16 16 1.8804e-16
-3.09163e-16 16 4.66716e-16 -6.04728e-17 16 2.61031e-16 4.09578e-17 16 -1.91616e-16 2.59835e-16
16 -3.71584e-16 8.99099e-16 16 -3.44448e-16 1.09815e-15 16 -4.73567e-16 5.84162e-16 16
-7.55379e-16 7.66128e-17 16 -9.037e-16 1.79089e-16 16 -8.89486e-16 3.9708e-16 16 0
0 16 -1.29584e-16 -1.72478e-16 16 -1.92515e-16 -2.83277e-16 16 -1.03073e-16 -3.73463e-16
16 1.26588e-16 -2.10906e-16 16 7.28314e-16 -2.27474e-16 16 1.21002e-15 -3.75123e-16 16
1.08293e-15 -4.35607e-16 16 6.31054e-16 -3.99752e-16 16 5.78882e-17 -3.54025e-16 16 -3.28136e-16
-2.173e-16 16 -4.12904e-16 -1.72025e-16 16 -5.21024e-16 -4.87347e-16 16 -7.29848e-16 -6.86746e-16
16 -7.78892e-16 -4.43268e-16 16 -7.84027e-16 -1.61327e-16 16 -7.65639e-16 8.63337e-17 16
-6.78886e-16 1.1769e-16 16 -7.01828e-16 -5.87517e-17 16 -6.82407e-16 -7.831e-17 16 -2.64817e-16
-4.81831e-16 16 9.17285e-17 -1.10359e-15 16 -2.34922e-17 -1.33692e-15 16 -4.04514e-16 -1.37182e-15
16 -1.01444e-15 -1.38135e-15 16 -1.36481e-15 -1.04971e-15 16 -1.12025e-15 -7.29441e-16 16
-5.15953e-16 -7.24738e-16 16 2.0287e-16 -6.79806e-16 16 7.70543e-16 -3.66298e-16 16 1.00852e-15
6.64181e-17 16 1.1734e-15 4.93666e-16 16 1.22892e-15 1.06386e-15 16 8.87777e-16 1.54286e-15
16 1.47384e-16 1.90664e-15 16 -5.56257e-16 2.16841e-15 16 -7.7661e-16 1.97476e-15 16
-8.41648e-16 1.31761e-15 16 -9.04967e-16 6.6239e-16 16 -8.10828e-16 3.80177e-16 16 -6.91023e-16
3.58574e-16 16 0 0 16 -1.68247e-16 2.01741e-16 16 -1.10204e-16 4.47725e-16
16 -9.14654e-17 3.78237e-16 16 -6.85438e-17 2.03774e-16 16 2.68988e-16 1.59522e-16 16
5.1245e-16 2.4101e-17 16 5.30016e-16 -2.37698e-16 16 3.30826e-16 -2.75926e-16 16 -1.25196e-16
-9.44491e-17 16 -5.04779e-16 2.00215e-16 16 -5.76637e-16 5.09103e-16 16 -6.63135e-16 5.89637e-16
16 -8.60609e-16 4.11202e-16 16 -9.22081e-16 1.26468e-16 16 -9.76825e-16 -7.26975e-17 16
-9.77253e-16 -5.87763e-17 16 -5.89255e-16 -1.40095e-16 16 -3.76649e-16 -4.91583e-16 16 -5.38472e-16
-8.834e-16 16 -2.97039e-16 -1.29132e-15 16 2.06246e-16 -1.60177e-15 16 2.70595e-16 -1.60518e-15
16 -1.85894e-17 -1.41207e-15 16 -5.11922e-16 -1.15643e-15 16 -8.3317e-16 -1.01121e-15 16
-8.03168e-16 -1.01619e-15 16 -5.89353e-16 -1.04977e-15 16 2.28014e-18 -8.33893e-16 16 3.73208e-16
-2.37917e-16 16 4.38776e-16 1.40063e-16 16 7.77684e-16 4.31221e-16 16 8.45668e-16 9.60609e-16
16 4.24296e-16 1.41534e-15 16 -1.26942e-16 1.689e-15 16 -7.17036e-16 1.75509e-15 16
-9.13141e-16 1.60429e-15 16 -8.52778e-16 1.33491e-15 16 -8.54477e-16 1.10109e-15 16 -7.78951e-16
7.72173e-16 16 -7.09102e-16 5.71176e-16 16 0 0 16 -3.22417e-16 3.28858e-16
16 -2.38073e-16 7.83104e-16 16 -4.59948e-17 8.30407e-16 16 1.10125e-17 4.58826e-16 16
-6.14117e-17 2.33822e-16 16 -1.64537e-16 8.87982e-17 16 -9.60396e-17 -5.43107e-17 16 -1.02957e-16
-1.05541e-16 16 -2.93467e-16 -3.64138e-17 16 -4.81192e-16 1.96221e-16 16 -6.39072e-16 4.03956e-16
16 -7.21704e-16 5.19779e-16 16 -8.27947e-16 4.38989e-16 16 -1.05033e-15 1.00543e-16 16
-1.10088e-15 -2.36357e-16 16 -9.04197e-16 -3.90566e-16 16 -5.21486e-16 -3.2441e-16 16 -4.43142e-16
-3.58007e-16 16 -7.72002e-16 -6.8963e-16 16 -6.96036e-16 -7.86268e-16 16 -1.36658e-16 -5.02829e-16
16 3.70082e-16 -3.53452e-16 16 4.35943e-16 -3.15769e-16 16 -1.45964e-16 -2.2428e-16 16
-5.99863e-16 -3.70797e-16 16 -5.94109e-16 -6.21364e-16 16 -4.59339e-16 -7.85514e-16 16 -7.00932e-17
-5.40664e-16 16 1.00898e-16 -4.27982e-17 16 9.12535e-17 1.10754e-16 16 4.78373e-16 -5.75086e-17
16 6.61043e-16 -3.12389e-16 16 2.8866e-16 -2.51552e-16 16 -2.044e-16 1.24537e-16 16
-5.50127e-16 4.93908e-16 16 -4.13421e-16 6.98067e-16 16 -5.68988e-17 1.04947e-15 16 2.61332e-17
1.59727e-15 16 -7.98683e-18 1.72731e-15 16 -1.58565e-17 1.63747e-15 16 0 0
16 -4.01307e-16 -3.12084e-17 16 -3.21478e-16 2.99595e-16 16 -1.20256e-16 4.54896e-16 16
-4.74704e-17 2.47215e-16 16 -1.49015e-16 -8.55024e-17 16 -2.18178e-16 -3.26895e-16 16 -1.31111e-16
-2.69599e-16 16 -1.12203e-16 -2.68593e-16 16 -1.77199e-16 -3.35124e-16 16 -3.77668e-16 -9.05747e-17
16 -6.3792e-16 1.5359e-16 16 -6.88334e-16 1.29615e-16 16 -4.88792e-16 2.81648e-17 16
-4.9822e-16 3.45174e-17 16 -5.82279e-16 4.54085e-17 16 -4.92292e-16 -3.76898e-17 16 -3.64316e-16
-8.65517e-18 16 -3.06247e-16 8.88181e-17 16 -4.44372e-16 1.11865e-16 16 -3.99e-16 1.97243e-16
16 -6.47872e-17 2.45664e-16 16 2.52107e-16 1.37506e-16 16 4.45843e-16 -5.17886e-17 16
1.23444e-16 -5.36608e-16 16 -2.99032e-16 -9.52865e-16 16 -3.228e-16 -7.99185e-16 16 -1.25932e-16
-6.27113e-16 16 6.02957e-19 -4.829e-16 16 -1.79163e-16 -2.92071e-16 16 -3.57858e-16 -2.08282e-16
16 -2.32435e-16 -4.30578e-16 16 7.65441e-17 -9.54342e-16 16 -3.38354e-17 -8.55797e-16 16
-6.90614e-16 -2.49571e-16 16 -1.03623e-15 5.06702e-17 16 -7.18111e-16 5.0221e-18 16 -2.26718e-16
2.99121e-16 16 -8.52283e-18 9.28491e-16 16 1.06563e-16 1.19658e-15 16 1.9757e-16 1.19023e-15
16 0 0 16 -4.73581e-16 -2.26847e-16 16 -5.04482e-16 -1.37198e-16 16
-4.68531e-16 6.06369e-17 16 -4.06319e-16 2.01474e-16 16 -3.37331e-16 1.86429e-16 16 -3.81816e-16
4.73358e-17 16 -4.37938e-16 -9.89261e-17 16 -4.20886e-16 -1.90162e-16 16 -3.71893e-16 -1.9412e-16
16 -4.24845e-16 -6.88739e-17 16 -5.35539e-16 1.57648e-16 16 -6.89923e-16 2.36022e-16 16
-5.6503e-16 2.41185e-16 16 -4.04784e-16 4.76293e-16 16 -4.35783e-16 8.58982e-16 16 -2.87721e-16
1.04748e-15 16 1.38278e-16 9.80316e-16 16 5.4662e-16 8.93196e-16 16 4.58904e-16 8.68205e-16
16 2.79807e-16 8.81595e-16 16 3.42551e-16 7.10008e-16 16 4.8203e-16 4.07822e-16 16
8.27016e-16 9.66966e-17 16 8.6179e-16 -4.25254e-16 16 6.25873e-16 -8.00768e-16 16 5.50793e-16
-5.91569e-16 16 6.31606e-16 -2.37709e-16 16 6.34805e-16 -1.07351e-16 16 3.57548e-16 -4.75027e-17
16 -2.72376e-17 7.53355e-17 16 -2.50942e-16 8.88565e-17 16 1.48838e-16 -1.86707e-16 16
2.5316e-16 -3.23935e-16 16 -4.57848e-16 -1.50887e-16 16 -8.82173e-16 -2.86413e-17 16 -7.65763e-16
7.57205e-17 16 -4.51253e-16 2.65706e-16 16 -2.06328e-16 4.13947e-16 16 3.20932e-17 5.84004e-16
16 1.751e-16 6.89511e-16 16 -9.75164e-17 -3.76601e-17 16 -3.02299e-16 -6.61245e-17 16
-3.78308e-16 -4.13096e-17 16 -4.10878e-16 3.60551e-17 16 -4.08248e-16 1.58877e-16 16 -3.57596e-16
2.90337e-16 16 -4.12089e-16 3.13589e-16 16 -4.63135e-16 1.71435e-16 16 -3.94127e-16 7.59201e-17
16 -3.09836e-16 7.03313e-17 16 -2.38894e-16 4.95317e-17 16 -1.93821e-16 8.26681e-17 16
-2.85989e-16 1.27305e-16 16 -2.95014e-16 1.66234e-16 16 -2.03808e-16 3.06717e-16 16 -1.4022e-16
5.82709e-16 16 7.93639e-17 7.8068e-16 16 4.36433e-16 8.1578e-16 16 6.71719e-16 7.95397e-16
16 5.57166e-16 7.17334e-16 16 3.74331e-16 7.0246e-16 16 3.42942e-16 7.20993e-16 16
4.42876e-16 6.38122e-16 16 6.81452e-16 4.83797e-16 16 6.87997e-16 3.39632e-16 16 5.53727e-16
2.1362e-16 16 4.74889e-16 1.82784e-16 16 4.7372e-16 2.88832e-16 16 5.3185e-16 3.8007e-16
16 4.59799e-16 3.86217e-16 16 2.50204e-16 4.11758e-16 16 6.25225e-17 4.54783e-16 16
2.59437e-16 3.46601e-16 16 2.87811e-16 8.02491e-17 16 -1.42114e-16 -8.63401e-17 16 -4.11986e-16
-1.87216e-17 16 -4.67866e-16 2.5606e-16 16 -3.65803e-16 4.52302e-16 16 -1.82688e-16 4.48177e-16
16 7.40664e-18 5.57089e-16 16 1.54117e-16 1.01264e-15 
