# vtk DataFile Version 2.0
sampleSurface
ASCII
DATASET POLYDATA
POINTS 153 float
4 -5 0 4 -5 0 4 -5 0 4 -4
1 4 -5 1 4 -4 0 4 -3 1
4 -3 0 4 -2 0 4 -2 0 4
-2 0 4 -2 1 4 -2 0 4 -1
1 4 -1 0 4 0 0 4 0 0
4 0 0 4 0 1 4 0 0 4
1 1 4 1 0 4 2 1 4 2
0 4 3 1 4 3 0 4 4 1
4 4 0 4 5 0 4 5 0 4
5 1 4 5 1 4 -4 2 4 -5
2 4 -3 2 4 -2 2 4 -2 2
4 -2 2 4 -2 2 4 -1 2 4
0 2 4 1 2 4 2 2 4 3
2 4 4 2 4 5 2 4 5 2
4 -5 3 4 -5 3 4 -5 3 4
-4 3 4 -3 3 4 -2 3 4 -2
3 4 -2 3 4 -1 3 4 0 3
4 0 3 4 0 3 4 1 2.6 4
1 3 4 1.4 3 4 2 3 4 3
3 4 4 3 4 5 3 4 5 3
4 -5 4 4 -5 4 4 -4 4 4
-3 4 4 -2 4 4 -2 4 4 -2
4 4 -1 4 4 0 4 4 0 4
4 0 4 4 1 3.66667 4 1 4 4
2 4 4 3 4 4 4 4 4 5
4 4 5 4 4 -5 5 4 -5 5
4 -4 5 4 -3 5 4 -2 5 4
-2 5 4 -2 5 4 -1 5 4 0
5 4 0 5 4 1 4.33333 4 1 5
4 1.4 5 4 2 5 4 3 5 4
4 5 4 5 5 4 5 5 4 -5
5 4 -4 6 4 -5 6 4 -3 6
4 -2 6 4 -2 6 4 -2 6 4
-1 6 4 0 5 4 0 6 4 1
5.4 4 1 6 4 2 6 4 3 6
4 4 6 4 5 6 4 5 6 4
-4 7 4 -5 7 4 -3 7 4 -2
6 4 -2 7 4 -1 7 4 0 7
4 1 7 4 2 7 4 3 7 4
4 7 4 5 7 4 5 7 4 -5
8 4 -5 8 4 -5 8 4 -4 8
4 -3 8 4 -2 8 4 -2 8 4
-2 8 4 -2 8 4 -1 8 4 0
8 4 0 8 4 0 8 4 0 8
4 1 8 4 2 8 4 3 8 4
4 8 4 5 8 4 5 8 
POLYGONS 126 630
3 0 1 2 5 3 4 0 2 5 4
6 3 5 7 3 8 9 10 5 11
6 7 8 10 3 10 9 12 5 13
11 10 12 14 3 15 16 17 5 18
13 14 15 17 3 17 16 19 5 20
18 17 19 21 4 22 20 21 23 4
24 22 23 25 4 26 24 25 27 4
28 29 30 31 4 26 27 28 31 4
32 33 4 3 4 34 32 3 6 3
35 36 37 5 35 37 34 6 11 3
38 36 35 5 39 38 35 11 13 4
40 39 13 18 4 41 40 18 20 4
42 41 20 22 4 43 42 22 24 4
44 43 24 26 4 31 30 45 46 4
44 26 31 46 3 47 48 49 5 50
47 49 33 32 4 51 50 32 34 4
37 36 52 53 4 51 34 37 53 4
54 52 36 38 4 55 54 38 39 3
56 57 58 5 56 58 55 39 40 4
59 60 57 56 4 59 56 40 41 3
61 60 59 5 62 61 59 41 42 4
63 62 42 43 4 64 63 43 44 4
46 45 65 66 4 64 44 46 66 4
67 68 48 47 4 69 67 47 50 4
70 69 50 51 4 53 52 71 72 4
70 51 53 72 4 73 71 52 54 4
74 73 54 55 4 58 57 75 76 4
74 55 58 76 5 77 75 57 60 78
3 79 77 78 3 78 60 61 5 80
79 78 61 62 4 81 80 62 63 4
82 81 63 64 4 66 65 83 84 4
82 64 66 84 4 85 86 68 67 4
87 85 67 69 4 88 87 69 70 4
72 71 89 90 4 88 70 72 90 4
91 89 71 73 4 92 91 73 74 4
76 75 93 94 4 92 74 76 94 5
95 96 93 75 77 3 95 77 79 3
97 96 95 5 98 97 95 79 80 4
99 98 80 81 4 100 99 81 82 4
84 83 101 102 4 100 82 84 102 3
103 86 85 5 104 105 103 85 87 4
106 104 87 88 4 90 89 107 108 4
106 88 90 108 4 109 107 89 91 4
110 109 91 92 3 94 93 111 5 112
110 92 94 111 4 111 93 96 113 4
114 112 111 113 3 113 96 97 5 115
114 113 97 98 4 116 115 98 99 4
117 116 99 100 4 102 101 118 119 4
117 100 102 119 4 120 121 105 104 4
122 120 104 106 3 108 107 123 5 124
122 106 108 123 3 123 107 109 5 125
124 123 109 110 4 126 125 110 112 4
127 126 112 114 4 128 127 114 115 4
129 128 115 116 4 130 129 116 117 4
119 118 131 132 4 130 117 119 132 3
133 134 135 5 136 133 135 121 120 4
137 136 120 122 3 138 139 140 5 138
140 137 122 124 3 141 139 138 5 142
141 138 124 125 3 143 144 145 5 143
145 142 125 126 3 146 144 143 5 147
146 143 126 127 4 148 147 127 128 4
149 148 128 129 4 150 149 129 130 4
132 131 151 152 4 150 130 132 152 
POINT_DATA 153
FIELD attributes 2
p 1 153 float
1.0203e-15 1.0203e-15 1.0203e-15 -2.66067e-15 -1.0141e-15 -1.66683e-15 -5.04282e-15 -4.38908e-15 -7.37245e-15 -7.37245e-15 -7.37245e-15
-6.3693e-15 -7.37245e-15 -4.63151e-15 -8.88217e-15 -3.16185e-15 -3.16185e-15 -3.16185e-15 -1.27398e-15 -3.16185e-15 3.13372e-15
2.62143e-15 5.771e-15 2.98965e-15 -4.94744e-15 -9.03685e-15 -1.09938e-14 -1.54801e-14 -8.52771e-15 -8.52771e-15 -3.02457e-15
-3.02457e-15 -3.45148e-15 -4.58294e-16 -6.05869e-15 -5.4681e-15 -5.4681e-15 -5.4681e-15 -5.4681e-15 -4.3218e-15 -1.72744e-15
2.00523e-15 5.29694e-15 -3.65207e-16 -2.55134e-15 1.29734e-15 1.29734e-15 8.4832e-16 8.4832e-16 8.4832e-16 -4.42572e-15
-8.7295e-15 -7.68364e-15 -7.68364e-15 -7.68364e-15 -8.58147e-15 -7.10507e-15 -7.10507e-15 -7.10507e-15 -2.49521e-15 -5.4955e-15
-4.17409e-15 -2.19198e-15 2.386e-15 6.31562e-15 4.48137e-15 4.48137e-15 -7.5989e-16 -7.5989e-16 -7.62324e-15 -1.48082e-14
-1.6205e-14 -1.6205e-14 -1.6205e-14 -1.427e-14 -1.07453e-14 -1.07453e-14 -1.07453e-14 -8.19789e-15 -9.54909e-15 -4.46127e-15
4.87394e-15 1.00787e-14 5.55712e-15 5.55712e-15 -8.77908e-16 -8.77908e-16 -8.51887e-15 -1.56566e-14 -1.64428e-14 -1.64428e-14
-1.64428e-14 -1.31295e-14 -9.02589e-15 -9.02589e-15 -8.12842e-15 -5.28707e-15 -2.67464e-15 1.24399e-15 4.72081e-15 7.62551e-15
5.1123e-15 5.1123e-15 -8.77908e-16 -3.91407e-15 7.29063e-16 -8.53606e-15 -4.39685e-15 -4.39685e-15 -4.39685e-15 -2.02317e-15
-9.02589e-15 -4.56952e-15 -4.07753e-15 -2.26321e-15 7.49782e-15 8.01304e-15 3.14903e-15 1.84675e-15 1.84675e-15 1.4014e-15
2.74269e-15 -4.17395e-15 -4.39685e-15 3.9606e-16 2.38979e-15 -2.54454e-15 -2.03611e-15 7.01897e-15 6.93638e-15 -1.11901e-16
3.01194e-16 3.01194e-16 3.69604e-15 3.69604e-15 3.69604e-15 1.61835e-15 -2.00536e-15 -3.4343e-16 -3.4343e-16 -3.4343e-16
-3.4343e-16 1.10335e-15 -1.32629e-15 -1.32629e-15 -1.32629e-15 -1.32629e-15 -1.1886e-15 2.01367e-15 1.09241e-15 -1.00835e-16
2.02332e-15 2.02332e-15 
U 3 153 float
16 2.00165e-16 3.91553e-17 16 2.00165e-16 3.91553e-17 16 2.00165e-16 3.91553e-17 16 9.82226e-17
-7.39548e-16 16 2.49425e-16 -2.82081e-16 16 0 0 16 -7.35325e-16 -7.61468e-16
16 0 0 16 0 0 16 0 0 16
0 0 16 -1.30593e-15 -6.06258e-16 16 0 0 16 -6.5368e-16
-3.12949e-16 16 0 0 16 0 0 16 0 0
16 0 0 16 -2.16291e-16 -4.53612e-16 16 0 0 16
-7.79262e-16 -8.50079e-16 16 0 0 16 -2.63949e-16 -7.50531e-16 16 0
0 16 7.19585e-16 -4.32996e-16 16 0 0 16 1.02119e-15 -5.1754e-16
16 0 0 16 2.01601e-16 -1.66213e-16 16 2.01601e-16 -1.66213e-16 16
5.32499e-16 -4.27916e-16 16 5.32499e-16 -4.27916e-16 16 -2.29898e-16 -1.29144e-15 16 -2.88401e-17
-6.68489e-16 16 -4.55133e-16 -1.60559e-15 16 -4.06872e-16 -1.13534e-15 16 -4.06872e-16 -1.13534e-15
16 -4.06872e-16 -1.13534e-15 16 -4.06872e-16 -1.13534e-15 16 -2.50555e-16 -6.64888e-17 16
-7.15763e-16 -2.75478e-16 16 -1.13956e-15 -5.84095e-16 16 -7.21464e-17 -4.71518e-16 16 8.49181e-16
-2.58471e-16 16 8.70861e-16 -5.12852e-16 16 4.71085e-16 -5.03492e-16 16 4.71085e-16 -5.03492e-16
16 -3.91637e-16 -4.9662e-16 16 -3.91637e-16 -4.9662e-16 16 -3.91637e-16 -4.9662e-16 16
-8.55917e-16 -8.1135e-16 16 -5.59134e-16 -9.21673e-16 16 2.59461e-16 -7.00062e-16 16 2.59461e-16
-7.00062e-16 16 2.59461e-16 -7.00062e-16 16 1.92433e-16 -2.25378e-16 16 -7.74528e-16 -4.43789e-16
16 -7.74528e-16 -4.43789e-16 16 -7.74528e-16 -4.43789e-16 16 -1.05146e-15 -4.84266e-16 16
-9.92732e-16 -4.17713e-16 16 -5.59297e-16 -2.76168e-16 16 9.08557e-17 -6.38502e-17 16 7.19408e-16
2.85466e-18 16 8.02673e-16 -2.77025e-16 16 5.54206e-16 -2.37547e-16 16 5.54206e-16 -2.37547e-16
16 -3.57841e-16 -1.20565e-16 16 -3.57841e-16 -1.20565e-16 16 -6.82997e-16 -1.04048e-16 16
-3.65442e-16 -1.40006e-17 16 2.65408e-16 3.01865e-16 16 2.65408e-16 3.01865e-16 16 2.65408e-16
3.01865e-16 16 -1.488e-17 4.07092e-16 16 -9.2471e-16 1.2626e-16 16 -9.2471e-16 1.2626e-16
16 -9.2471e-16 1.2626e-16 16 -8.59763e-16 -4.81251e-17 16 -7.93278e-16 1.36669e-16 16
3.32268e-16 2.53076e-16 16 6.49003e-16 3.86247e-16 16 6.5318e-16 6.47403e-17 16 5.25588e-16
-1.53549e-16 16 5.25588e-16 -1.53549e-16 16 -3.47777e-16 -3.3645e-17 16 -3.47777e-16 -3.3645e-17
16 -7.38453e-16 -3.53655e-16 16 -1.63486e-16 -2.03116e-16 16 6.58681e-16 3.54124e-17 16
6.58681e-16 3.54124e-17 16 6.58681e-16 3.54124e-17 16 -4.56025e-17 -1.07741e-16 16 -1.05492e-15
9.56028e-17 16 -1.05492e-15 9.56028e-17 16 -8.04047e-16 2.05309e-16 16 -8.25583e-16 3.4259e-16
16 -3.57823e-16 2.96976e-16 16 3.43817e-16 2.28554e-16 16 5.44158e-16 1.03196e-16 16
2.85283e-16 8.30461e-18 16 3.32698e-16 -8.70659e-17 16 3.32698e-16 -8.70659e-17 16 -3.47777e-16
-3.3645e-17 16 -8.23148e-16 -8.08415e-16 16 -6.54259e-16 -3.98196e-16 16 3.61017e-17 1.1727e-17
16 3.54177e-16 2.71281e-16 16 3.54177e-16 2.71281e-16 16 3.54177e-16 2.71281e-16 16
4.47668e-19 -2.27101e-16 16 -1.05492e-15 9.56028e-17 16 -4.95758e-16 2.6887e-17 16 -7.42885e-16
3.68918e-16 16 -6.18839e-16 4.08411e-16 16 1.07918e-16 3.09904e-16 16 4.18547e-16 -1.74821e-16
16 4.75688e-16 -7.50976e-18 16 4.36878e-16 1.72128e-16 16 4.36878e-16 1.72128e-16 16
-3.20747e-16 2.79703e-16 16 -7.45663e-16 2.93255e-17 16 9.00463e-16 6.67695e-16 16 3.54177e-16
2.71281e-16 16 4.28617e-16 7.89997e-16 16 -2.39463e-16 5.58579e-16 16 -4.00926e-16 4.6942e-16
16 -5.93839e-16 8.13087e-16 16 -2.98775e-16 9.0497e-16 16 1.81849e-16 5.11471e-16 16
6.18202e-16 4.73086e-16 16 5.23024e-16 3.37019e-16 16 5.23024e-16 3.37019e-16 16 -7.89753e-16
7.30148e-16 16 -7.89753e-16 7.30148e-16 16 -7.89753e-16 7.30148e-16 16 -1.9088e-16 7.13475e-16
16 5.27295e-16 4.92221e-16 16 2.69413e-16 3.42879e-16 16 2.69413e-16 3.42879e-16 16
2.69413e-16 3.42879e-16 16 2.69413e-16 3.42879e-16 16 -2.62254e-16 3.26754e-16 16 -2.0365e-16
3.02782e-16 16 -2.0365e-16 3.02782e-16 16 -2.0365e-16 3.02782e-16 16 -2.0365e-16 3.02782e-16
16 -2.11562e-16 4.99516e-16 16 -2.4865e-16 6.68397e-16 16 -4.8895e-17 5.6234e-16 16
2.90749e-16 4.53987e-16 16 6.14551e-16 4.71229e-16 16 6.14551e-16 4.71229e-16 
