# vtk DataFile Version 2.0
sampleSurface
ASCII
DATASET POLYDATA
POINTS 153 float
4 -5 0 4 -5 0 4 -5 0 4 -4
1 4 -5 1 4 -4 0 4 -3 1
4 -3 0 4 -2 0 4 -2 0 4
-2 0 4 -2 1 4 -2 0 4 -1
1 4 -1 0 4 0 0 4 0 0
4 0 0 4 0 1 4 0 0 4
1 1 4 1 0 4 2 1 4 2
0 4 3 1 4 3 0 4 4 1
4 4 0 4 5 0 4 5 0 4
5 1 4 5 1 4 -4 2 4 -5
2 4 -3 2 4 -2 2 4 -2 2
4 -2 2 4 -2 2 4 -1 2 4
0 2 4 1 2 4 2 2 4 3
2 4 4 2 4 5 2 4 5 2
4 -5 3 4 -5 3 4 -5 3 4
-4 3 4 -3 3 4 -2 3 4 -2
3 4 -2 3 4 -1 3 4 0 3
4 0 3 4 0 3 4 1 2.6 4
1 3 4 1.4 3 4 2 3 4 3
3 4 4 3 4 5 3 4 5 3
4 -5 4 4 -5 4 4 -4 4 4
-3 4 4 -2 4 4 -2 4 4 -2
4 4 -1 4 4 0 4 4 0 4
4 0 4 4 1 3.66667 4 1 4 4
2 4 4 3 4 4 4 4 4 5
4 4 5 4 4 -5 5 4 -5 5
4 -4 5 4 -3 5 4 -2 5 4
-2 5 4 -2 5 4 -1 5 4 0
5 4 0 5 4 1 4.33333 4 1 5
4 1.4 5 4 2 5 4 3 5 4
4 5 4 5 5 4 5 5 4 -5
5 4 -4 6 4 -5 6 4 -3 6
4 -2 6 4 -2 6 4 -2 6 4
-1 6 4 0 5 4 0 6 4 1
5.4 4 1 6 4 2 6 4 3 6
4 4 6 4 5 6 4 5 6 4
-4 7 4 -5 7 4 -3 7 4 -2
6 4 -2 7 4 -1 7 4 0 7
4 1 7 4 2 7 4 3 7 4
4 7 4 5 7 4 5 7 4 -5
8 4 -5 8 4 -5 8 4 -4 8
4 -3 8 4 -2 8 4 -2 8 4
-2 8 4 -2 8 4 -1 8 4 0
8 4 0 8 4 0 8 4 0 8
4 1 8 4 2 8 4 3 8 4
4 8 4 5 8 4 5 8 
POLYGONS 126 630
3 0 1 2 5 3 4 0 2 5 4
6 3 5 7 3 8 9 10 5 11
6 7 8 10 3 10 9 12 5 13
11 10 12 14 3 15 16 17 5 18
13 14 15 17 3 17 16 19 5 20
18 17 19 21 4 22 20 21 23 4
24 22 23 25 4 26 24 25 27 4
28 29 30 31 4 26 27 28 31 4
32 33 4 3 4 34 32 3 6 3
35 36 37 5 35 37 34 6 11 3
38 36 35 5 39 38 35 11 13 4
40 39 13 18 4 41 40 18 20 4
42 41 20 22 4 43 42 22 24 4
44 43 24 26 4 31 30 45 46 4
44 26 31 46 3 47 48 49 5 50
47 49 33 32 4 51 50 32 34 4
37 36 52 53 4 51 34 37 53 4
54 52 36 38 4 55 54 38 39 3
56 57 58 5 56 58 55 39 40 4
59 60 57 56 4 59 56 40 41 3
61 60 59 5 62 61 59 41 42 4
63 62 42 43 4 64 63 43 44 4
46 45 65 66 4 64 44 46 66 4
67 68 48 47 4 69 67 47 50 4
70 69 50 51 4 53 52 71 72 4
70 51 53 72 4 73 71 52 54 4
74 73 54 55 4 58 57 75 76 4
74 55 58 76 5 77 75 57 60 78
3 79 77 78 3 78 60 61 5 80
79 78 61 62 4 81 80 62 63 4
82 81 63 64 4 66 65 83 84 4
82 64 66 84 4 85 86 68 67 4
87 85 67 69 4 88 87 69 70 4
72 71 89 90 4 88 70 72 90 4
91 89 71 73 4 92 91 73 74 4
76 75 93 94 4 92 74 76 94 5
95 96 93 75 77 3 95 77 79 3
97 96 95 5 98 97 95 79 80 4
99 98 80 81 4 100 99 81 82 4
84 83 101 102 4 100 82 84 102 3
103 86 85 5 104 105 103 85 87 4
106 104 87 88 4 90 89 107 108 4
106 88 90 108 4 109 107 89 91 4
110 109 91 92 3 94 93 111 5 112
110 92 94 111 4 111 93 96 113 4
114 112 111 113 3 113 96 97 5 115
114 113 97 98 4 116 115 98 99 4
117 116 99 100 4 102 101 118 119 4
117 100 102 119 4 120 121 105 104 4
122 120 104 106 3 108 107 123 5 124
122 106 108 123 3 123 107 109 5 125
124 123 109 110 4 126 125 110 112 4
127 126 112 114 4 128 127 114 115 4
129 128 115 116 4 130 129 116 117 4
119 118 131 132 4 130 117 119 132 3
133 134 135 5 136 133 135 121 120 4
137 136 120 122 3 138 139 140 5 138
140 137 122 124 3 141 139 138 5 142
141 138 124 125 3 143 144 145 5 143
145 142 125 126 3 146 144 143 5 147
146 143 126 127 4 148 147 127 128 4
149 148 128 129 4 150 149 129 130 4
132 131 151 152 4 150 130 132 152 
POINT_DATA 153
FIELD attributes 2
p 1 153 float
-1.77412e-15 -1.77412e-15 -1.77412e-15 -3.94722e-15 -7.85533e-16 -7.04746e-15 -1.08447e-14 -1.47763e-14 -2.18031e-14 -2.18031e-14 -2.18031e-14
-1.69401e-14 -2.18031e-14 -8.67862e-15 -1.15989e-14 3.77978e-15 3.77978e-15 3.77978e-15 3.45087e-15 3.77978e-15 2.91006e-15
1.50987e-15 -6.72119e-16 -9.69865e-15 -1.04325e-14 -2.40452e-14 -1.59286e-14 -2.16515e-14 -9.49149e-15 -9.49149e-15 -6.20583e-15
-6.20583e-15 1.98814e-15 1.1027e-15 -2.50136e-15 -6.86212e-15 -6.86212e-15 -6.86212e-15 -6.86212e-15 -4.71452e-15 9.52196e-16
1.71332e-15 1.83994e-15 -1.32581e-15 -8.58667e-15 -4.94285e-15 -4.94285e-15 1.60466e-15 1.60466e-15 1.60466e-15 4.05104e-15
6.17153e-16 -1.58416e-15 -1.58416e-15 -1.58416e-15 -1.92318e-15 -2.89148e-15 -2.89148e-15 -2.89148e-15 -9.42501e-16 -2.71305e-15
-4.40495e-15 -6.9428e-15 -8.54527e-15 -6.05628e-15 -2.46398e-15 -2.46398e-15 1.05906e-15 1.05906e-15 3.15311e-15 -7.89738e-16
-5.58814e-15 -5.58814e-15 -5.58814e-15 -6.54008e-15 -6.28483e-15 -6.28483e-15 -6.28483e-15 -3.09447e-15 -3.28518e-15 -5.96355e-15
-9.45637e-15 -4.33926e-15 -1.03615e-17 -1.03615e-17 2.80544e-15 2.80544e-15 4.45637e-15 -2.24363e-15 -1.09314e-14 -1.09314e-14
-1.09314e-14 -1.17382e-14 -6.75048e-15 -6.75048e-15 -2.63481e-15 -1.33409e-15 -1.22596e-15 -1.06376e-15 -5.38936e-15 -2.19473e-15
1.41576e-15 1.41576e-15 2.80544e-15 3.99715e-15 2.74979e-15 -3.58307e-15 -9.01112e-15 -9.01112e-15 -9.01112e-15 -7.86493e-15
-6.75048e-15 -3.63966e-15 -9.44368e-16 -3.59791e-16 -2.03239e-16 -1.82843e-15 -2.0924e-15 -6.28512e-17 -6.28512e-17 6.32207e-16
1.10819e-15 -4.7909e-15 -9.01112e-15 -6.46144e-15 -6.13905e-15 -3.69687e-15 -1.35605e-15 -1.1381e-15 9.06001e-17 -1.04269e-15
-6.19685e-16 -6.19685e-16 8.2514e-16 8.2514e-16 8.2514e-16 -4.22273e-16 -2.99981e-15 -3.55421e-15 -3.55421e-15 -3.55421e-15
-3.55421e-15 -3.56006e-15 -2.80556e-15 -2.80556e-15 -2.80556e-15 -2.80556e-15 -1.31641e-15 -6.40604e-16 3.5667e-16 6.21758e-16
6.12328e-16 6.12328e-16 
U 3 153 float
16 4.14022e-17 2.40835e-18 16 4.14022e-17 2.40835e-18 16 4.14022e-17 2.40835e-18 16 1.21653e-15
2.73419e-17 16 -4.17779e-17 7.5778e-17 16 0 0 16 1.75411e-15 1.17426e-16
16 0 0 16 0 0 16 0 0 16
0 0 16 5.72347e-16 -4.11822e-16 16 0 0 16 -1.82966e-16
-8.31564e-16 16 0 0 16 0 0 16 0 0
16 0 0 16 -5.83825e-16 -7.95357e-16 16 0 0 16
-8.36302e-16 -9.21681e-16 16 0 0 16 -2.91114e-16 -1.11117e-15 16 0
0 16 2.99246e-16 -1.6735e-15 16 0 0 16 -2.57065e-16 -1.2e-15
16 0 0 16 -4.18974e-16 -1.59197e-17 16 -4.18974e-16 -1.59197e-17 16
-3.35435e-16 -2.57455e-16 16 -3.35435e-16 -2.57455e-16 16 1.26572e-15 5.58557e-16 16 4.73851e-17
2.31783e-16 16 1.36786e-15 4.69994e-16 16 -7.33013e-17 -3.98119e-17 16 -7.33013e-17 -3.98119e-17
16 -7.33013e-17 -3.98119e-17 16 -7.33013e-17 -3.98119e-17 16 -5.93377e-16 -6.26455e-16 16
-6.45272e-16 -4.64753e-16 16 -6.94235e-16 -2.42088e-16 16 -3.96813e-16 -1.37344e-16 16 1.9297e-16
-1.30471e-16 16 2.38747e-16 -6.22887e-16 16 6.84726e-17 -4.09002e-16 16 6.84726e-17 -4.09002e-16
16 2.96067e-16 6.73104e-17 16 2.96067e-16 6.73104e-17 16 2.96067e-16 6.73104e-17 16
1.45543e-15 2.18666e-16 16 1.14794e-15 3.06267e-16 16 -5.0086e-16 2.23321e-16 16 -5.0086e-16
2.23321e-16 16 -5.0086e-16 2.23321e-16 16 -6.06542e-16 -3.18588e-17 16 -2.66429e-16 3.47169e-16
16 -2.66429e-16 3.47169e-16 16 -2.66429e-16 3.47169e-16 16 -5.87618e-16 1.603e-17 16
-5.1654e-16 1.88108e-16 16 -3.55732e-16 1.24249e-16 16 -1.14521e-16 2.84603e-17 16 -1.46647e-16
2.72778e-16 16 -5.63565e-16 -1.34664e-16 16 -1.6422e-16 -1.19654e-16 16 -1.6422e-16 -1.19654e-16
16 2.09268e-16 -8.86552e-17 16 2.09268e-16 -8.86552e-17 16 1.47567e-15 -3.83194e-16 16
1.33029e-15 -5.53378e-16 16 -3.95582e-16 -5.79709e-16 16 -3.95582e-16 -5.79709e-16 16 -3.95582e-16
-5.79709e-16 16 -4.61614e-16 -5.04967e-16 16 -4.42782e-16 -5.96499e-16 16 -4.42782e-16 -5.96499e-16
16 -4.42782e-16 -5.96499e-16 16 -8.3376e-16 -5.02409e-16 16 -9.9237e-16 -8.47668e-16 16
-3.00212e-16 -7.88471e-16 16 1.69069e-18 -6.21018e-16 16 -1.79987e-16 -6.88769e-17 16 6.9843e-17
1.98937e-16 16 6.9843e-17 1.98937e-16 16 1.89795e-17 2.61155e-16 16 1.89795e-17 2.61155e-16
16 9.87802e-16 -1.01663e-16 16 9.57385e-16 -7.63797e-16 16 -4.29454e-16 -9.17576e-16 16
-4.29454e-16 -9.17576e-16 16 -4.29454e-16 -9.17576e-16 16 -6.16641e-16 -5.8513e-16 16 -5.7554e-16
-4.57438e-16 16 -5.7554e-16 -4.57438e-16 16 -8.97575e-16 -6.94649e-16 16 -7.07984e-16 -3.88612e-16
16 -3.9507e-16 -2.08927e-16 16 7.43018e-17 6.06006e-17 16 5.44648e-16 3.77487e-16 16
2.56397e-16 1.02071e-15 16 1.17118e-16 7.03532e-16 16 1.17118e-16 7.03532e-16 16 1.89795e-17
2.61155e-16 16 4.73605e-16 3.94218e-16 16 -1.52119e-16 4.83775e-16 16 5.61717e-16 -3.39507e-16
16 -2.00436e-16 -5.99306e-16 16 -2.00436e-16 -5.99306e-16 16 -2.00436e-16 -5.99306e-16 16
-2.67043e-17 -3.85588e-16 16 -5.7554e-16 -4.57438e-16 16 -2.84444e-16 -2.45144e-16 16 -6.3059e-16
-2.31332e-16 16 -5.145e-16 4.58753e-18 16 4.55508e-16 3.9605e-16 16 9.4409e-16 4.42019e-16
16 1.46521e-16 6.49159e-16 16 -2.2173e-16 3.8969e-16 16 -2.2173e-16 3.8969e-16 16
1.76753e-16 6.43219e-16 16 -8.77604e-17 4.4612e-16 16 -4.2329e-18 -1.62981e-17 16 -2.00436e-16
-5.99306e-16 16 -4.70632e-16 -2.23361e-16 16 -3.02187e-16 -4.321e-16 16 -2.38282e-16 -7.31097e-16
16 -6.69794e-17 -1.5801e-16 16 5.3001e-16 8.15189e-17 16 7.86112e-16 -2.82327e-16 16
1.88722e-16 -6.20066e-16 16 -1.38381e-16 -4.07171e-16 16 -1.38381e-16 -4.07171e-16 16 7.91431e-17
4.42102e-16 16 7.91431e-17 4.42102e-16 16 7.91431e-17 4.42102e-16 16 1.43727e-17 3.43733e-16
16 -2.94123e-16 5.1376e-17 16 -5.84419e-16 4.8512e-17 16 -5.84419e-16 4.8512e-17 16
-5.84419e-16 4.8512e-17 16 -5.84419e-16 4.8512e-17 16 -5.12592e-16 -7.98347e-17 16 -1.15638e-17
-1.92515e-16 16 -1.15638e-17 -1.92515e-16 16 -1.15638e-17 -1.92515e-16 16 -1.15638e-17 -1.92515e-16
16 2.82394e-16 1.28919e-16 16 3.06793e-16 1.79479e-16 16 2.31192e-16 -6.64902e-17 16
2.72961e-18 -3.68641e-16 16 -3.70595e-17 -4.88909e-16 16 -3.70595e-17 -4.88909e-16 
