# vtk DataFile Version 2.0
sampleSurface
ASCII
DATASET POLYDATA
POINTS 369 float
-9 0.02 0 -10 0.02 0 -10 0.02 1 -9 0.02
1 -8 0.02 0 -8 0.02 1 -7 0.02 0
-7 0.02 1 -6 0.02 0 -6 0.02 1 -5
0.02 0 -5 0.02 1 -4 0.02 0 -4 0.02
1 -3 0.02 0 -3 0.02 1 -2 0.02 0
-2 0.02 1 -1 0.02 0 -1 0.02 1 0
0.02 0 0 0.02 1 1 0.02 0 1 0.02
1 2 0.02 0 2 0.02 1 3 0.02 0
3 0.02 1 4 0.02 0 4 0.02 1 5
0.02 0 5 0.02 1 6 0.02 0 6 0.02
1 7 0.02 0 7 0.02 1 8 0.02 0
8 0.02 1 9 0.02 0 9 0.02 1 10
0.02 0 10 0.02 1 11 0.02 0 11 0.02
1 12 0.02 0 12 0.02 1 13 0.02 0
13 0.02 1 14 0.02 0 14 0.02 1 15
0.02 0 15 0.02 1 16 0.02 0 16 0.02
1 17 0.02 0 17 0.02 1 18 0.02 0
18 0.02 1 19 0.02 0 19 0.02 1 20
0.02 0 20 0.02 1 21 0.02 0 21 0.02
1 22 0.02 0 22 0.02 1 23 0.02 0
23 0.02 1 24 0.02 0 24 0.02 1 25
0.02 0 25 0.02 1 26 0.02 0 26 0.02
1 27 0.02 0 27 0.02 1 28 0.02 0
28 0.02 1 29 0.02 0 29 0.02 1 30
0.02 1 30 0.02 0 -10 0.02 2 -9 0.02
2 -8 0.02 2 -7 0.02 2 -6 0.02 2
-5 0.02 2 -4 0.02 2 -3 0.02 2 -2
0.02 2 -1 0.02 2 0 0.02 2 1 0.02
2 2 0.02 2 3 0.02 2 4 0.02 2
5 0.02 2 6 0.02 2 7 0.02 2 8
0.02 2 9 0.02 2 10 0.02 2 11 0.02
2 12 0.02 2 13 0.02 2 14 0.02 2
15 0.02 2 16 0.02 2 17 0.02 2 18
0.02 2 19 0.02 2 20 0.02 2 21 0.02
2 22 0.02 2 23 0.02 2 24 0.02 2
25 0.02 2 26 0.02 2 27 0.02 2 28
0.02 2 29 0.02 2 30 0.02 2 -10 0.02
3 -9 0.02 3 -8 0.02 3 -7 0.02 3
-6 0.02 3 -5 0.02 3 -4 0.02 3 -3
0.02 3 -2 0.02 3 -1 0.02 3 0 0.02
3 1 0.02 3 2 0.02 3 3 0.02 3
4 0.02 3 5 0.02 3 6 0.02 3 7
0.02 3 8 0.02 3 9 0.02 3 10 0.02
3 11 0.02 3 12 0.02 3 13 0.02 3
14 0.02 3 15 0.02 3 16 0.02 3 17
0.02 3 18 0.02 3 19 0.02 3 20 0.02
3 21 0.02 3 22 0.02 3 23 0.02 3
24 0.02 3 25 0.02 3 26 0.02 3 27
0.02 3 28 0.02 3 29 0.02 3 30 0.02
3 -10 0.02 4 -9 0.02 4 -8 0.02 4
-7 0.02 4 -6 0.02 4 -5 0.02 4 -4
0.02 4 -3 0.02 4 -2 0.02 4 -1 0.02
4 0 0.02 4 1 0.02 4 2 0.02 4
3 0.02 4 4 0.02 4 5 0.02 4 6
0.02 4 7 0.02 4 8 0.02 4 9 0.02
4 10 0.02 4 11 0.02 4 12 0.02 4
13 0.02 4 14 0.02 4 15 0.02 4 16
0.02 4 17 0.02 4 18 0.02 4 19 0.02
4 20 0.02 4 21 0.02 4 22 0.02 4
23 0.02 4 24 0.02 4 25 0.02 4 26
0.02 4 27 0.02 4 28 0.02 4 29 0.02
4 30 0.02 4 -10 0.02 5 -9 0.02 5
-8 0.02 5 -7 0.02 5 -6 0.02 5 -5
0.02 5 -4 0.02 5 -3 0.02 5 -2 0.02
5 -1 0.02 5 0 0.02 5 1 0.02 5
2 0.02 5 3 0.02 5 4 0.02 5 5
0.02 5 6 0.02 5 7 0.02 5 8 0.02
5 9 0.02 5 10 0.02 5 11 0.02 5
12 0.02 5 13 0.02 5 14 0.02 5 15
0.02 5 16 0.02 5 17 0.02 5 18 0.02
5 19 0.02 5 20 0.02 5 21 0.02 5
22 0.02 5 23 0.02 5 24 0.02 5 25
0.02 5 26 0.02 5 27 0.02 5 28 0.02
5 29 0.02 5 30 0.02 5 -10 0.02 6
-9 0.02 6 -8 0.02 6 -7 0.02 6 -6
0.02 6 -5 0.02 6 -4 0.02 6 -3 0.02
6 -2 0.02 6 -1 0.02 6 0 0.02 6
1 0.02 6 2 0.02 6 3 0.02 6 4
0.02 6 5 0.02 6 6 0.02 6 7 0.02
6 8 0.02 6 9 0.02 6 10 0.02 6
11 0.02 6 12 0.02 6 13 0.02 6 14
0.02 6 15 0.02 6 16 0.02 6 17 0.02
6 18 0.02 6 19 0.02 6 20 0.02 6
21 0.02 6 22 0.02 6 23 0.02 6 24
0.02 6 25 0.02 6 26 0.02 6 27 0.02
6 28 0.02 6 29 0.02 6 30 0.02 6
-10 0.02 7 -9 0.02 7 -8 0.02 7 -7
0.02 7 -6 0.02 7 -5 0.02 7 -4 0.02
7 -3 0.02 7 -2 0.02 7 -1 0.02 7
0 0.02 7 1 0.02 7 2 0.02 7 3
0.02 7 4 0.02 7 5 0.02 7 6 0.02
7 7 0.02 7 8 0.02 7 9 0.02 7
10 0.02 7 11 0.02 7 12 0.02 7 13
0.02 7 14 0.02 7 15 0.02 7 16 0.02
7 17 0.02 7 18 0.02 7 19 0.02 7
20 0.02 7 21 0.02 7 22 0.02 7 23
0.02 7 24 0.02 7 25 0.02 7 26 0.02
7 27 0.02 7 28 0.02 7 29 0.02 7
30 0.02 7 -10 0.02 8 -9 0.02 8 -8
0.02 8 -7 0.02 8 -6 0.02 8 -5 0.02
8 -4 0.02 8 -3 0.02 8 -2 0.02 8
-1 0.02 8 0 0.02 8 1 0.02 8 2
0.02 8 3 0.02 8 4 0.02 8 5 0.02
8 6 0.02 8 7 0.02 8 8 0.02 8
9 0.02 8 10 0.02 8 11 0.02 8 12
0.02 8 13 0.02 8 14 0.02 8 15 0.02
8 16 0.02 8 17 0.02 8 18 0.02 8
19 0.02 8 20 0.02 8 21 0.02 8 22
0.02 8 23 0.02 8 24 0.02 8 25 0.02
8 26 0.02 8 27 0.02 8 28 0.02 8
29 0.02 8 30 0.02 8 
POLYGONS 320 1600
4 0 1 2 3 4 4 0 3 5 4
6 4 5 7 4 8 6 7 9 4
10 8 9 11 4 12 10 11 13 4
14 12 13 15 4 16 14 15 17 4
18 16 17 19 4 20 18 19 21 4
22 20 21 23 4 24 22 23 25 4
26 24 25 27 4 28 26 27 29 4
30 28 29 31 4 32 30 31 33 4
34 32 33 35 4 36 34 35 37 4
38 36 37 39 4 40 38 39 41 4
42 40 41 43 4 44 42 43 45 4
46 44 45 47 4 48 46 47 49 4
50 48 49 51 4 52 50 51 53 4
54 52 53 55 4 56 54 55 57 4
58 56 57 59 4 60 58 59 61 4
62 60 61 63 4 64 62 63 65 4
66 64 65 67 4 68 66 67 69 4
70 68 69 71 4 72 70 71 73 4
74 72 73 75 4 76 74 75 77 4
78 76 77 79 4 80 81 78 79 4
3 2 82 83 4 5 3 83 84 4
7 5 84 85 4 9 7 85 86 4
11 9 86 87 4 13 11 87 88 4
15 13 88 89 4 17 15 89 90 4
19 17 90 91 4 21 19 91 92 4
23 21 92 93 4 25 23 93 94 4
27 25 94 95 4 29 27 95 96 4
31 29 96 97 4 33 31 97 98 4
35 33 98 99 4 37 35 99 100 4
39 37 100 101 4 41 39 101 102 4
43 41 102 103 4 45 43 103 104 4
47 45 104 105 4 49 47 105 106 4
51 49 106 107 4 53 51 107 108 4
55 53 108 109 4 57 55 109 110 4
59 57 110 111 4 61 59 111 112 4
63 61 112 113 4 65 63 113 114 4
67 65 114 115 4 69 67 115 116 4
71 69 116 117 4 73 71 117 118 4
75 73 118 119 4 77 75 119 120 4
79 77 120 121 4 122 80 79 121 4
83 82 123 124 4 84 83 124 125 4
85 84 125 126 4 86 85 126 127 4
87 86 127 128 4 88 87 128 129 4
89 88 129 130 4 90 89 130 131 4
91 90 131 132 4 92 91 132 133 4
93 92 133 134 4 94 93 134 135 4
95 94 135 136 4 96 95 136 137 4
97 96 137 138 4 98 97 138 139 4
99 98 139 140 4 100 99 140 141 4
101 100 141 142 4 102 101 142 143 4
103 102 143 144 4 104 103 144 145 4
105 104 145 146 4 106 105 146 147 4
107 106 147 148 4 108 107 148 149 4
109 108 149 150 4 110 109 150 151 4
111 110 151 152 4 112 111 152 153 4
113 112 153 154 4 114 113 154 155 4
115 114 155 156 4 116 115 156 157 4
117 116 157 158 4 118 117 158 159 4
119 118 159 160 4 120 119 160 161 4
121 120 161 162 4 163 122 121 162 4
124 123 164 165 4 125 124 165 166 4
126 125 166 167 4 127 126 167 168 4
128 127 168 169 4 129 128 169 170 4
130 129 170 171 4 131 130 171 172 4
132 131 172 173 4 133 132 173 174 4
134 133 174 175 4 135 134 175 176 4
136 135 176 177 4 137 136 177 178 4
138 137 178 179 4 139 138 179 180 4
140 139 180 181 4 141 140 181 182 4
142 141 182 183 4 143 142 183 184 4
144 143 184 185 4 145 144 185 186 4
146 145 186 187 4 147 146 187 188 4
148 147 188 189 4 149 148 189 190 4
150 149 190 191 4 151 150 191 192 4
152 151 192 193 4 153 152 193 194 4
154 153 194 195 4 155 154 195 196 4
156 155 196 197 4 157 156 197 198 4
158 157 198 199 4 159 158 199 200 4
160 159 200 201 4 161 160 201 202 4
162 161 202 203 4 204 163 162 203 4
165 164 205 206 4 166 165 206 207 4
167 166 207 208 4 168 167 208 209 4
169 168 209 210 4 170 169 210 211 4
171 170 211 212 4 172 171 212 213 4
173 172 213 214 4 174 173 214 215 4
175 174 215 216 4 176 175 216 217 4
177 176 217 218 4 178 177 218 219 4
179 178 219 220 4 180 179 220 221 4
181 180 221 222 4 182 181 222 223 4
183 182 223 224 4 184 183 224 225 4
185 184 225 226 4 186 185 226 227 4
187 186 227 228 4 188 187 228 229 4
189 188 229 230 4 190 189 230 231 4
191 190 231 232 4 192 191 232 233 4
193 192 233 234 4 194 193 234 235 4
195 194 235 236 4 196 195 236 237 4
197 196 237 238 4 198 197 238 239 4
199 198 239 240 4 200 199 240 241 4
201 200 241 242 4 202 201 242 243 4
203 202 243 244 4 245 204 203 244 4
206 205 246 247 4 207 206 247 248 4
208 207 248 249 4 209 208 249 250 4
210 209 250 251 4 211 210 251 252 4
212 211 252 253 4 213 212 253 254 4
214 213 254 255 4 215 214 255 256 4
216 215 256 257 4 217 216 257 258 4
218 217 258 259 4 219 218 259 260 4
220 219 260 261 4 221 220 261 262 4
222 221 262 263 4 223 222 263 264 4
224 223 264 265 4 225 224 265 266 4
226 225 266 267 4 227 226 267 268 4
228 227 268 269 4 229 228 269 270 4
230 229 270 271 4 231 230 271 272 4
232 231 272 273 4 233 232 273 274 4
234 233 274 275 4 235 234 275 276 4
236 235 276 277 4 237 236 277 278 4
238 237 278 279 4 239 238 279 280 4
240 239 280 281 4 241 240 281 282 4
242 241 282 283 4 243 242 283 284 4
244 243 284 285 4 286 245 244 285 4
247 246 287 288 4 248 247 288 289 4
249 248 289 290 4 250 249 290 291 4
251 250 291 292 4 252 251 292 293 4
253 252 293 294 4 254 253 294 295 4
255 254 295 296 4 256 255 296 297 4
257 256 297 298 4 258 257 298 299 4
259 258 299 300 4 260 259 300 301 4
261 260 301 302 4 262 261 302 303 4
263 262 303 304 4 264 263 304 305 4
265 264 305 306 4 266 265 306 307 4
267 266 307 308 4 268 267 308 309 4
269 268 309 310 4 270 269 310 311 4
271 270 311 312 4 272 271 312 313 4
273 272 313 314 4 274 273 314 315 4
275 274 315 316 4 276 275 316 317 4
277 276 317 318 4 278 277 318 319 4
279 278 319 320 4 280 279 320 321 4
281 280 321 322 4 282 281 322 323 4
283 282 323 324 4 284 283 324 325 4
285 284 325 326 4 327 286 285 326 4
288 287 328 329 4 289 288 329 330 4
290 289 330 331 4 291 290 331 332 4
292 291 332 333 4 293 292 333 334 4
294 293 334 335 4 295 294 335 336 4
296 295 336 337 4 297 296 337 338 4
298 297 338 339 4 299 298 339 340 4
300 299 340 341 4 301 300 341 342 4
302 301 342 343 4 303 302 343 344 4
304 303 344 345 4 305 304 345 346 4
306 305 346 347 4 307 306 347 348 4
308 307 348 349 4 309 308 349 350 4
310 309 350 351 4 311 310 351 352 4
312 311 352 353 4 313 312 353 354 4
314 313 354 355 4 315 314 355 356 4
316 315 356 357 4 317 316 357 358 4
318 317 358 359 4 319 318 359 360 4
320 319 360 361 4 321 320 361 362 4
322 321 362 363 4 323 322 363 364 4
324 323 364 365 4 325 324 365 366 4
326 325 366 367 4 327 326 367 368 
POINT_DATA 369
FIELD attributes 2
p 1 369 float
3.35581e-15 1.55601e-15 2.24874e-15 4.4974e-15 -2.23194e-15 -1.26267e-15 -1.92844e-15 -5.10139e-15 6.07329e-15 1.20061e-15 6.9972e-15
7.44973e-15 1.1038e-14 1.62133e-14 1.45543e-14 1.68337e-14 4.4518e-15 6.41129e-15 -8.13086e-15 -4.29383e-15 -4.92257e-15
-5.82551e-15 5.74233e-15 -1.95013e-16 -1.1361e-14 -1.06931e-14 -3.40195e-14 -2.61468e-14 -1.35242e-14 -1.16898e-14 1.2278e-14
8.80514e-15 1.74099e-14 1.69609e-14 1.60622e-14 1.90035e-14 7.96408e-15 9.30955e-15 1.86467e-15 3.05457e-15 -5.52066e-15
-4.84068e-15 -1.64136e-14 -1.56798e-14 -2.51961e-14 -2.48098e-14 -2.81919e-14 -3.07285e-14 -2.17822e-14 -2.6029e-14 -1.82144e-14
-1.68222e-14 -2.27134e-14 -1.42434e-14 -2.6657e-14 -1.84527e-14 -1.18576e-14 -7.53304e-15 1.37166e-14 1.38642e-14 1.95406e-14
1.84499e-14 2.3776e-14 2.02381e-14 4.00618e-14 3.44468e-14 4.12699e-14 4.0312e-14 4.54643e-14 4.78649e-14 5.63115e-14
5.71608e-14 4.9612e-14 4.46888e-14 2.80756e-14 2.01559e-14 6.26452e-15 1.98602e-15 1.00138e-15 -9.11449e-16 -0
1.90122e-15 9.42135e-16 6.13755e-15 3.80543e-15 -5.35499e-15 -6.82136e-16 1.26437e-14 2.01399e-14 1.61348e-14 6.06107e-15
-1.85446e-15 -4.05873e-15 -5.68856e-15 -9.25251e-15 -1.56892e-14 -1.07733e-14 3.14986e-15 1.02591e-14 1.38066e-14 8.61344e-15
1.70444e-15 -7.44798e-15 -1.43172e-14 -1.88604e-14 -2.6701e-14 -2.80499e-14 -1.54059e-14 -1.83374e-15 -3.70348e-15 3.94888e-15
1.77893e-14 1.95985e-14 1.93692e-14 2.41136e-14 3.62012e-14 4.73739e-14 4.76423e-14 3.09202e-14 8.61714e-15 -4.55014e-15
-3.28119e-15 0 -6.84318e-15 -1.01501e-15 5.50002e-15 2.88373e-15 5.1125e-15 1.76318e-14 1.64282e-14 9.92494e-15
5.55919e-15 5.01046e-16 -5.38647e-17 -2.38554e-15 -6.11012e-15 -1.48018e-14 -1.19425e-14 2.19482e-15 1.00656e-15 1.55981e-15
5.84836e-15 4.58641e-16 -8.65737e-15 -1.35837e-14 -1.36784e-14 -1.50488e-14 -1.66645e-14 -1.04101e-14 2.89487e-15 6.16898e-15
1.44779e-14 2.31e-14 2.28769e-14 2.23551e-14 1.758e-14 2.56468e-14 3.5635e-14 3.0883e-14 2.08499e-14 1.07353e-14
1.30554e-17 -4.56643e-15 -0 -1.26818e-14 -8.30607e-15 6.07086e-15 1.18286e-14 1.17967e-14 1.93454e-14 1.40667e-14
8.40614e-15 9.60281e-15 6.80418e-15 2.93343e-15 1.24966e-15 -4.20666e-15 -1.50777e-14 -1.33579e-14 -3.57817e-15 -4.89154e-15
-2.52611e-15 3.09539e-15 2.5422e-16 -6.28436e-15 -1.18574e-14 -1.30409e-14 -8.87049e-15 -6.93771e-15 -5.30864e-15 5.9457e-15
1.54999e-14 2.45488e-14 2.62138e-14 2.11247e-14 1.1843e-14 2.60545e-15 1.18226e-14 2.2855e-14 2.11808e-14 1.79841e-14
1.94929e-14 1.13648e-14 -2.47154e-15 -0 -1.53357e-14 -1.10589e-14 6.13522e-15 1.43475e-14 1.07928e-14 1.31399e-14
9.96867e-15 8.24483e-15 1.01789e-14 8.38592e-15 1.00001e-14 7.981e-15 -5.45656e-15 -1.92118e-14 -2.02256e-14 -9.96007e-15
-9.57768e-16 3.72157e-15 2.89263e-15 1.81415e-15 1.44973e-15 -1.21985e-15 -1.8145e-15 -1.83668e-15 -6.17413e-15 -3.44283e-15
9.23006e-15 2.05488e-14 2.93586e-14 2.36181e-14 1.54289e-14 4.49745e-15 -1.27264e-14 -5.6968e-15 1.09174e-14 1.31762e-14
1.39974e-14 1.8958e-14 1.40559e-14 2.98208e-15 -0 -9.19693e-15 -6.26608e-15 5.53711e-15 1.54786e-14 1.10213e-14
8.61925e-15 6.15604e-15 7.63753e-16 2.39373e-15 5.13469e-15 1.28601e-14 1.42211e-14 -4.9737e-15 -2.26135e-14 -2.37128e-14
-9.88181e-15 4.59979e-15 6.16368e-15 2.04743e-15 4.16254e-15 7.12312e-15 7.66491e-15 1.17592e-14 7.53764e-15 -2.63706e-15
-2.71207e-15 5.32239e-15 1.50525e-14 2.25587e-14 1.73401e-14 1.36153e-14 1.02369e-14 -1.06916e-14 -1.68357e-14 -1.32405e-15
5.29394e-15 7.09049e-15 8.75311e-15 6.67865e-15 4.34887e-15 -0 4.96084e-15 4.87815e-15 5.89764e-15 1.09492e-14
1.20614e-14 1.11474e-14 5.91479e-15 -3.37246e-15 -3.18742e-15 1.0331e-15 7.39104e-15 8.91512e-15 -2.25685e-15 -1.07164e-14
-1.13886e-14 -4.35493e-15 1.74032e-15 3.00605e-16 -8.01408e-17 3.6259e-15 6.5212e-15 1.08005e-14 1.37896e-14 7.79677e-15
8.88969e-16 -3.64098e-15 -1.81886e-15 6.74508e-15 1.30497e-14 1.38425e-14 1.59066e-14 1.3576e-14 2.23827e-15 -8.65071e-15
-5.23726e-15 2.50449e-15 2.98647e-15 2.01764e-15 6.36733e-16 2.33251e-15 0 7.78383e-15 4.05834e-15 1.97279e-15
2.09107e-15 3.99485e-15 5.26189e-15 2.6433e-15 -9.50865e-16 -1.32159e-15 -3.9275e-16 2.23823e-15 1.66223e-15 -4.03274e-16
-4.86741e-16 -6.40463e-16 8.56081e-16 7.77216e-17 -8.89834e-16 2.32095e-16 1.89972e-15 3.84243e-15 7.03359e-15 6.22721e-15
2.31259e-15 5.37103e-16 -1.78224e-15 -2.01494e-15 1.48975e-15 4.22553e-15 6.22335e-15 8.55334e-15 7.32949e-15 5.48033e-15
-2.11768e-16 -2.45692e-15 1.45183e-15 1.72176e-15 9.65802e-16 6.60882e-17 7.39875e-16 1.09122e-15 
U 3 369 float
16 0 0 16 0 0 16 0 0 16 -2.30275e-16
5.24768e-17 16 0 0 16 -4.37674e-17 -2.38804e-16 16 0 0
16 4.51039e-16 -5.56578e-16 16 0 0 16 8.51914e-16 -5.79476e-16 16
0 0 16 7.41676e-16 -6.17453e-16 16 0 0 16 4.22891e-16
-5.93463e-16 16 0 0 16 3.33472e-16 -3.89729e-16 16 0 0
16 5.35899e-16 -3.57999e-16 16 0 0 16 4.62752e-16 -5.73391e-16 16
0 0 16 4.21669e-17 -5.67253e-16 16 0 0 16 1.15766e-16
-6.90272e-17 16 0 0 16 3.29513e-16 1.54045e-16 16 0 0
16 1.72915e-16 -7.76309e-17 16 0 0 16 2.16235e-16 -2.16931e-16 16
0 0 16 6.4125e-16 -4.28927e-16 16 0 0 16 9.94337e-16
-6.33586e-16 16 0 0 16 6.31921e-16 -5.57488e-16 16 0 0
16 2.38269e-16 -1.11768e-16 16 0 0 16 2.42537e-16 4.18838e-16 16
0 0 16 3.46921e-16 7.25414e-16 16 0 0 16 3.18585e-16
7.67528e-16 16 0 0 16 -1.46096e-16 6.59234e-16 16 0 0
16 -8.62743e-16 4.79909e-16 16 0 0 16 -1.32704e-15 3.30711e-16 16
0 0 16 -1.28635e-15 5.01396e-18 16 0 0 16 -1.07951e-15
-7.14302e-16 16 0 0 16 -7.35253e-16 -1.34057e-15 16 0 0
16 -6.3168e-16 -1.6449e-15 16 0 0 16 -5.70179e-16 -1.65648e-15 16
0 0 16 -6.60965e-16 -1.59952e-15 16 0 0 16 -7.9961e-16
-1.51377e-15 16 0 0 16 -6.66969e-16 -1.11009e-15 16 0 0
16 -9.19218e-16 -1.02206e-15 16 0 0 16 -1.14867e-15 -1.30352e-15 16
0 0 16 -9.31238e-16 -1.39923e-15 16 0 0 16 -4.59387e-16
-1.16343e-15 16 0 0 16 3.44585e-17 -7.3407e-16 16 0 0
16 5.47143e-16 -4.84069e-16 16 0 0 16 8.11661e-16 -3.14523e-16 16
7.50444e-16 -2.07307e-16 16 7.31403e-16 -3.38156e-16 16 0 0 16 -2.35348e-16
3.30072e-16 16 -2.88593e-16 -3.70474e-17 16 9.11803e-17 -7.57795e-16 16 2.61853e-16 -1.00351e-15
16 1.20167e-16 -1.01113e-15 16 8.31266e-17 -6.51379e-16 16 2.12369e-16 -1.47812e-16 16
3.67826e-16 3.27175e-17 16 1.28992e-16 -5.13759e-17 16 -1.18381e-16 -1.54543e-16 16 9.49225e-18
2.39522e-17 16 3.14137e-16 6.79738e-17 16 4.7311e-16 -2.00514e-16 16 4.73711e-16 -5.27278e-16
16 6.40538e-16 -9.44674e-16 16 8.38215e-16 -1.08155e-15 16 5.21157e-16 -7.19199e-16 16
8.36849e-17 -2.13181e-16 16 -1.02657e-17 3.03852e-16 16 1.82621e-16 7.5042e-16 16 2.40265e-16
1.00135e-15 16 -9.03979e-17 9.43232e-16 16 -5.66161e-16 6.23708e-16 16 -9.14757e-16 3.81989e-16
16 -8.45484e-16 2.01795e-16 16 -3.17599e-16 -3.35523e-16 16 1.54396e-16 -9.76405e-16 16
5.20279e-17 -1.36449e-15 16 -8.29598e-17 -1.37836e-15 16 -3.77755e-16 -1.37552e-15 16 -6.80878e-16
-1.53408e-15 16 -6.04187e-16 -1.23813e-15 16 -5.43299e-16 -1.06335e-15 16 -6.54187e-16 -1.22669e-15
16 -7.86186e-16 -1.01971e-15 16 -6.12331e-16 -5.47944e-16 16 -2.42708e-16 -2.88313e-16 16
2.85904e-17 -4.04815e-16 16 1.28245e-16 -4.68349e-16 16 1.37017e-16 -4.00305e-16 16 0
0 16 -1.99035e-16 4.86115e-16 16 -2.69793e-16 4.11774e-16 16 -7.75918e-17 -1.80568e-16
16 -1.75951e-16 -6.28267e-16 16 -4.42796e-16 -8.4466e-16 16 -3.7991e-16 -6.30724e-16 16
-5.68585e-17 -3.03463e-16 16 1.58568e-16 -1.53357e-16 16 -6.20999e-17 -1.50478e-16 16 -2.18517e-16
-2.10939e-16 16 3.89064e-17 -2.89272e-16 16 4.64743e-16 -2.59406e-16 16 8.84729e-16 -2.48815e-16
16 1.07405e-15 -5.00855e-16 16 1.03365e-15 -8.9622e-16 16 9.74776e-16 -1.1e-15 16
7.31289e-16 -8.98117e-16 16 3.28541e-16 -5.74389e-16 16 1.23136e-16 -2.32376e-16 16 2.06662e-16
2.02282e-16 16 3.33203e-16 6.86219e-16 16 1.32275e-16 9.62094e-16 16 -2.19682e-16 8.37322e-16
16 -3.35871e-16 5.02974e-16 16 -8.11722e-17 2.47209e-16 16 2.07322e-16 -3.29594e-17 16
2.72262e-16 -4.82898e-16 16 1.98297e-16 -8.04949e-16 16 -1.72874e-16 -7.84024e-16 16 -8.01336e-16
-9.22782e-16 16 -1.07358e-15 -1.14406e-15 16 -1.03783e-15 -9.55217e-16 16 -1.04702e-15 -7.95918e-16
16 -9.90723e-16 -7.94345e-16 16 -9.55971e-16 -4.72458e-16 16 -8.26737e-16 -1.45597e-16 16
-6.04034e-16 -4.41937e-16 16 -5.46325e-16 -9.80023e-16 16 -5.10618e-16 -1.00499e-15 16 -4.27749e-16
-8.18827e-16 16 0 0 16 -1.80496e-16 2.2152e-16 16 -2.45666e-16 2.57455e-16
16 -8.71211e-17 8.79884e-17 16 -2.10184e-16 -2.03645e-16 16 -6.30274e-16 -3.88326e-16 16
-8.19962e-16 -3.86828e-16 16 -5.71001e-16 -3.63657e-16 16 -3.24733e-16 -3.44816e-16 16 -4.35354e-16
-3.77473e-16 16 -5.28107e-16 -4.64275e-16 16 -1.066e-16 -4.66778e-16 16 5.22476e-16 -2.60562e-16
16 1.09618e-15 -2.07917e-16 16 1.42424e-15 -2.18021e-16 16 1.268e-15 -1.34532e-16 16
1.01007e-15 -3.14251e-16 16 8.38711e-16 -4.15932e-16 16 5.26208e-16 -1.36091e-16 16 2.324e-16
4.57746e-17 16 1.35134e-16 9.31489e-18 16 1.55781e-16 1.3257e-16 16 9.28499e-17 3.47652e-16
16 -5.9687e-17 3.81232e-16 16 -8.0671e-17 2.32717e-16 16 2.21795e-16 3.78309e-17 16
3.36328e-16 4.88454e-17 16 5.61106e-17 -1.1757e-17 16 -1.70154e-17 -2.31617e-16 16 -2.84563e-16
-2.55858e-16 16 -7.80809e-16 -3.5045e-16 16 -8.40696e-16 -3.75227e-16 16 -8.32667e-16 -7.21296e-17
16 -9.46414e-16 2.43538e-16 16 -8.13016e-16 4.24453e-16 16 -5.25033e-16 5.95581e-16 16
-2.80461e-16 6.13576e-16 16 -4.19181e-16 3.54929e-16 16 -8.17138e-16 1.85415e-16 16 -1.0022e-15
2.39261e-16 16 -1.00032e-15 3.14085e-16 16 0 0 16 3.25646e-17 -1.59017e-16
16 1.86926e-16 -2.77217e-16 16 3.57639e-16 -4.52146e-16 16 3.08266e-16 -4.8034e-16 16
-6.85928e-17 -1.64656e-16 16 -3.89849e-16 3.6831e-17 16 -3.15168e-16 2.18392e-16 16 -2.62472e-16
3.75245e-16 16 -5.00842e-16 3.92525e-16 16 -6.73162e-16 2.09638e-16 16 -3.54283e-16 3.58518e-17
16 3.55155e-16 1.37198e-16 16 8.73404e-16 1.87896e-16 16 9.05455e-16 3.63313e-16 16
8.48981e-16 6.19094e-16 16 8.61816e-16 4.39641e-16 16 7.01153e-16 3.1111e-16 16 3.13371e-16
5.64942e-16 16 -2.01256e-16 5.80849e-16 16 -4.17385e-16 1.72042e-16 16 -3.41503e-16 -1.59167e-16
16 -1.16344e-16 -3.73398e-16 16 1.69997e-16 -4.59325e-16 16 1.19329e-16 -4.43702e-16 16
1.96779e-16 -4.52829e-16 16 1.569e-16 -1.49364e-16 16 -2.84386e-16 1.43759e-16 16 -5.64316e-16
1.14655e-16 16 -8.17403e-16 7.23128e-17 16 -9.31225e-16 4.28173e-17 16 -5.94501e-16 -2.08152e-16
16 -4.35318e-16 -3.20191e-16 16 -5.6374e-16 3.92971e-17 16 -5.45227e-16 5.1111e-16 16
-3.48742e-16 8.60696e-16 16 -1.22044e-16 9.7563e-16 16 -3.53826e-16 1.05355e-15 16 -8.85267e-16
1.10669e-15 16 -1.22275e-15 9.12923e-16 16 -1.31272e-15 7.66512e-16 16 0 0
16 1.76746e-16 -6.26231e-16 16 3.91672e-16 -8.29082e-16 16 3.79242e-16 -7.6501e-16 16
2.8976e-16 -6.07198e-16 16 -4.04012e-17 -3.34231e-16 16 -2.10858e-16 -2.25524e-16 16 -1.82517e-17
-3.95801e-17 16 -5.85995e-19 1.36615e-16 16 -1.92132e-16 2.22643e-16 16 -2.55444e-16 2.7615e-16
16 -7.56756e-17 1.4271e-16 16 1.92768e-16 -6.08574e-17 16 4.58752e-16 -3.59142e-16 16
4.22859e-16 -6.23061e-16 16 4.96774e-16 -7.21118e-16 16 7.62967e-16 -7.04228e-16 16 5.97809e-16
-4.882e-16 16 2.6598e-16 -2.19693e-16 16 -1.65043e-16 -5.78606e-17 16 -4.20838e-16 -5.84561e-17
16 -4.77343e-16 -2.37945e-16 16 -4.23028e-16 -3.88201e-16 16 5.28811e-17 -3.54512e-16 16
2.68615e-16 -3.66793e-16 16 1.73339e-16 -2.78907e-16 16 -1.13006e-16 2.49803e-17 16 -3.39713e-16
2.14277e-16 16 -4.21945e-16 4.27863e-16 16 -6.92976e-16 5.75877e-16 16 -7.89371e-16 4.61974e-16
16 -5.64853e-16 1.53212e-16 16 -3.22304e-16 -3.94372e-16 16 -2.59062e-16 -5.12654e-16 16
-3.64308e-16 3.00661e-17 16 -4.42481e-16 6.11874e-16 16 -3.90733e-16 9.71668e-16 16 -4.25508e-16
1.08366e-15 16 -7.12612e-16 8.29682e-16 16 -1.02805e-15 4.15948e-16 16 -1.12536e-15 2.40352e-16
16 0 0 16 4.73465e-17 -4.58627e-16 16 1.08908e-16 -5.57357e-16 16
-4.5469e-17 -1.84845e-16 16 -2.50406e-16 8.16892e-17 16 -2.89851e-16 9.15221e-17 16 -1.12571e-16
4.06854e-17 16 1.76196e-16 -7.48304e-17 16 1.70711e-16 -2.07648e-16 16 -9.40865e-17 -2.1871e-16
16 -1.55996e-16 -5.84732e-17 16 -8.67403e-17 1.75087e-16 16 -3.21102e-16 1.38614e-16 16
-4.24851e-16 -3.35257e-16 16 -3.32255e-16 -9.97323e-16 16 -8.86385e-17 -1.40885e-15 16 3.40704e-16
-1.29344e-15 16 3.52944e-16 -1.12299e-15 16 1.63114e-16 -1.1992e-15 16 -2.17018e-17 -1.07692e-15
16 -6.89367e-17 -6.66123e-16 16 -1.88857e-16 -3.69966e-16 16 -5.32087e-16 -7.26423e-17 16
-3.08051e-16 2.26282e-16 16 7.75462e-17 3.91862e-16 16 3.09392e-18 7.04048e-16 16 -2.09424e-16
1.05227e-15 16 -2.28771e-17 1.27717e-15 16 2.82961e-16 1.69321e-15 16 1.56231e-16 2.02819e-15
16 -6.5607e-17 2.095e-15 16 -2.69116e-16 2.21402e-15 16 -1.50991e-16 1.87171e-15 16
4.80096e-17 1.40587e-15 16 -1.64571e-16 1.47336e-15 16 -4.65899e-16 1.53442e-15 16 -6.51545e-16
1.48944e-15 16 -7.23797e-16 1.48144e-15 16 -8.63419e-16 1.33675e-15 16 -9.43318e-16 1.13583e-15
16 -9.14366e-16 1.05705e-15 16 1.63782e-17 5.68201e-18 16 1.28913e-17 -9.39819e-18 16
4.46978e-17 -1.30066e-17 16 -2.45845e-17 1.50099e-16 16 -1.37414e-16 2.86666e-16 16 -2.80131e-17
2.97627e-16 16 1.28993e-16 2.96469e-16 16 2.96552e-16 1.84075e-16 16 2.90042e-16 4.50416e-17
16 4.93342e-17 -4.5285e-18 16 -5.28789e-17 3.71527e-17 16 -3.41215e-17 2.43359e-16 16
-1.8444e-16 3.68249e-16 16 -3.5173e-16 2.33271e-16 16 -3.75181e-16 -4.96987e-17 16 -2.55947e-16
-2.77852e-16 16 3.74251e-17 -2.85834e-16 16 1.72269e-16 -3.5507e-16 16 9.04579e-17 -5.73671e-16
16 -5.23393e-18 -5.98425e-16 16 1.30285e-17 -3.604e-16 16 -4.81456e-17 -8.4585e-17 16
-2.76508e-16 1.65878e-16 16 -2.49424e-16 3.49313e-16 16 -1.32146e-16 5.09139e-16 16 -2.09796e-16
7.13677e-16 16 -2.73506e-16 9.11733e-16 16 -6.8856e-17 1.09895e-15 16 1.99433e-16 1.33166e-15
16 1.84675e-16 1.51523e-15 16 4.72173e-17 1.66649e-15 16 -1.24209e-16 1.83798e-15 16
-8.93946e-17 1.77741e-15 16 -2.82696e-17 1.5469e-15 16 -2.21689e-16 1.38379e-15 16 -4.5272e-16
1.15718e-15 16 -6.53624e-16 9.25219e-16 16 -7.72005e-16 8.92142e-16 16 -8.20758e-16 9.42496e-16
16 -7.36099e-16 9.71239e-16 16 -9.70698e-16 1.47217e-15 
