# vtk DataFile Version 2.0
sampleSurface
ASCII
DATASET POLYDATA
POINTS 369 float
-9 0.02 0 -10 0.02 0 -10 0.02 1 -9 0.02
1 -8 0.02 0 -8 0.02 1 -7 0.02 0
-7 0.02 1 -6 0.02 0 -6 0.02 1 -5
0.02 0 -5 0.02 1 -4 0.02 0 -4 0.02
1 -3 0.02 0 -3 0.02 1 -2 0.02 0
-2 0.02 1 -1 0.02 0 -1 0.02 1 0
0.02 0 0 0.02 1 1 0.02 0 1 0.02
1 2 0.02 0 2 0.02 1 3 0.02 0
3 0.02 1 4 0.02 0 4 0.02 1 5
0.02 0 5 0.02 1 6 0.02 0 6 0.02
1 7 0.02 0 7 0.02 1 8 0.02 0
8 0.02 1 9 0.02 0 9 0.02 1 10
0.02 0 10 0.02 1 11 0.02 0 11 0.02
1 12 0.02 0 12 0.02 1 13 0.02 0
13 0.02 1 14 0.02 0 14 0.02 1 15
0.02 0 15 0.02 1 16 0.02 0 16 0.02
1 17 0.02 0 17 0.02 1 18 0.02 0
18 0.02 1 19 0.02 0 19 0.02 1 20
0.02 0 20 0.02 1 21 0.02 0 21 0.02
1 22 0.02 0 22 0.02 1 23 0.02 0
23 0.02 1 24 0.02 0 24 0.02 1 25
0.02 0 25 0.02 1 26 0.02 0 26 0.02
1 27 0.02 0 27 0.02 1 28 0.02 0
28 0.02 1 29 0.02 0 29 0.02 1 30
0.02 1 30 0.02 0 -10 0.02 2 -9 0.02
2 -8 0.02 2 -7 0.02 2 -6 0.02 2
-5 0.02 2 -4 0.02 2 -3 0.02 2 -2
0.02 2 -1 0.02 2 0 0.02 2 1 0.02
2 2 0.02 2 3 0.02 2 4 0.02 2
5 0.02 2 6 0.02 2 7 0.02 2 8
0.02 2 9 0.02 2 10 0.02 2 11 0.02
2 12 0.02 2 13 0.02 2 14 0.02 2
15 0.02 2 16 0.02 2 17 0.02 2 18
0.02 2 19 0.02 2 20 0.02 2 21 0.02
2 22 0.02 2 23 0.02 2 24 0.02 2
25 0.02 2 26 0.02 2 27 0.02 2 28
0.02 2 29 0.02 2 30 0.02 2 -10 0.02
3 -9 0.02 3 -8 0.02 3 -7 0.02 3
-6 0.02 3 -5 0.02 3 -4 0.02 3 -3
0.02 3 -2 0.02 3 -1 0.02 3 0 0.02
3 1 0.02 3 2 0.02 3 3 0.02 3
4 0.02 3 5 0.02 3 6 0.02 3 7
0.02 3 8 0.02 3 9 0.02 3 10 0.02
3 11 0.02 3 12 0.02 3 13 0.02 3
14 0.02 3 15 0.02 3 16 0.02 3 17
0.02 3 18 0.02 3 19 0.02 3 20 0.02
3 21 0.02 3 22 0.02 3 23 0.02 3
24 0.02 3 25 0.02 3 26 0.02 3 27
0.02 3 28 0.02 3 29 0.02 3 30 0.02
3 -10 0.02 4 -9 0.02 4 -8 0.02 4
-7 0.02 4 -6 0.02 4 -5 0.02 4 -4
0.02 4 -3 0.02 4 -2 0.02 4 -1 0.02
4 0 0.02 4 1 0.02 4 2 0.02 4
3 0.02 4 4 0.02 4 5 0.02 4 6
0.02 4 7 0.02 4 8 0.02 4 9 0.02
4 10 0.02 4 11 0.02 4 12 0.02 4
13 0.02 4 14 0.02 4 15 0.02 4 16
0.02 4 17 0.02 4 18 0.02 4 19 0.02
4 20 0.02 4 21 0.02 4 22 0.02 4
23 0.02 4 24 0.02 4 25 0.02 4 26
0.02 4 27 0.02 4 28 0.02 4 29 0.02
4 30 0.02 4 -10 0.02 5 -9 0.02 5
-8 0.02 5 -7 0.02 5 -6 0.02 5 -5
0.02 5 -4 0.02 5 -3 0.02 5 -2 0.02
5 -1 0.02 5 0 0.02 5 1 0.02 5
2 0.02 5 3 0.02 5 4 0.02 5 5
0.02 5 6 0.02 5 7 0.02 5 8 0.02
5 9 0.02 5 10 0.02 5 11 0.02 5
12 0.02 5 13 0.02 5 14 0.02 5 15
0.02 5 16 0.02 5 17 0.02 5 18 0.02
5 19 0.02 5 20 0.02 5 21 0.02 5
22 0.02 5 23 0.02 5 24 0.02 5 25
0.02 5 26 0.02 5 27 0.02 5 28 0.02
5 29 0.02 5 30 0.02 5 -10 0.02 6
-9 0.02 6 -8 0.02 6 -7 0.02 6 -6
0.02 6 -5 0.02 6 -4 0.02 6 -3 0.02
6 -2 0.02 6 -1 0.02 6 0 0.02 6
1 0.02 6 2 0.02 6 3 0.02 6 4
0.02 6 5 0.02 6 6 0.02 6 7 0.02
6 8 0.02 6 9 0.02 6 10 0.02 6
11 0.02 6 12 0.02 6 13 0.02 6 14
0.02 6 15 0.02 6 16 0.02 6 17 0.02
6 18 0.02 6 19 0.02 6 20 0.02 6
21 0.02 6 22 0.02 6 23 0.02 6 24
0.02 6 25 0.02 6 26 0.02 6 27 0.02
6 28 0.02 6 29 0.02 6 30 0.02 6
-10 0.02 7 -9 0.02 7 -8 0.02 7 -7
0.02 7 -6 0.02 7 -5 0.02 7 -4 0.02
7 -3 0.02 7 -2 0.02 7 -1 0.02 7
0 0.02 7 1 0.02 7 2 0.02 7 3
0.02 7 4 0.02 7 5 0.02 7 6 0.02
7 7 0.02 7 8 0.02 7 9 0.02 7
10 0.02 7 11 0.02 7 12 0.02 7 13
0.02 7 14 0.02 7 15 0.02 7 16 0.02
7 17 0.02 7 18 0.02 7 19 0.02 7
20 0.02 7 21 0.02 7 22 0.02 7 23
0.02 7 24 0.02 7 25 0.02 7 26 0.02
7 27 0.02 7 28 0.02 7 29 0.02 7
30 0.02 7 -10 0.02 8 -9 0.02 8 -8
0.02 8 -7 0.02 8 -6 0.02 8 -5 0.02
8 -4 0.02 8 -3 0.02 8 -2 0.02 8
-1 0.02 8 0 0.02 8 1 0.02 8 2
0.02 8 3 0.02 8 4 0.02 8 5 0.02
8 6 0.02 8 7 0.02 8 8 0.02 8
9 0.02 8 10 0.02 8 11 0.02 8 12
0.02 8 13 0.02 8 14 0.02 8 15 0.02
8 16 0.02 8 17 0.02 8 18 0.02 8
19 0.02 8 20 0.02 8 21 0.02 8 22
0.02 8 23 0.02 8 24 0.02 8 25 0.02
8 26 0.02 8 27 0.02 8 28 0.02 8
29 0.02 8 30 0.02 8 
POLYGONS 320 1600
4 0 1 2 3 4 4 0 3 5 4
6 4 5 7 4 8 6 7 9 4
10 8 9 11 4 12 10 11 13 4
14 12 13 15 4 16 14 15 17 4
18 16 17 19 4 20 18 19 21 4
22 20 21 23 4 24 22 23 25 4
26 24 25 27 4 28 26 27 29 4
30 28 29 31 4 32 30 31 33 4
34 32 33 35 4 36 34 35 37 4
38 36 37 39 4 40 38 39 41 4
42 40 41 43 4 44 42 43 45 4
46 44 45 47 4 48 46 47 49 4
50 48 49 51 4 52 50 51 53 4
54 52 53 55 4 56 54 55 57 4
58 56 57 59 4 60 58 59 61 4
62 60 61 63 4 64 62 63 65 4
66 64 65 67 4 68 66 67 69 4
70 68 69 71 4 72 70 71 73 4
74 72 73 75 4 76 74 75 77 4
78 76 77 79 4 80 81 78 79 4
3 2 82 83 4 5 3 83 84 4
7 5 84 85 4 9 7 85 86 4
11 9 86 87 4 13 11 87 88 4
15 13 88 89 4 17 15 89 90 4
19 17 90 91 4 21 19 91 92 4
23 21 92 93 4 25 23 93 94 4
27 25 94 95 4 29 27 95 96 4
31 29 96 97 4 33 31 97 98 4
35 33 98 99 4 37 35 99 100 4
39 37 100 101 4 41 39 101 102 4
43 41 102 103 4 45 43 103 104 4
47 45 104 105 4 49 47 105 106 4
51 49 106 107 4 53 51 107 108 4
55 53 108 109 4 57 55 109 110 4
59 57 110 111 4 61 59 111 112 4
63 61 112 113 4 65 63 113 114 4
67 65 114 115 4 69 67 115 116 4
71 69 116 117 4 73 71 117 118 4
75 73 118 119 4 77 75 119 120 4
79 77 120 121 4 122 80 79 121 4
83 82 123 124 4 84 83 124 125 4
85 84 125 126 4 86 85 126 127 4
87 86 127 128 4 88 87 128 129 4
89 88 129 130 4 90 89 130 131 4
91 90 131 132 4 92 91 132 133 4
93 92 133 134 4 94 93 134 135 4
95 94 135 136 4 96 95 136 137 4
97 96 137 138 4 98 97 138 139 4
99 98 139 140 4 100 99 140 141 4
101 100 141 142 4 102 101 142 143 4
103 102 143 144 4 104 103 144 145 4
105 104 145 146 4 106 105 146 147 4
107 106 147 148 4 108 107 148 149 4
109 108 149 150 4 110 109 150 151 4
111 110 151 152 4 112 111 152 153 4
113 112 153 154 4 114 113 154 155 4
115 114 155 156 4 116 115 156 157 4
117 116 157 158 4 118 117 158 159 4
119 118 159 160 4 120 119 160 161 4
121 120 161 162 4 163 122 121 162 4
124 123 164 165 4 125 124 165 166 4
126 125 166 167 4 127 126 167 168 4
128 127 168 169 4 129 128 169 170 4
130 129 170 171 4 131 130 171 172 4
132 131 172 173 4 133 132 173 174 4
134 133 174 175 4 135 134 175 176 4
136 135 176 177 4 137 136 177 178 4
138 137 178 179 4 139 138 179 180 4
140 139 180 181 4 141 140 181 182 4
142 141 182 183 4 143 142 183 184 4
144 143 184 185 4 145 144 185 186 4
146 145 186 187 4 147 146 187 188 4
148 147 188 189 4 149 148 189 190 4
150 149 190 191 4 151 150 191 192 4
152 151 192 193 4 153 152 193 194 4
154 153 194 195 4 155 154 195 196 4
156 155 196 197 4 157 156 197 198 4
158 157 198 199 4 159 158 199 200 4
160 159 200 201 4 161 160 201 202 4
162 161 202 203 4 204 163 162 203 4
165 164 205 206 4 166 165 206 207 4
167 166 207 208 4 168 167 208 209 4
169 168 209 210 4 170 169 210 211 4
171 170 211 212 4 172 171 212 213 4
173 172 213 214 4 174 173 214 215 4
175 174 215 216 4 176 175 216 217 4
177 176 217 218 4 178 177 218 219 4
179 178 219 220 4 180 179 220 221 4
181 180 221 222 4 182 181 222 223 4
183 182 223 224 4 184 183 224 225 4
185 184 225 226 4 186 185 226 227 4
187 186 227 228 4 188 187 228 229 4
189 188 229 230 4 190 189 230 231 4
191 190 231 232 4 192 191 232 233 4
193 192 233 234 4 194 193 234 235 4
195 194 235 236 4 196 195 236 237 4
197 196 237 238 4 198 197 238 239 4
199 198 239 240 4 200 199 240 241 4
201 200 241 242 4 202 201 242 243 4
203 202 243 244 4 245 204 203 244 4
206 205 246 247 4 207 206 247 248 4
208 207 248 249 4 209 208 249 250 4
210 209 250 251 4 211 210 251 252 4
212 211 252 253 4 213 212 253 254 4
214 213 254 255 4 215 214 255 256 4
216 215 256 257 4 217 216 257 258 4
218 217 258 259 4 219 218 259 260 4
220 219 260 261 4 221 220 261 262 4
222 221 262 263 4 223 222 263 264 4
224 223 264 265 4 225 224 265 266 4
226 225 266 267 4 227 226 267 268 4
228 227 268 269 4 229 228 269 270 4
230 229 270 271 4 231 230 271 272 4
232 231 272 273 4 233 232 273 274 4
234 233 274 275 4 235 234 275 276 4
236 235 276 277 4 237 236 277 278 4
238 237 278 279 4 239 238 279 280 4
240 239 280 281 4 241 240 281 282 4
242 241 282 283 4 243 242 283 284 4
244 243 284 285 4 286 245 244 285 4
247 246 287 288 4 248 247 288 289 4
249 248 289 290 4 250 249 290 291 4
251 250 291 292 4 252 251 292 293 4
253 252 293 294 4 254 253 294 295 4
255 254 295 296 4 256 255 296 297 4
257 256 297 298 4 258 257 298 299 4
259 258 299 300 4 260 259 300 301 4
261 260 301 302 4 262 261 302 303 4
263 262 303 304 4 264 263 304 305 4
265 264 305 306 4 266 265 306 307 4
267 266 307 308 4 268 267 308 309 4
269 268 309 310 4 270 269 310 311 4
271 270 311 312 4 272 271 312 313 4
273 272 313 314 4 274 273 314 315 4
275 274 315 316 4 276 275 316 317 4
277 276 317 318 4 278 277 318 319 4
279 278 319 320 4 280 279 320 321 4
281 280 321 322 4 282 281 322 323 4
283 282 323 324 4 284 283 324 325 4
285 284 325 326 4 327 286 285 326 4
288 287 328 329 4 289 288 329 330 4
290 289 330 331 4 291 290 331 332 4
292 291 332 333 4 293 292 333 334 4
294 293 334 335 4 295 294 335 336 4
296 295 336 337 4 297 296 337 338 4
298 297 338 339 4 299 298 339 340 4
300 299 340 341 4 301 300 341 342 4
302 301 342 343 4 303 302 343 344 4
304 303 344 345 4 305 304 345 346 4
306 305 346 347 4 307 306 347 348 4
308 307 348 349 4 309 308 349 350 4
310 309 350 351 4 311 310 351 352 4
312 311 352 353 4 313 312 353 354 4
314 313 354 355 4 315 314 355 356 4
316 315 356 357 4 317 316 357 358 4
318 317 358 359 4 319 318 359 360 4
320 319 360 361 4 321 320 361 362 4
322 321 362 363 4 323 322 363 364 4
324 323 364 365 4 325 324 365 366 4
326 325 366 367 4 327 326 367 368 
POINT_DATA 369
FIELD attributes 2
p 1 369 float
-1.96255e-15 -6.02171e-15 -9.07328e-15 -2.50685e-15 -7.22032e-15 -5.76467e-15 -1.25155e-14 -1.24642e-14 -3.30877e-15 -4.8528e-15 6.49916e-15
2.96208e-15 6.16166e-15 3.54969e-15 -6.74425e-15 -2.80668e-15 -1.92145e-14 -1.03677e-14 -1.61104e-14 -8.80009e-15 4.51598e-16
5.12002e-15 1.57096e-14 1.63107e-14 1.30609e-14 1.14452e-14 -2.26897e-15 -1.98614e-15 5.6225e-15 6.01689e-15 1.83889e-14
2.02736e-14 1.0586e-14 1.44967e-14 -4.22558e-15 -7.88717e-17 -9.32063e-15 -5.52506e-15 -7.47607e-15 -7.29274e-15 -1.34731e-14
-1.74104e-14 -1.78383e-14 -2.02693e-14 -3.08508e-14 -2.78599e-14 -3.57151e-14 -2.95831e-14 -1.29523e-14 -9.4077e-15 2.52839e-14
2.28576e-14 5.3153e-14 4.59079e-14 4.14934e-14 3.65282e-14 2.85648e-14 2.3358e-14 3.76846e-14 2.93728e-14 3.62366e-14
2.96065e-14 2.61588e-14 1.97034e-14 1.41385e-14 1.21665e-14 -2.65787e-16 2.10214e-15 1.48892e-15 -4.62989e-17 2.24712e-16
3.72766e-16 -5.61635e-15 -6.39899e-15 -2.33084e-15 -6.80146e-15 -4.22633e-15 -5.27387e-15 1.32112e-15 -1.37733e-16 -0
5.04039e-15 -1.22691e-14 -5.61542e-15 -7.05025e-15 -1.29733e-14 -3.58683e-15 3.8268e-15 4.6021e-16 1.858e-16 4.15666e-16
1.61676e-15 1.23533e-14 1.57489e-14 6.62902e-15 -1.46435e-15 5.27581e-15 1.80743e-14 1.39925e-14 1.99241e-15 -2.94726e-15
-9.56542e-15 -2.08893e-14 -2.23248e-14 -2.33934e-14 -1.90668e-14 -2.22706e-15 2.01923e-14 3.67327e-14 2.95402e-14 2.02061e-14
2.22731e-14 1.97301e-14 1.04889e-14 6.75052e-15 4.85159e-15 -2.68853e-15 -8.39111e-15 -1.22799e-14 -1.01256e-14 -3.73912e-15
-1.31629e-16 0 -2.23927e-14 -1.70817e-14 -8.39596e-15 -5.11519e-15 2.58085e-15 1.23787e-14 8.46333e-15 4.8625e-15
3.4287e-15 3.01307e-15 1.03985e-14 1.10457e-14 9.68673e-16 -2.95552e-15 3.50279e-15 1.3412e-14 1.09874e-14 3.72834e-15
-2.51407e-15 -1.48803e-14 -2.27837e-14 -2.05527e-14 -1.72573e-14 -8.8937e-15 3.38606e-15 1.73558e-14 3.07152e-14 2.53651e-14
2.0325e-14 2.05435e-14 1.45759e-14 5.62708e-15 6.833e-16 2.49207e-15 -4.08009e-15 -1.54823e-14 -1.49649e-14 -4.19846e-15
5.56049e-15 4.52595e-15 -0 -3.33415e-14 -2.68777e-14 -4.64788e-15 9.60985e-15 1.36137e-14 2.34797e-14 2.01074e-14
1.03563e-14 4.75428e-15 -9.74357e-16 -1.82799e-15 -1.32708e-15 -5.12263e-15 -5.29052e-15 1.25533e-15 9.87298e-15 9.24641e-15
4.46227e-15 -3.60532e-15 -1.85412e-14 -2.60145e-14 -1.9481e-14 -1.21128e-14 -2.09693e-15 3.68674e-15 9.47177e-15 2.36136e-14
2.16314e-14 2.12676e-14 2.21691e-14 1.4428e-14 2.21297e-15 -4.02605e-15 2.0544e-15 -8.54975e-16 -1.05206e-14 -1.23802e-14
-1.806e-15 7.31665e-15 4.06976e-15 -0 -3.16021e-14 -2.38693e-14 1.36771e-15 1.74898e-14 1.8454e-14 2.46839e-14
2.04414e-14 1.11533e-14 6.51992e-15 -3.82736e-15 -9.28183e-15 -8.13036e-15 -7.23039e-15 -3.3422e-15 4.45364e-15 1.09625e-14
8.65809e-15 -1.63093e-16 -9.67829e-15 -1.66626e-14 -1.94665e-14 -1.22313e-14 -3.66485e-15 5.77424e-16 -3.26032e-15 -1.35944e-15
1.38759e-14 1.54686e-14 1.96303e-14 1.99356e-14 9.28731e-15 -1.16337e-15 -7.15466e-15 3.08798e-17 1.85384e-15 -4.2685e-15
-7.37893e-15 3.19035e-17 6.44967e-15 4.10094e-15 -0 -1.45396e-14 -8.91393e-15 6.30017e-15 1.64094e-14 1.54213e-14
1.86178e-14 1.50942e-14 5.85746e-15 2.66295e-15 -4.98885e-15 -8.5171e-15 -3.02205e-15 -3.16516e-15 -3.99328e-15 5.69525e-15
1.02063e-14 4.20743e-15 -4.80617e-15 -1.07898e-14 -9.29195e-15 -7.23185e-15 -3.31991e-15 -9.92938e-16 -5.9872e-15 -1.26162e-14
-8.66312e-15 7.06852e-15 1.36451e-14 1.35357e-14 1.2093e-14 7.25199e-15 6.64265e-16 -8.47759e-15 -1.11062e-14 -7.54694e-15
-4.42903e-15 -2.23554e-15 2.22901e-15 7.23579e-15 7.22748e-15 -0 2.31902e-15 3.92955e-15 6.78778e-15 9.94707e-15
1.13525e-14 1.47863e-14 1.16587e-14 1.74721e-15 -2.10903e-15 -2.43846e-15 -1.26298e-15 2.40654e-15 3.16817e-15 -3.18309e-15
-1.9878e-15 4.9774e-15 6.60562e-16 -5.01399e-15 -3.70102e-15 -7.64742e-17 8.75379e-17 -1.0327e-15 -5.57761e-15 -1.05048e-14
-1.00462e-14 -6.33765e-15 2.94118e-15 8.92209e-15 7.44958e-15 7.11936e-15 1.04197e-14 5.40539e-15 -5.71577e-15 -1.3792e-14
-1.17585e-14 -3.81019e-15 4.38906e-16 2.86851e-15 4.965e-15 4.83049e-15 0 3.6181e-15 2.86006e-15 3.00298e-15
3.06918e-15 3.74081e-15 5.63711e-15 5.37054e-15 1.92889e-15 -7.53717e-16 3.48797e-16 2.73966e-15 2.37803e-15 3.47997e-15
4.15696e-16 -3.05212e-15 2.27745e-15 2.06349e-15 -1.06333e-15 5.84237e-16 2.2245e-15 1.29915e-15 -4.10777e-17 -2.43513e-15
-3.3957e-15 -1.69548e-15 -1.12653e-15 -5.51123e-16 7.20533e-16 1.471e-15 1.59364e-15 4.36104e-15 3.12696e-15 -1.33679e-15
-4.83384e-15 -3.6851e-15 4.01169e-17 1.39989e-15 2.76849e-15 3.00115e-15 1.49349e-15 2.11987e-16 
U 3 369 float
16 0 0 16 0 0 16 0 0 16 1.40183e-16
1.26818e-16 16 0 0 16 -4.20676e-17 -7.81178e-18 16 0 0
16 -1.41693e-16 -1.4192e-16 16 0 0 16 2.33787e-18 -1.72387e-16 16
0 0 16 2.13248e-16 -1.76897e-16 16 0 0 16 1.72664e-16
-7.12974e-17 16 0 0 16 -1.78985e-17 -2.34646e-16 16 0 0
16 -1.09276e-16 -8.09143e-16 16 0 0 16 2.72324e-17 -1.18618e-15 16
0 0 16 4.23892e-16 -1.16001e-15 16 0 0 16 5.12785e-16
-8.37966e-16 16 0 0 16 1.13957e-16 -5.47925e-16 16 0 0
16 -4.4738e-16 -6.51435e-16 16 0 0 16 -7.4984e-16 -7.91571e-16 16
0 0 16 -4.38106e-16 -7.69313e-16 16 0 0 16 2.60315e-16
-6.68338e-16 16 0 0 16 2.5406e-16 -8.15095e-16 16 0 0
16 -3.32892e-16 -1.18485e-15 16 0 0 16 -6.08055e-16 -1.30789e-15 16
0 0 16 -5.22881e-16 -1.13073e-15 16 0 0 16 -1.86374e-16
-7.21156e-16 16 0 0 16 -3.78713e-16 -5.34281e-16 16 0 0
16 -8.94152e-16 -7.82288e-16 16 0 0 16 -1.07278e-15 -1.0732e-15 16
0 0 16 -8.5539e-16 -9.85725e-16 16 0 0 16 -6.31375e-16
-5.45467e-16 16 0 0 16 -8.77196e-16 -2.7221e-16 16 0 0
16 -1.6407e-15 -2.75413e-16 16 0 0 16 -1.95541e-15 -3.49236e-16 16
0 0 16 -1.93832e-15 -4.54266e-16 16 0 0 16 -1.77864e-15
-3.38493e-16 16 0 0 16 -1.41347e-15 -2.94503e-16 16 0 0
16 -1.71977e-15 -7.00122e-16 16 0 0 16 -1.76915e-15 -7.73738e-16 16
0 0 16 -9.47603e-16 -4.55203e-16 16 0 0 16 -1.79903e-16
-1.91057e-16 16 0 0 16 2.32614e-16 4.72642e-18 16 0 0
16 5.42191e-16 -2.15989e-16 16 0 0 16 7.49399e-16 -5.1199e-16 16
8.00365e-16 -5.49404e-16 16 7.39839e-16 -4.69061e-16 16 0 0 16 2.08279e-16
4.16551e-16 16 -9.71123e-17 4.91605e-16 16 -3.71397e-16 3.92649e-16 16 -3.30695e-16 3.07912e-16
16 -2.85119e-17 -5.14323e-18 16 1.0546e-16 -3.26222e-16 16 1.24671e-16 -6.71645e-16 16
3.25941e-16 -1.17199e-15 16 5.64959e-16 -1.48469e-15 16 8.84967e-16 -1.32739e-15 16 9.56375e-16
-7.80062e-16 16 6.88623e-16 -1.45474e-16 16 3.54163e-16 2.62444e-17 16 6.50205e-17 -2.48743e-17
16 2.95003e-16 3.08767e-18 16 8.80371e-16 5.04175e-17 16 7.28299e-16 -1.53039e-16 16
4.49637e-17 -4.61408e-16 16 -3.72275e-16 -4.39692e-16 16 -3.1849e-16 -2.80992e-16 16 -4.45258e-17
3.0383e-17 16 -1.6849e-16 1.82301e-16 16 -6.90298e-16 -9.50887e-17 16 -1.11748e-15 -4.47935e-16
16 -1.10363e-15 -4.65384e-16 16 -8.98465e-16 -2.8298e-16 16 -1.02152e-15 -2.10906e-16 16
-1.50648e-15 -5.69013e-16 16 -1.4843e-15 -1.05936e-15 16 -1.32297e-15 -1.16739e-15 16 -1.17513e-15
-8.18263e-16 16 -9.51733e-16 -3.72828e-16 16 -1.30552e-15 -4.43052e-16 16 -1.70722e-15 -4.48246e-16
16 -1.38076e-15 1.75509e-16 16 -6.6339e-16 6.57357e-16 16 -2.75171e-16 6.24965e-16 16
-1.25412e-16 3.01576e-16 16 2.67545e-18 2.93209e-17 16 6.96658e-17 -1.34457e-17 16 0
0 16 2.16034e-17 7.61201e-16 16 2.93492e-17 1.01622e-15 16 3.95782e-17 6.76368e-16
16 9.02693e-17 3.58825e-16 16 3.61205e-16 -1.03594e-16 16 4.05132e-16 -6.48125e-16 16
3.00794e-16 -1.00334e-15 16 4.54209e-16 -1.3254e-15 16 4.54732e-16 -1.51812e-15 16 3.43292e-16
-1.22025e-15 16 3.0756e-16 -5.94196e-16 16 3.01509e-16 1.32424e-17 16 2.9961e-16 3.51238e-16
16 1.43458e-16 5.17758e-16 16 2.19702e-16 6.45957e-16 16 6.41531e-16 5.99848e-16 16
5.67073e-16 3.62037e-16 16 5.03341e-17 2.79433e-16 16 -1.93311e-16 4.73976e-16 16 -1.35307e-17
6.44148e-16 16 3.2351e-16 7.63091e-16 16 3.03664e-16 7.20498e-16 16 -1.4484e-16 3.39845e-16
16 -5.08542e-16 7.7055e-17 16 -4.34369e-16 1.05252e-16 16 -3.95018e-16 7.51229e-17 16
-5.82258e-16 5.22507e-17 16 -6.55083e-16 -2.28227e-16 16 -6.91688e-16 -6.62876e-16 16 -8.28286e-16
-7.59427e-16 16 -7.83028e-16 -4.29489e-16 16 -7.70985e-16 5.95929e-17 16 -1.12388e-15 2.18158e-16
16 -1.55724e-15 2.05364e-16 16 -1.45362e-15 5.58609e-16 16 -8.56287e-16 9.30557e-16 16
-6.11839e-16 6.42119e-16 16 -6.94788e-16 3.93692e-17 16 -6.30001e-16 -2.38973e-16 16 -5.16632e-16
-2.4309e-16 16 0 0 16 6.8414e-17 3.59919e-16 16 2.89153e-16 5.68296e-16
16 2.76363e-16 3.03557e-16 16 3.39434e-17 -9.28215e-18 16 -3.80831e-18 -2.79836e-16 16
-1.48484e-16 -5.87211e-16 16 -2.60432e-16 -8.36793e-16 16 -7.24886e-17 -1.132e-15 16 -3.22649e-17
-1.29704e-15 16 -2.08735e-16 -1.09732e-15 16 -3.95954e-16 -6.75016e-16 16 -4.35306e-16 -2.95809e-16
16 -2.92163e-16 -5.03748e-17 16 -2.25265e-16 8.43912e-17 16 -1.74945e-16 2.29052e-16 16
-1.01724e-17 2.36856e-16 16 8.4732e-17 2.79471e-16 16 1.11517e-16 6.06235e-16 16 2.44872e-16
7.53584e-16 16 4.03205e-16 6.32285e-16 16 6.09956e-16 4.8591e-16 16 6.49846e-16 3.47949e-16
16 3.25832e-16 1.52341e-16 16 -2.962e-17 3.68596e-17 16 -5.17429e-17 3.92583e-17 16
-2.47163e-17 5.66017e-17 16 -1.76359e-16 1.44938e-16 16 -2.16471e-16 9.83271e-17 16 -3.62589e-16
-8.02353e-18 16 -6.20396e-16 2.16469e-17 16 -7.40498e-16 1.44403e-16 16 -8.79998e-16 2.69697e-16
16 -9.34442e-16 2.58648e-16 16 -9.29993e-16 1.478e-16 16 -8.39515e-16 9.54348e-17 16
-4.69105e-16 2.06541e-16 16 -2.0775e-16 3.69946e-17 16 -2.91025e-16 -3.86182e-16 16 -4.6634e-16
-5.79972e-16 16 -5.0313e-16 -5.86304e-16 16 0 0 16 2.13167e-16 -5.99654e-16
16 4.41862e-16 -7.45568e-16 16 1.89841e-16 -6.59272e-16 16 -2.03234e-16 -5.07611e-16 16
-2.202e-16 -2.68072e-16 16 -1.64258e-16 -1.8925e-16 16 -8.75226e-17 -1.72258e-16 16 1.39038e-16
-1.84571e-16 16 2.99978e-16 -3.14197e-16 16 3.12663e-16 -4.30123e-16 16 -1.61444e-17 -4.7852e-16
16 -2.67782e-16 -3.32516e-16 16 -1.12848e-16 -6.66944e-17 16 1.10109e-17 -5.28343e-17 16
1.20859e-16 3.36437e-17 16 1.98281e-16 3.32301e-16 16 2.89518e-16 7.31836e-16 16 4.51781e-16
1.10263e-15 16 3.94734e-16 1.01102e-15 16 2.71707e-16 5.57282e-16 16 2.4912e-16 1.95327e-16
16 8.85185e-17 4.0208e-17 16 -1.5101e-16 1.62833e-16 16 -5.23856e-16 2.80883e-16 16
-7.23967e-16 2.72121e-16 16 -6.39438e-16 4.2329e-16 16 -7.35244e-16 4.77088e-16 16 -8.69913e-16
5.38132e-16 16 -9.44972e-16 6.99484e-16 16 -1.11301e-15 7.68486e-16 16 -1.15223e-15 6.39815e-16
16 -1.07237e-15 4.18407e-16 16 -8.79772e-16 4.59059e-16 16 -8.45857e-16 6.35919e-16 16
-1.04826e-15 6.85173e-16 16 -8.73741e-16 5.49146e-16 16 -4.78842e-16 3.73619e-16 16 -1.90305e-16
3.40921e-16 16 -1.17205e-16 3.80489e-16 16 -1.48286e-16 4.01578e-16 16 0 0
16 3.38777e-16 -9.70228e-16 16 6.50988e-16 -1.31077e-15 16 2.60639e-16 -1.29787e-15 16
-2.50521e-16 -1.22252e-15 16 -3.47621e-16 -9.46161e-16 16 -2.23683e-16 -6.23669e-16 16 -8.11363e-18
-2.32301e-16 16 2.17186e-16 2.1855e-16 16 3.1297e-16 3.74255e-16 16 3.13889e-16 3.5991e-16
16 1.31065e-16 3.32502e-16 16 -1.45875e-16 3.3714e-16 16 -1.32081e-16 6.24658e-16 16
1.07493e-16 9.72818e-16 16 4.90591e-16 1.18859e-15 16 5.28296e-16 1.45305e-15 16 2.3772e-16
1.57013e-15 16 2.6949e-16 1.31356e-15 16 2.36073e-16 9.29509e-16 16 2.24007e-16 6.37516e-16
16 3.26852e-16 4.83044e-16 16 8.71396e-17 4.66757e-16 16 -5.32813e-17 6.08361e-16 16
-2.16033e-16 6.27199e-16 16 -5.27864e-16 5.79149e-16 16 -5.85699e-16 7.58616e-16 16 -5.10819e-16
7.55095e-16 16 -5.50429e-16 8.88261e-16 16 -7.04484e-16 1.13328e-15 16 -9.5633e-16 8.75959e-16
16 -1.0882e-15 3.98676e-16 16 -7.30208e-16 -3.69425e-17 16 -2.70557e-16 -4.61177e-17 16
-3.48062e-16 2.7014e-16 16 -6.09565e-16 3.48144e-16 16 -6.56135e-16 8.34853e-17 16 -6.55124e-16
-9.05748e-17 16 -5.66232e-16 3.7173e-17 16 -4.11968e-16 1.87317e-16 16 -3.40839e-16 2.3721e-16
16 0 0 16 2.87124e-16 -3.81848e-16 16 5.50037e-16 -4.15694e-16 16
1.97251e-16 -4.18827e-16 16 -1.75904e-16 -5.48798e-16 16 -4.46255e-17 -4.84494e-16 16 1.54351e-16
-2.88183e-16 16 2.07989e-16 -1.76013e-16 16 1.37476e-16 1.10442e-16 16 -5.88829e-17 4.79557e-16
16 -2.25582e-16 7.66869e-16 16 -1.96971e-16 9.98334e-16 16 -3.09384e-16 9.8159e-16 16
-3.6507e-16 9.48429e-16 16 -3.37838e-17 1.26684e-15 16 4.82459e-16 1.58309e-15 16 5.80615e-16
1.69698e-15 16 2.49742e-16 1.57146e-15 16 3.09539e-16 1.14468e-15 16 3.97597e-16 7.87591e-16
16 3.46714e-16 6.71965e-16 16 4.07833e-16 6.23762e-16 16 2.71682e-16 5.61118e-16 16
2.4773e-16 4.36066e-16 16 2.80671e-16 2.50978e-16 16 8.09424e-17 1.99532e-16 16 -1.61252e-17
4.29197e-16 16 1.10165e-16 7.05053e-16 16 1.28065e-16 1.0351e-15 16 2.57204e-17 1.44054e-15
16 -2.49912e-16 1.49379e-15 16 -6.17597e-16 1.1974e-15 16 -2.23889e-16 7.66817e-16 16
3.66617e-16 4.41263e-16 16 2.77015e-16 2.33604e-16 16 -3.63616e-17 -4.32974e-17 16 -3.52514e-16
-2.02618e-16 16 -5.39935e-16 -5.36078e-17 16 -5.14838e-16 2.43889e-16 16 -4.52805e-16 4.03086e-16
16 -4.36855e-16 4.25419e-16 16 -7.98829e-18 -5.96235e-18 16 3.63494e-17 4.70067e-17 16
1.69121e-16 1.51456e-16 16 1.22397e-16 2.13294e-16 16 1.0199e-16 1.9982e-16 16 3.53686e-16
2.48347e-16 16 5.20721e-16 2.70383e-16 16 4.53937e-16 1.46759e-16 16 2.6185e-16 1.31038e-16
16 3.20702e-17 2.96171e-16 16 -1.06347e-16 4.70257e-16 16 -5.44415e-17 5.97642e-16 16
-4.34486e-17 5.94628e-16 16 -6.57064e-17 4.6671e-16 16 6.90524e-17 4.7543e-16 16 2.85625e-16
6.26984e-16 16 3.58888e-16 7.20692e-16 16 2.37426e-16 7.07136e-16 16 2.35016e-16 6.06574e-16
16 2.01406e-16 5.06757e-16 16 6.3915e-17 4.36978e-16 16 2.86031e-17 3.67872e-16 16
1.01023e-18 2.53797e-16 16 5.79198e-17 1.04185e-16 16 1.23662e-16 2.10334e-17 16 9.11278e-17
3.20534e-17 16 7.46011e-17 1.8999e-16 16 1.43559e-16 4.40378e-16 16 1.92932e-16 6.82183e-16
16 1.76337e-16 9.74174e-16 16 9.22409e-18 1.25651e-15 16 -2.36927e-16 1.29209e-15 16
-5.87409e-17 1.1188e-15 16 1.86565e-16 8.90757e-16 16 7.20744e-17 6.23141e-16 16 -1.68922e-16
3.96536e-16 16 -3.83522e-16 3.80335e-16 16 -3.89399e-16 5.67723e-16 16 -2.57022e-16 7.79297e-16
16 -2.28097e-16 8.66863e-16 16 -4.00417e-16 1.29916e-15 
