# vtk DataFile Version 2.0
sampleSurface
ASCII
DATASET POLYDATA
POINTS 153 float
4 -5 0 4 -5 0 4 -5 0 4 -4
1 4 -5 1 4 -4 0 4 -3 1
4 -3 0 4 -2 0 4 -2 0 4
-2 0 4 -2 1 4 -2 0 4 -1
1 4 -1 0 4 0 0 4 0 0
4 0 0 4 0 1 4 0 0 4
1 1 4 1 0 4 2 1 4 2
0 4 3 1 4 3 0 4 4 1
4 4 0 4 5 0 4 5 0 4
5 1 4 5 1 4 -4 2 4 -5
2 4 -3 2 4 -2 2 4 -2 2
4 -2 2 4 -2 2 4 -1 2 4
0 2 4 1 2 4 2 2 4 3
2 4 4 2 4 5 2 4 5 2
4 -5 3 4 -5 3 4 -5 3 4
-4 3 4 -3 3 4 -2 3 4 -2
3 4 -2 3 4 -1 3 4 0 3
4 0 3 4 0 3 4 1 2.6 4
1 3 4 1.4 3 4 2 3 4 3
3 4 4 3 4 5 3 4 5 3
4 -5 4 4 -5 4 4 -4 4 4
-3 4 4 -2 4 4 -2 4 4 -2
4 4 -1 4 4 0 4 4 0 4
4 0 4 4 1 3.66667 4 1 4 4
2 4 4 3 4 4 4 4 4 5
4 4 5 4 4 -5 5 4 -5 5
4 -4 5 4 -3 5 4 -2 5 4
-2 5 4 -2 5 4 -1 5 4 0
5 4 0 5 4 1 4.33333 4 1 5
4 1.4 5 4 2 5 4 3 5 4
4 5 4 5 5 4 5 5 4 -5
5 4 -4 6 4 -5 6 4 -3 6
4 -2 6 4 -2 6 4 -2 6 4
-1 6 4 0 5 4 0 6 4 1
5.4 4 1 6 4 2 6 4 3 6
4 4 6 4 5 6 4 5 6 4
-4 7 4 -5 7 4 -3 7 4 -2
6 4 -2 7 4 -1 7 4 0 7
4 1 7 4 2 7 4 3 7 4
4 7 4 5 7 4 5 7 4 -5
8 4 -5 8 4 -5 8 4 -4 8
4 -3 8 4 -2 8 4 -2 8 4
-2 8 4 -2 8 4 -1 8 4 0
8 4 0 8 4 0 8 4 0 8
4 1 8 4 2 8 4 3 8 4
4 8 4 5 8 4 5 8 
POLYGONS 126 630
3 0 1 2 5 3 4 0 2 5 4
6 3 5 7 3 8 9 10 5 11
6 7 8 10 3 10 9 12 5 13
11 10 12 14 3 15 16 17 5 18
13 14 15 17 3 17 16 19 5 20
18 17 19 21 4 22 20 21 23 4
24 22 23 25 4 26 24 25 27 4
28 29 30 31 4 26 27 28 31 4
32 33 4 3 4 34 32 3 6 3
35 36 37 5 35 37 34 6 11 3
38 36 35 5 39 38 35 11 13 4
40 39 13 18 4 41 40 18 20 4
42 41 20 22 4 43 42 22 24 4
44 43 24 26 4 31 30 45 46 4
44 26 31 46 3 47 48 49 5 50
47 49 33 32 4 51 50 32 34 4
37 36 52 53 4 51 34 37 53 4
54 52 36 38 4 55 54 38 39 3
56 57 58 5 56 58 55 39 40 4
59 60 57 56 4 59 56 40 41 3
61 60 59 5 62 61 59 41 42 4
63 62 42 43 4 64 63 43 44 4
46 45 65 66 4 64 44 46 66 4
67 68 48 47 4 69 67 47 50 4
70 69 50 51 4 53 52 71 72 4
70 51 53 72 4 73 71 52 54 4
74 73 54 55 4 58 57 75 76 4
74 55 58 76 5 77 75 57 60 78
3 79 77 78 3 78 60 61 5 80
79 78 61 62 4 81 80 62 63 4
82 81 63 64 4 66 65 83 84 4
82 64 66 84 4 85 86 68 67 4
87 85 67 69 4 88 87 69 70 4
72 71 89 90 4 88 70 72 90 4
91 89 71 73 4 92 91 73 74 4
76 75 93 94 4 92 74 76 94 5
95 96 93 75 77 3 95 77 79 3
97 96 95 5 98 97 95 79 80 4
99 98 80 81 4 100 99 81 82 4
84 83 101 102 4 100 82 84 102 3
103 86 85 5 104 105 103 85 87 4
106 104 87 88 4 90 89 107 108 4
106 88 90 108 4 109 107 89 91 4
110 109 91 92 3 94 93 111 5 112
110 92 94 111 4 111 93 96 113 4
114 112 111 113 3 113 96 97 5 115
114 113 97 98 4 116 115 98 99 4
117 116 99 100 4 102 101 118 119 4
117 100 102 119 4 120 121 105 104 4
122 120 104 106 3 108 107 123 5 124
122 106 108 123 3 123 107 109 5 125
124 123 109 110 4 126 125 110 112 4
127 126 112 114 4 128 127 114 115 4
129 128 115 116 4 130 129 116 117 4
119 118 131 132 4 130 117 119 132 3
133 134 135 5 136 133 135 121 120 4
137 136 120 122 3 138 139 140 5 138
140 137 122 124 3 141 139 138 5 142
141 138 124 125 3 143 144 145 5 143
145 142 125 126 3 146 144 143 5 147
146 143 126 127 4 148 147 127 128 4
149 148 128 129 4 150 149 129 130 4
132 131 151 152 4 150 130 132 152 
POINT_DATA 153
FIELD attributes 2
p 1 153 float
3.8814e-15 3.8814e-15 3.8814e-15 3.76278e-15 3.36796e-15 -6.09467e-16 5.85662e-15 1.28508e-15 6.86222e-15 6.86222e-15 6.86222e-15
9.67147e-15 6.86222e-15 6.57899e-15 2.50894e-15 5.45423e-15 5.45423e-15 5.45423e-15 5.85527e-15 5.45423e-15 1.3936e-14
1.38677e-14 2.62089e-14 2.12641e-14 1.99347e-14 1.24773e-14 5.72769e-15 -1.29019e-15 -1.56852e-15 -1.56852e-15 1.55176e-15
1.55176e-15 5.81934e-15 4.565e-15 5.90257e-15 1.01722e-14 1.01722e-14 1.01722e-14 1.01722e-14 9.05704e-15 5.14459e-15
1.17055e-14 2.27101e-14 1.9293e-14 1.11859e-14 4.50911e-15 4.50911e-15 5.51968e-15 5.51968e-15 5.51968e-15 6.37683e-15
6.03407e-15 9.17308e-15 9.17308e-15 9.17308e-15 7.29071e-15 3.45812e-15 3.45812e-15 3.45812e-15 8.0974e-15 5.69199e-15
7.3058e-15 9.72652e-15 8.98809e-15 1.0376e-14 5.58603e-15 5.58603e-15 6.00271e-15 6.00271e-15 8.68744e-15 9.37369e-15
8.93323e-15 8.93323e-15 8.93323e-15 4.76546e-15 1.19186e-15 1.19186e-15 1.19186e-15 4.80773e-15 4.3656e-15 1.08496e-14
9.12899e-15 7.88966e-15 3.91539e-15 3.91539e-15 5.72079e-15 5.72079e-15 1.01818e-14 1.24657e-14 1.04248e-14 1.04248e-14
1.04248e-14 5.11897e-15 4.29369e-15 4.29369e-15 7.00756e-15 1.22915e-14 1.55254e-14 2.03764e-14 1.31172e-14 5.75403e-15
2.31653e-15 2.31653e-15 5.72079e-15 9.25677e-15 5.4443e-15 1.07564e-14 1.00826e-14 1.00826e-14 1.00826e-14 6.33349e-15
4.29369e-15 5.58662e-15 1.17822e-14 1.10184e-14 2.05086e-14 1.26914e-14 1.1099e-15 3.0048e-16 3.0048e-16 5.00324e-15
4.61898e-15 3.98875e-15 1.00826e-14 6.5698e-15 3.18644e-15 -2.03361e-15 2.57244e-16 9.60982e-15 5.00096e-15 -4.11186e-15
-2.01498e-15 -2.01498e-15 3.84321e-15 3.84321e-15 3.84321e-15 1.86582e-15 1.66996e-15 3.22002e-15 3.22002e-15 3.22002e-15
3.22002e-15 7.64657e-16 -3.07672e-15 -3.07672e-15 -3.07672e-15 -3.07672e-15 -1.84656e-15 1.22119e-15 -3.11066e-16 -1.7945e-15
-1.52558e-15 -1.52558e-15 
U 3 153 float
16 -2.0007e-16 7.5736e-17 16 -2.0007e-16 7.5736e-17 16 -2.0007e-16 7.5736e-17 16 -7.79266e-16
-3.39643e-16 16 -4.20864e-16 -2.64548e-16 16 0 0 16 -3.83882e-16 -6.07117e-16
16 0 0 16 0 0 16 0 0 16
0 0 16 8.77396e-17 -1.53563e-15 16 0 0 16 -6.02732e-16
-1.83898e-15 16 0 0 16 0 0 16 0 0
16 0 0 16 -7.6545e-16 -8.00429e-16 16 0 0 16
1.50243e-17 -3.57494e-16 16 0 0 16 4.88924e-16 -4.23392e-16 16 0
0 16 1.30509e-15 -3.98678e-16 16 0 0 16 1.38663e-15 -5.35916e-16
16 0 0 16 1.43077e-16 -1.28308e-16 16 1.43077e-16 -1.28308e-16 16
5.05945e-16 -1.68194e-16 16 5.05945e-16 -1.68194e-16 16 -6.91232e-16 -8.45907e-16 16 -4.28291e-16
-6.35344e-16 16 -7.11651e-16 -5.40978e-16 16 -4.71005e-16 -6.55532e-16 16 -4.71005e-16 -6.55532e-16
16 -4.71005e-16 -6.55532e-16 16 -4.71005e-16 -6.55532e-16 16 -1.66901e-16 -7.17822e-16 16
6.34858e-17 -3.04755e-17 16 1.40222e-16 2.49584e-16 16 3.33189e-16 1.20301e-16 16 1.19534e-15
2.01813e-16 16 1.43615e-15 -1.27675e-16 16 6.41863e-16 -9.65415e-17 16 6.41863e-16 -9.65415e-17
16 -6.20295e-16 -3.08018e-16 16 -6.20295e-16 -3.08018e-16 16 -6.20295e-16 -3.08018e-16 16
-6.69162e-16 -6.22149e-16 16 -1.9256e-16 -5.13751e-16 16 -8.67105e-17 1.04551e-16 16 -8.67105e-17
1.04551e-16 16 -8.67105e-17 1.04551e-16 16 -2.28464e-18 5.6899e-16 16 1.43627e-16 5.22474e-16
16 1.43627e-16 5.22474e-16 16 1.43627e-16 5.22474e-16 16 1.37181e-16 2.71845e-16 16
1.35154e-16 2.86686e-16 16 2.61583e-16 3.31039e-16 16 4.51225e-16 3.97567e-16 16 1.07022e-15
6.52721e-16 16 1.05765e-15 1.30301e-16 16 5.06403e-16 -1.53884e-16 16 5.06403e-16 -1.53884e-16
16 -7.46897e-16 2.76177e-16 16 -7.46897e-16 2.76177e-16 16 -8.95097e-16 2.65039e-17 16
6.36873e-18 -1.50474e-16 16 5.90858e-16 1.33861e-16 16 5.90858e-16 1.33861e-16 16 5.90858e-16
1.33861e-16 16 2.46363e-16 2.65587e-16 16 -2.29989e-16 8.33935e-17 16 -2.29989e-16 8.33935e-17
16 -2.29989e-16 8.33935e-17 16 4.91932e-17 1.84415e-16 16 6.21255e-18 1.33279e-16 16
7.18123e-16 6.34587e-16 16 9.72006e-16 7.10656e-16 16 6.4668e-16 4.55225e-16 16 3.46522e-16
9.83447e-17 16 3.46522e-16 9.83447e-17 16 -8.69298e-16 6.30621e-16 16 -8.69298e-16 6.30621e-16
16 -1.11059e-15 3.54354e-16 16 -1.18679e-16 4.73973e-16 16 3.23237e-16 6.53933e-16 16
3.23237e-16 6.53933e-16 16 3.23237e-16 6.53933e-16 16 -4.81686e-17 6.97301e-17 16 -2.275e-18
-6.18306e-17 16 -2.275e-18 -6.18306e-17 16 2.24814e-16 2.18181e-16 16 6.62018e-16 3.87985e-16
16 8.10651e-16 5.97173e-16 16 1.0336e-15 9.10954e-16 16 9.36644e-16 6.56858e-16 16
4.73714e-16 8.41067e-16 16 1.55168e-16 4.79311e-16 16 1.55168e-16 4.79311e-16 16 -8.69298e-16
6.30621e-16 16 -1.07515e-15 4.93527e-16 16 -1.03118e-15 2.33876e-16 16 2.71427e-16 9.58586e-16
16 1.86534e-16 8.82834e-16 16 1.86534e-16 8.82834e-16 16 1.86534e-16 8.82834e-16 16
-4.33387e-16 8.85242e-16 16 -2.275e-18 -6.18306e-17 16 9.06088e-17 9.75965e-16 16 7.71134e-16
5.60252e-16 16 9.34807e-16 8.18653e-16 16 9.71103e-16 9.5443e-16 16 9.22413e-16 8.50068e-16
16 4.66796e-16 8.74046e-16 16 -2.41888e-17 4.34377e-16 16 -2.41888e-17 4.34377e-16 16
-3.83488e-16 1.15278e-15 16 -6.17716e-16 2.40962e-16 16 2.90803e-16 1.24293e-15 16 1.86534e-16
8.82834e-16 16 2.3414e-16 6.5008e-16 16 2.82124e-17 9.34883e-16 16 -4.71846e-17 1.27446e-15
16 6.22857e-16 8.9344e-16 16 1.02632e-15 7.91399e-16 16 8.39421e-16 7.57114e-16 16
4.719e-17 2.71102e-16 16 -2.86598e-16 7.04938e-17 16 -2.86598e-16 7.04938e-17 16 -2.43466e-16
6.97143e-16 16 -2.43466e-16 6.97143e-16 16 -2.43466e-16 6.97143e-16 16 -7.55455e-17 8.46842e-16
16 -2.08302e-16 6.67028e-16 16 -1.29489e-16 3.39866e-16 16 -1.29489e-16 3.39866e-16 16
-1.29489e-16 3.39866e-16 16 -1.29489e-16 3.39866e-16 16 1.48085e-16 2.91479e-16 16 6.11916e-17
4.76776e-16 16 6.11916e-17 4.76776e-16 16 6.11916e-17 4.76776e-16 16 6.11916e-17 4.76776e-16
16 4.54229e-16 4.09476e-16 16 8.04445e-16 3.04989e-16 16 3.96421e-16 1.90184e-16 16
-2.18258e-16 -1.4188e-16 16 -4.52711e-16 -1.60291e-16 16 -4.52711e-16 -1.60291e-16 
