# vtk DataFile Version 2.0
sampleSurface
ASCII
DATASET POLYDATA
POINTS 369 float
-9 0.02 0 -10 0.02 0 -10 0.02 1 -9 0.02
1 -8 0.02 0 -8 0.02 1 -7 0.02 0
-7 0.02 1 -6 0.02 0 -6 0.02 1 -5
0.02 0 -5 0.02 1 -4 0.02 0 -4 0.02
1 -3 0.02 0 -3 0.02 1 -2 0.02 0
-2 0.02 1 -1 0.02 0 -1 0.02 1 0
0.02 0 0 0.02 1 1 0.02 0 1 0.02
1 2 0.02 0 2 0.02 1 3 0.02 0
3 0.02 1 4 0.02 0 4 0.02 1 5
0.02 0 5 0.02 1 6 0.02 0 6 0.02
1 7 0.02 0 7 0.02 1 8 0.02 0
8 0.02 1 9 0.02 0 9 0.02 1 10
0.02 0 10 0.02 1 11 0.02 0 11 0.02
1 12 0.02 0 12 0.02 1 13 0.02 0
13 0.02 1 14 0.02 0 14 0.02 1 15
0.02 0 15 0.02 1 16 0.02 0 16 0.02
1 17 0.02 0 17 0.02 1 18 0.02 0
18 0.02 1 19 0.02 0 19 0.02 1 20
0.02 0 20 0.02 1 21 0.02 0 21 0.02
1 22 0.02 0 22 0.02 1 23 0.02 0
23 0.02 1 24 0.02 0 24 0.02 1 25
0.02 0 25 0.02 1 26 0.02 0 26 0.02
1 27 0.02 0 27 0.02 1 28 0.02 0
28 0.02 1 29 0.02 0 29 0.02 1 30
0.02 1 30 0.02 0 -10 0.02 2 -9 0.02
2 -8 0.02 2 -7 0.02 2 -6 0.02 2
-5 0.02 2 -4 0.02 2 -3 0.02 2 -2
0.02 2 -1 0.02 2 0 0.02 2 1 0.02
2 2 0.02 2 3 0.02 2 4 0.02 2
5 0.02 2 6 0.02 2 7 0.02 2 8
0.02 2 9 0.02 2 10 0.02 2 11 0.02
2 12 0.02 2 13 0.02 2 14 0.02 2
15 0.02 2 16 0.02 2 17 0.02 2 18
0.02 2 19 0.02 2 20 0.02 2 21 0.02
2 22 0.02 2 23 0.02 2 24 0.02 2
25 0.02 2 26 0.02 2 27 0.02 2 28
0.02 2 29 0.02 2 30 0.02 2 -10 0.02
3 -9 0.02 3 -8 0.02 3 -7 0.02 3
-6 0.02 3 -5 0.02 3 -4 0.02 3 -3
0.02 3 -2 0.02 3 -1 0.02 3 0 0.02
3 1 0.02 3 2 0.02 3 3 0.02 3
4 0.02 3 5 0.02 3 6 0.02 3 7
0.02 3 8 0.02 3 9 0.02 3 10 0.02
3 11 0.02 3 12 0.02 3 13 0.02 3
14 0.02 3 15 0.02 3 16 0.02 3 17
0.02 3 18 0.02 3 19 0.02 3 20 0.02
3 21 0.02 3 22 0.02 3 23 0.02 3
24 0.02 3 25 0.02 3 26 0.02 3 27
0.02 3 28 0.02 3 29 0.02 3 30 0.02
3 -10 0.02 4 -9 0.02 4 -8 0.02 4
-7 0.02 4 -6 0.02 4 -5 0.02 4 -4
0.02 4 -3 0.02 4 -2 0.02 4 -1 0.02
4 0 0.02 4 1 0.02 4 2 0.02 4
3 0.02 4 4 0.02 4 5 0.02 4 6
0.02 4 7 0.02 4 8 0.02 4 9 0.02
4 10 0.02 4 11 0.02 4 12 0.02 4
13 0.02 4 14 0.02 4 15 0.02 4 16
0.02 4 17 0.02 4 18 0.02 4 19 0.02
4 20 0.02 4 21 0.02 4 22 0.02 4
23 0.02 4 24 0.02 4 25 0.02 4 26
0.02 4 27 0.02 4 28 0.02 4 29 0.02
4 30 0.02 4 -10 0.02 5 -9 0.02 5
-8 0.02 5 -7 0.02 5 -6 0.02 5 -5
0.02 5 -4 0.02 5 -3 0.02 5 -2 0.02
5 -1 0.02 5 0 0.02 5 1 0.02 5
2 0.02 5 3 0.02 5 4 0.02 5 5
0.02 5 6 0.02 5 7 0.02 5 8 0.02
5 9 0.02 5 10 0.02 5 11 0.02 5
12 0.02 5 13 0.02 5 14 0.02 5 15
0.02 5 16 0.02 5 17 0.02 5 18 0.02
5 19 0.02 5 20 0.02 5 21 0.02 5
22 0.02 5 23 0.02 5 24 0.02 5 25
0.02 5 26 0.02 5 27 0.02 5 28 0.02
5 29 0.02 5 30 0.02 5 -10 0.02 6
-9 0.02 6 -8 0.02 6 -7 0.02 6 -6
0.02 6 -5 0.02 6 -4 0.02 6 -3 0.02
6 -2 0.02 6 -1 0.02 6 0 0.02 6
1 0.02 6 2 0.02 6 3 0.02 6 4
0.02 6 5 0.02 6 6 0.02 6 7 0.02
6 8 0.02 6 9 0.02 6 10 0.02 6
11 0.02 6 12 0.02 6 13 0.02 6 14
0.02 6 15 0.02 6 16 0.02 6 17 0.02
6 18 0.02 6 19 0.02 6 20 0.02 6
21 0.02 6 22 0.02 6 23 0.02 6 24
0.02 6 25 0.02 6 26 0.02 6 27 0.02
6 28 0.02 6 29 0.02 6 30 0.02 6
-10 0.02 7 -9 0.02 7 -8 0.02 7 -7
0.02 7 -6 0.02 7 -5 0.02 7 -4 0.02
7 -3 0.02 7 -2 0.02 7 -1 0.02 7
0 0.02 7 1 0.02 7 2 0.02 7 3
0.02 7 4 0.02 7 5 0.02 7 6 0.02
7 7 0.02 7 8 0.02 7 9 0.02 7
10 0.02 7 11 0.02 7 12 0.02 7 13
0.02 7 14 0.02 7 15 0.02 7 16 0.02
7 17 0.02 7 18 0.02 7 19 0.02 7
20 0.02 7 21 0.02 7 22 0.02 7 23
0.02 7 24 0.02 7 25 0.02 7 26 0.02
7 27 0.02 7 28 0.02 7 29 0.02 7
30 0.02 7 -10 0.02 8 -9 0.02 8 -8
0.02 8 -7 0.02 8 -6 0.02 8 -5 0.02
8 -4 0.02 8 -3 0.02 8 -2 0.02 8
-1 0.02 8 0 0.02 8 1 0.02 8 2
0.02 8 3 0.02 8 4 0.02 8 5 0.02
8 6 0.02 8 7 0.02 8 8 0.02 8
9 0.02 8 10 0.02 8 11 0.02 8 12
0.02 8 13 0.02 8 14 0.02 8 15 0.02
8 16 0.02 8 17 0.02 8 18 0.02 8
19 0.02 8 20 0.02 8 21 0.02 8 22
0.02 8 23 0.02 8 24 0.02 8 25 0.02
8 26 0.02 8 27 0.02 8 28 0.02 8
29 0.02 8 30 0.02 8 
POLYGONS 320 1600
4 0 1 2 3 4 4 0 3 5 4
6 4 5 7 4 8 6 7 9 4
10 8 9 11 4 12 10 11 13 4
14 12 13 15 4 16 14 15 17 4
18 16 17 19 4 20 18 19 21 4
22 20 21 23 4 24 22 23 25 4
26 24 25 27 4 28 26 27 29 4
30 28 29 31 4 32 30 31 33 4
34 32 33 35 4 36 34 35 37 4
38 36 37 39 4 40 38 39 41 4
42 40 41 43 4 44 42 43 45 4
46 44 45 47 4 48 46 47 49 4
50 48 49 51 4 52 50 51 53 4
54 52 53 55 4 56 54 55 57 4
58 56 57 59 4 60 58 59 61 4
62 60 61 63 4 64 62 63 65 4
66 64 65 67 4 68 66 67 69 4
70 68 69 71 4 72 70 71 73 4
74 72 73 75 4 76 74 75 77 4
78 76 77 79 4 80 81 78 79 4
3 2 82 83 4 5 3 83 84 4
7 5 84 85 4 9 7 85 86 4
11 9 86 87 4 13 11 87 88 4
15 13 88 89 4 17 15 89 90 4
19 17 90 91 4 21 19 91 92 4
23 21 92 93 4 25 23 93 94 4
27 25 94 95 4 29 27 95 96 4
31 29 96 97 4 33 31 97 98 4
35 33 98 99 4 37 35 99 100 4
39 37 100 101 4 41 39 101 102 4
43 41 102 103 4 45 43 103 104 4
47 45 104 105 4 49 47 105 106 4
51 49 106 107 4 53 51 107 108 4
55 53 108 109 4 57 55 109 110 4
59 57 110 111 4 61 59 111 112 4
63 61 112 113 4 65 63 113 114 4
67 65 114 115 4 69 67 115 116 4
71 69 116 117 4 73 71 117 118 4
75 73 118 119 4 77 75 119 120 4
79 77 120 121 4 122 80 79 121 4
83 82 123 124 4 84 83 124 125 4
85 84 125 126 4 86 85 126 127 4
87 86 127 128 4 88 87 128 129 4
89 88 129 130 4 90 89 130 131 4
91 90 131 132 4 92 91 132 133 4
93 92 133 134 4 94 93 134 135 4
95 94 135 136 4 96 95 136 137 4
97 96 137 138 4 98 97 138 139 4
99 98 139 140 4 100 99 140 141 4
101 100 141 142 4 102 101 142 143 4
103 102 143 144 4 104 103 144 145 4
105 104 145 146 4 106 105 146 147 4
107 106 147 148 4 108 107 148 149 4
109 108 149 150 4 110 109 150 151 4
111 110 151 152 4 112 111 152 153 4
113 112 153 154 4 114 113 154 155 4
115 114 155 156 4 116 115 156 157 4
117 116 157 158 4 118 117 158 159 4
119 118 159 160 4 120 119 160 161 4
121 120 161 162 4 163 122 121 162 4
124 123 164 165 4 125 124 165 166 4
126 125 166 167 4 127 126 167 168 4
128 127 168 169 4 129 128 169 170 4
130 129 170 171 4 131 130 171 172 4
132 131 172 173 4 133 132 173 174 4
134 133 174 175 4 135 134 175 176 4
136 135 176 177 4 137 136 177 178 4
138 137 178 179 4 139 138 179 180 4
140 139 180 181 4 141 140 181 182 4
142 141 182 183 4 143 142 183 184 4
144 143 184 185 4 145 144 185 186 4
146 145 186 187 4 147 146 187 188 4
148 147 188 189 4 149 148 189 190 4
150 149 190 191 4 151 150 191 192 4
152 151 192 193 4 153 152 193 194 4
154 153 194 195 4 155 154 195 196 4
156 155 196 197 4 157 156 197 198 4
158 157 198 199 4 159 158 199 200 4
160 159 200 201 4 161 160 201 202 4
162 161 202 203 4 204 163 162 203 4
165 164 205 206 4 166 165 206 207 4
167 166 207 208 4 168 167 208 209 4
169 168 209 210 4 170 169 210 211 4
171 170 211 212 4 172 171 212 213 4
173 172 213 214 4 174 173 214 215 4
175 174 215 216 4 176 175 216 217 4
177 176 217 218 4 178 177 218 219 4
179 178 219 220 4 180 179 220 221 4
181 180 221 222 4 182 181 222 223 4
183 182 223 224 4 184 183 224 225 4
185 184 225 226 4 186 185 226 227 4
187 186 227 228 4 188 187 228 229 4
189 188 229 230 4 190 189 230 231 4
191 190 231 232 4 192 191 232 233 4
193 192 233 234 4 194 193 234 235 4
195 194 235 236 4 196 195 236 237 4
197 196 237 238 4 198 197 238 239 4
199 198 239 240 4 200 199 240 241 4
201 200 241 242 4 202 201 242 243 4
203 202 243 244 4 245 204 203 244 4
206 205 246 247 4 207 206 247 248 4
208 207 248 249 4 209 208 249 250 4
210 209 250 251 4 211 210 251 252 4
212 211 252 253 4 213 212 253 254 4
214 213 254 255 4 215 214 255 256 4
216 215 256 257 4 217 216 257 258 4
218 217 258 259 4 219 218 259 260 4
220 219 260 261 4 221 220 261 262 4
222 221 262 263 4 223 222 263 264 4
224 223 264 265 4 225 224 265 266 4
226 225 266 267 4 227 226 267 268 4
228 227 268 269 4 229 228 269 270 4
230 229 270 271 4 231 230 271 272 4
232 231 272 273 4 233 232 273 274 4
234 233 274 275 4 235 234 275 276 4
236 235 276 277 4 237 236 277 278 4
238 237 278 279 4 239 238 279 280 4
240 239 280 281 4 241 240 281 282 4
242 241 282 283 4 243 242 283 284 4
244 243 284 285 4 286 245 244 285 4
247 246 287 288 4 248 247 288 289 4
249 248 289 290 4 250 249 290 291 4
251 250 291 292 4 252 251 292 293 4
253 252 293 294 4 254 253 294 295 4
255 254 295 296 4 256 255 296 297 4
257 256 297 298 4 258 257 298 299 4
259 258 299 300 4 260 259 300 301 4
261 260 301 302 4 262 261 302 303 4
263 262 303 304 4 264 263 304 305 4
265 264 305 306 4 266 265 306 307 4
267 266 307 308 4 268 267 308 309 4
269 268 309 310 4 270 269 310 311 4
271 270 311 312 4 272 271 312 313 4
273 272 313 314 4 274 273 314 315 4
275 274 315 316 4 276 275 316 317 4
277 276 317 318 4 278 277 318 319 4
279 278 319 320 4 280 279 320 321 4
281 280 321 322 4 282 281 322 323 4
283 282 323 324 4 284 283 324 325 4
285 284 325 326 4 327 286 285 326 4
288 287 328 329 4 289 288 329 330 4
290 289 330 331 4 291 290 331 332 4
292 291 332 333 4 293 292 333 334 4
294 293 334 335 4 295 294 335 336 4
296 295 336 337 4 297 296 337 338 4
298 297 338 339 4 299 298 339 340 4
300 299 340 341 4 301 300 341 342 4
302 301 342 343 4 303 302 343 344 4
304 303 344 345 4 305 304 345 346 4
306 305 346 347 4 307 306 347 348 4
308 307 348 349 4 309 308 349 350 4
310 309 350 351 4 311 310 351 352 4
312 311 352 353 4 313 312 353 354 4
314 313 354 355 4 315 314 355 356 4
316 315 356 357 4 317 316 357 358 4
318 317 358 359 4 319 318 359 360 4
320 319 360 361 4 321 320 361 362 4
322 321 362 363 4 323 322 363 364 4
324 323 364 365 4 325 324 365 366 4
326 325 366 367 4 327 326 367 368 
POINT_DATA 369
FIELD attributes 2
p 1 369 float
-1.6554e-14 -2.35371e-14 -1.47234e-14 -9.18921e-15 -9.16613e-15 -6.78863e-15 5.51113e-15 5.93311e-17 2.25093e-14 1.26867e-14 2.19582e-14
1.20284e-14 3.46927e-15 -1.19381e-15 -1.60647e-14 -1.23623e-14 -2.03822e-14 -1.19379e-14 -1.24594e-14 -4.47094e-15 -2.65641e-15
6.90533e-16 5.57361e-15 3.60715e-15 5.19576e-15 2.24832e-15 -1.0056e-14 -8.45554e-15 3.73438e-15 3.44005e-15 2.9381e-14
2.43132e-14 3.3584e-14 2.9721e-14 3.1529e-14 2.88146e-14 2.1297e-14 2.06123e-14 1.93512e-14 2.10347e-14 3.31413e-14
3.10047e-14 3.72246e-14 3.23036e-14 1.35764e-14 1.30027e-14 -1.1529e-14 -6.1484e-15 -1.3028e-14 -9.26903e-15 -6.13676e-15
-6.49647e-15 -9.56684e-15 -9.56234e-15 -1.24906e-14 -1.33423e-14 6.6723e-15 2.12241e-15 2.16651e-14 1.94257e-14 1.72454e-14
1.96072e-14 1.83603e-14 1.82368e-14 2.60809e-14 2.61856e-14 2.21696e-14 2.54663e-14 1.65372e-14 2.07363e-14 2.1804e-14
2.48431e-14 3.47897e-14 2.98756e-14 3.23384e-14 2.8197e-14 1.08429e-14 1.68384e-14 3.61843e-15 7.6791e-15 -1.12031e-38
3.08647e-15 -4.06985e-15 -8.55931e-16 -4.58494e-15 -6.88676e-15 9.79155e-16 1.94452e-15 -4.02296e-15 -3.21827e-15 2.35651e-15
6.45696e-15 8.22424e-15 3.87046e-15 -1.43784e-15 -5.3579e-15 9.67419e-16 1.39464e-14 2.24225e-14 2.61468e-14 2.42468e-14
2.41971e-14 2.47522e-14 2.323e-14 1.44186e-14 4.00605e-15 -4.44621e-15 -9.26741e-15 -1.01106e-14 -1.28241e-14 -2.94692e-15
1.14495e-14 1.58033e-14 1.68117e-14 1.91817e-14 2.21664e-14 2.43882e-14 2.48228e-14 2.37004e-14 2.51368e-14 2.11722e-14
8.30768e-15 7.96342e-38 -2.04283e-15 -9.39751e-16 -4.22693e-16 -1.70876e-15 -1.2404e-15 2.25848e-15 9.10157e-17 2.54664e-15
7.38936e-15 6.70185e-15 1.06939e-14 9.28121e-15 -2.30377e-16 -6.4087e-15 -2.88791e-15 6.7157e-15 1.29454e-14 2.28623e-14
2.75781e-14 2.18245e-14 1.9486e-14 1.9888e-14 1.49872e-14 7.89684e-15 -6.99372e-16 -9.24978e-15 -8.82196e-15 -8.55399e-15
-1.0253e-15 6.37503e-15 6.34573e-15 1.04676e-14 8.97938e-15 1.5067e-14 2.55582e-14 2.64242e-14 2.83765e-14 2.84633e-14
1.80944e-14 2.07644e-15 -3.65329e-37 -3.85762e-15 -4.37277e-15 2.45565e-15 2.22611e-15 -5.7396e-15 -1.20555e-15 8.93386e-16
4.65485e-15 1.01616e-14 9.45555e-15 1.55034e-14 1.92704e-14 5.01951e-15 -9.2084e-15 -6.22483e-15 2.33648e-15 6.62198e-15
1.86808e-14 2.46409e-14 1.63192e-14 1.45487e-14 1.81674e-14 1.17855e-14 3.31272e-15 -1.566e-15 -6.92537e-15 -3.68639e-15
-1.3798e-15 3.12379e-15 2.5216e-15 -2.45682e-15 2.07971e-15 7.90843e-15 1.98705e-14 2.93054e-14 2.95626e-14 2.78974e-14
2.20075e-14 9.16043e-15 -4.60263e-15 -8.83985e-37 -8.20041e-15 -7.89437e-15 -9.17023e-16 -2.59172e-15 -1.07171e-14 -5.8329e-15
-1.4443e-15 3.66989e-15 1.10759e-14 1.40781e-14 2.28511e-14 2.73847e-14 8.75798e-15 -1.05988e-14 -6.64216e-15 5.02784e-15
1.19466e-14 1.8778e-14 1.88985e-14 1.37261e-14 1.10045e-14 1.10581e-14 4.61364e-15 -4.29141e-15 -8.94373e-15 -6.35464e-15
9.93829e-16 3.05427e-16 8.07849e-16 -5.22308e-15 -8.05527e-15 6.8085e-16 9.06709e-15 2.38048e-14 3.40782e-14 3.26752e-14
2.3361e-14 1.37904e-14 3.19185e-15 -6.26186e-15 -9.58365e-37 -9.06299e-15 -7.41261e-15 -2.85874e-15 -2.66698e-15 -7.13006e-15
-5.22707e-15 -3.15319e-15 -3.8667e-15 5.2835e-15 1.45183e-14 2.15323e-14 2.47163e-14 8.17565e-15 -9.70166e-15 -3.57406e-15
9.23615e-15 1.40343e-14 1.5808e-14 1.28698e-14 1.20319e-14 9.71379e-15 4.20657e-15 -4.28967e-15 -1.24818e-14 -1.6498e-14
-9.80047e-15 7.63894e-16 -1.86019e-15 -6.26062e-15 -9.14961e-15 -3.74751e-15 5.27015e-15 7.95846e-15 1.78051e-14 2.95207e-14
3.09895e-14 2.31144e-14 1.14149e-14 1.00854e-15 -2.40862e-15 -5.67747e-37 -4.5343e-15 -2.03527e-15 2.11725e-16 6.3641e-16
-1.89955e-15 -3.79161e-15 -1.62227e-15 -3.78561e-15 1.55817e-15 1.18014e-14 1.5241e-14 1.37666e-14 5.70206e-15 -3.79071e-15
-3.65005e-15 3.99531e-15 6.28591e-15 1.04376e-14 1.41423e-14 1.11182e-14 5.18753e-15 1.59453e-15 -5.48766e-15 -1.20319e-14
-1.38476e-14 -1.04726e-14 -2.44549e-15 -4.26877e-16 -2.37986e-15 -3.42665e-15 2.06436e-15 7.45608e-15 1.08505e-14 1.12927e-14
1.42257e-14 1.95501e-14 1.77527e-14 8.51895e-15 7.30231e-16 1.80204e-15 1.65816e-37 -1.11282e-15 8.59684e-16 1.65448e-15
9.67333e-16 -5.34486e-16 -1.82862e-15 3.78757e-16 5.31096e-16 4.75085e-16 3.90918e-15 5.5448e-15 3.39577e-15 2.12278e-15
4.22261e-17 -2.77578e-15 -1.57448e-16 1.02812e-15 4.49227e-15 8.82523e-15 5.47973e-15 1.09734e-15 6.27969e-16 -1.58679e-15
-3.64741e-15 -3.7355e-15 -3.51187e-15 -2.0195e-15 2.9162e-16 2.2727e-15 1.49696e-15 1.74043e-15 3.49969e-15 6.99357e-15
4.70411e-15 3.11545e-15 7.21566e-15 7.2588e-15 4.24114e-15 2.09234e-15 2.19008e-15 1.2223e-15 
U 3 369 float
16 0 0 16 0 0 16 0 0 16 -4.67176e-16
-7.04335e-16 16 0 0 16 -7.95124e-16 -1.12036e-15 16 0 0
16 -8.81667e-16 -1.12503e-15 16 0 0 16 -7.72977e-16 -7.15729e-16 16
0 0 16 -5.18402e-16 6.3349e-17 16 0 0 16 -1.71625e-16
7.08677e-16 16 0 0 16 6.232e-17 6.6728e-16 16 0 0
16 2.54236e-16 1.24553e-16 16 0 0 16 4.19149e-16 -4.10615e-16 16
0 0 16 3.38023e-16 -7.32667e-16 16 0 0 16 2.34278e-16
-6.9198e-16 16 0 0 16 1.55816e-16 -4.0777e-16 16 0 0
16 -1.93505e-16 -6.179e-16 16 0 0 16 -5.88875e-16 -7.97883e-16 16
0 0 16 -7.90075e-16 -4.45207e-16 16 0 0 16 -7.33925e-16
-1.68423e-16 16 0 0 16 -7.4954e-16 -2.34414e-16 16 0 0
16 -4.03212e-16 -4.56415e-16 16 0 0 16 3.1929e-17 -3.57047e-16 16
0 0 16 -2.35278e-16 2.24051e-16 16 0 0 16 -5.32495e-16
7.19799e-16 16 0 0 16 -6.45281e-16 6.15811e-16 16 0 0
16 -4.29903e-16 6.591e-17 16 0 0 16 3.1839e-16 -3.81372e-16 16
0 0 16 1.04832e-15 -5.63117e-16 16 0 0 16 1.01802e-15
-8.5181e-16 16 0 0 16 6.10716e-16 -1.14839e-15 16 0 0
16 3.20758e-16 -1.03857e-15 16 0 0 16 3.26711e-16 -7.52294e-16 16
0 0 16 1.19609e-17 -6.73293e-16 16 0 0 16 -2.60232e-16
-8.23502e-16 16 0 0 16 2.41799e-16 -8.81973e-16 16 0 0
16 4.00039e-16 -9.83912e-16 16 0 0 16 2.18229e-16 -1.49516e-15 16
0 0 16 -4.32362e-18 -1.90211e-15 16 0 0 16 -4.28986e-17
-1.51221e-15 16 0 0 16 2.98039e-16 -1.0077e-15 16 0 0
16 5.05847e-16 -1.18003e-15 16 0 0 16 3.62236e-16 -1.45776e-15 16
2.00206e-16 -1.5192e-15 16 1.91727e-17 -1.04231e-15 16 0 0 16 -4.60085e-16
-4.82575e-16 16 -5.84036e-16 -7.81702e-16 16 -3.95988e-16 -8.53924e-16 16 -2.40173e-16 -4.73438e-16
16 -9.94091e-17 1.69527e-17 16 6.57871e-17 3.28047e-16 16 6.50816e-17 3.1359e-16 16
1.62086e-18 1.82595e-17 16 -9.01997e-17 -1.98583e-16 16 -2.36806e-16 -4.56613e-16 16 -3.79114e-16
-6.47388e-16 16 -3.23107e-16 -3.75488e-16 16 -3.8464e-16 -3.29257e-16 16 -6.46251e-16 -4.60299e-16
16 -8.83583e-16 -2.9942e-16 16 -8.72423e-16 -7.91874e-17 16 -6.54847e-16 -2.73052e-16 16
-2.90792e-16 -9.91474e-16 16 -2.63273e-17 -1.24889e-15 16 -7.15534e-17 -5.60781e-16 16 -1.69156e-16
3.18645e-16 16 -3.50135e-16 5.6765e-16 16 -3.96325e-16 2.42553e-16 16 -1.36662e-16 -1.52227e-16
16 1.98808e-16 -2.90208e-16 16 3.88533e-16 -5.5273e-16 16 2.83397e-16 -1.03408e-15 16
-1.20879e-16 -1.20855e-15 16 -2.31925e-16 -8.30548e-16 16 -4.16056e-16 -3.22743e-16 16 -5.34399e-16
-2.87129e-16 16 -1.39799e-16 -9.17068e-17 16 1.81763e-16 3.253e-17 16 3.30313e-16 -4.84123e-16
16 2.87563e-16 -8.2825e-16 16 1.91858e-16 -6.01722e-16 16 1.33982e-16 -3.31198e-16 16
2.02583e-16 -4.33094e-16 16 3.06928e-16 -6.23621e-16 16 3.21814e-16 -7.00974e-16 16 0
0 16 -5.71109e-16 3.0336e-18 16 -5.50522e-16 -1.49181e-16 16 -2.03657e-16 -3.62153e-16
16 -2.16535e-17 -1.96898e-16 16 1.01043e-16 -6.04545e-17 16 1.60716e-16 -1.00841e-16 16
1.12865e-16 -8.92679e-17 16 7.16415e-17 6.10261e-17 16 -1.03824e-16 3.32617e-16 16 -3.57121e-16
4.02711e-16 16 -3.56134e-16 1.12276e-16 16 -1.91551e-16 1.51254e-16 16 -1.40958e-16 4.36165e-16
16 -2.71432e-16 3.43988e-16 16 -6.3446e-16 2.74523e-17 16 -7.49827e-16 -1.40036e-16 16
-4.43352e-16 -3.87328e-16 16 -1.17955e-16 -8.58132e-16 16 4.12088e-17 -9.92966e-16 16 1.46632e-16
-6.58793e-16 16 7.26725e-17 -2.36408e-16 16 -3.9721e-16 1.04224e-16 16 -7.20607e-16 2.35623e-16
16 -6.16796e-16 5.74888e-18 16 -4.11097e-16 -1.73072e-16 16 -2.29829e-16 -3.69725e-16 16
3.76074e-18 -9.09446e-16 16 1.2784e-16 -1.43039e-15 16 2.98197e-17 -1.34583e-15 16 -4.43217e-17
-7.83509e-16 16 9.93111e-17 -2.9716e-16 16 2.31639e-16 1.19552e-16 16 1.95341e-16 1.75224e-16
16 9.83659e-17 -1.63821e-16 16 4.53061e-17 -3.74517e-16 16 1.7911e-16 -4.46901e-16 16
2.66835e-16 -4.86898e-16 16 3.96028e-16 -4.97233e-16 16 6.31596e-16 -5.58168e-16 16 7.2335e-16
-6.10636e-16 16 0 0 16 -4.94138e-16 2.09072e-16 16 -3.1338e-16 2.59681e-16
16 -3.80653e-17 2.05879e-16 16 -3.69649e-17 2.47591e-16 16 1.05893e-16 3.24691e-16 16
2.49247e-16 2.01614e-16 16 3.05078e-16 1.17372e-18 16 1.71075e-16 -8.2145e-17 16 -1.43379e-16
-2.28121e-16 16 -3.16513e-16 -5.40341e-16 16 -1.98661e-16 -1.0219e-15 16 -1.09057e-16 -1.2084e-15
16 -2.25327e-16 -8.87295e-16 16 -4.53774e-16 -6.01522e-16 16 -8.50813e-16 -6.98519e-16 16
-8.94548e-16 -9.97813e-16 16 -4.50368e-16 -9.63946e-16 16 4.93325e-17 -4.54787e-16 16 4.39878e-16
2.83664e-17 16 6.50551e-16 2.98259e-16 16 5.03298e-16 5.12962e-16 16 -8.28263e-17 8.35048e-16
16 -5.16786e-16 1.09604e-15 16 -5.22762e-16 1.12563e-15 16 -3.22952e-16 9.63988e-16 16
-1.32161e-16 7.41626e-16 16 3.53902e-17 3.98946e-16 16 3.17448e-16 1.96482e-17 16 3.85509e-16
-1.49691e-17 16 2.68402e-16 8.08504e-17 16 2.47084e-16 3.75619e-16 16 2.04079e-16 6.80967e-16
16 3.72236e-17 6.2989e-16 16 -2.77821e-16 3.60519e-16 16 -3.43015e-16 -6.63472e-17 16
5.02258e-17 -2.32819e-16 16 3.83105e-16 -9.90906e-17 16 5.69463e-16 6.87047e-17 16 5.42604e-16
7.83055e-17 16 4.2399e-16 7.0917e-18 16 0 0 16 -1.93737e-16 1.58027e-16
16 8.12687e-18 4.39438e-16 16 2.11625e-16 6.0893e-16 16 1.13816e-16 4.4984e-16 16
1.18566e-16 2.73469e-16 16 2.30686e-16 2.83022e-17 16 2.2159e-16 -6.11776e-17 16 5.8082e-17
-9.4013e-17 16 -9.02787e-17 -4.59583e-16 16 -4.86415e-17 -8.99587e-16 16 1.83865e-17 -1.0381e-15
16 -8.38771e-18 -9.80697e-16 16 -2.36647e-16 -7.66443e-16 16 -5.78189e-16 -4.56061e-16 16
-7.88788e-16 -3.65873e-16 16 -6.71025e-16 -3.87936e-16 16 -2.55384e-16 -1.31851e-17 16 1.966e-16
7.52439e-16 16 5.78003e-16 1.22685e-15 16 9.18366e-16 1.40001e-15 16 8.84429e-16 1.59192e-15
16 3.89987e-16 1.74128e-15 16 1.67194e-17 1.79876e-15 16 -1.43362e-16 1.89685e-15 16
3.38817e-17 1.73285e-15 16 3.81107e-16 1.36522e-15 16 4.66214e-16 1.11969e-15 16 4.47469e-16
1.01823e-15 16 3.93927e-16 8.29435e-16 16 2.92661e-16 3.38623e-16 16 2.59224e-16 5.27818e-17
16 1.17751e-16 4.78824e-17 16 -9.88121e-17 7.10103e-17 16 -3.62241e-16 4.26473e-17 16
-4.7789e-16 -1.87825e-16 16 -2.62312e-16 -2.94276e-16 16 -7.73358e-17 7.89605e-17 16 1.20991e-17
6.79001e-16 16 -8.16503e-17 9.74654e-16 16 -2.01127e-16 9.85754e-16 16 0 0
16 -3.20992e-17 -1.28188e-16 16 6.35276e-17 5.77307e-18 16 1.57549e-16 9.67316e-17 16
5.02216e-17 -7.234e-17 16 -5.07719e-17 -2.13873e-16 16 -9.27659e-17 -5.09465e-16 16 -2.51144e-16
-6.33216e-16 16 -1.89864e-16 -5.48011e-16 16 1.5775e-16 -6.58343e-16 16 4.25341e-16 -7.2416e-16
16 3.44919e-16 -3.70158e-16 16 6.89146e-17 -1.67631e-16 16 -1.44691e-16 -3.30148e-16 16
-2.89045e-16 -2.40149e-16 16 -3.20862e-16 7.87234e-17 16 -4.26121e-16 6.12427e-16 16 -4.16423e-16
1.15289e-15 16 -1.29037e-16 1.37022e-15 16 8.73314e-17 1.46553e-15 16 4.22286e-16 1.63155e-15
16 5.94729e-16 1.59468e-15 16 2.5115e-16 1.2769e-15 16 2.20306e-16 9.47349e-16 16
3.60298e-16 7.43016e-16 16 4.03242e-16 5.60641e-16 16 5.18416e-16 3.58184e-16 16 6.1516e-16
1.83279e-16 16 5.98405e-16 1.43824e-16 16 4.45383e-16 -8.26208e-17 16 3.28235e-16 -5.50808e-16
16 2.6547e-16 -9.16935e-16 16 2.66923e-16 -1.26082e-15 16 2.08549e-16 -1.17358e-15 16
4.86221e-18 -5.52277e-16 16 -9.27622e-17 -1.55357e-17 16 8.97734e-17 1.226e-16 16 2.88146e-16
4.12081e-16 16 1.66392e-16 1.00305e-15 16 -9.80053e-17 1.25321e-15 16 -2.00739e-16 1.23216e-15
16 0 0 16 -1.44714e-16 -2.10135e-16 16 -9.93498e-17 -2.00785e-16 16
-1.96517e-16 -9.51266e-17 16 -3.21614e-16 -7.20463e-17 16 -2.50588e-16 -7.59654e-17 16 -2.78508e-16
-1.58472e-16 16 -5.43716e-16 -3.87664e-16 16 -5.9265e-16 -4.88579e-16 16 -3.03791e-16 -4.21045e-16
16 1.13431e-16 -2.06209e-16 16 3.61111e-16 1.35585e-16 16 1.65147e-16 1.40651e-17 16
-1.46144e-16 -5.77586e-16 16 -2.34856e-16 -7.19636e-16 16 -1.57532e-16 -2.6125e-16 16 -3.30934e-16
3.69479e-16 16 -4.80629e-16 7.39826e-16 16 -2.35588e-16 6.95106e-16 16 -6.24661e-17 7.31432e-16
16 1.66066e-16 9.02214e-16 16 3.6362e-16 8.16183e-16 16 1.87798e-16 4.01309e-16 16
3.41157e-16 -9.7067e-17 16 6.25001e-16 -4.68707e-16 16 5.76215e-16 -4.97356e-16 16 4.13194e-16
-1.83176e-16 16 3.99631e-16 3.97426e-17 16 3.53253e-16 2.27747e-16 16 9.90058e-17 4.80031e-16
16 -1.25365e-16 7.47686e-16 16 -3.65525e-16 8.97412e-16 16 -1.8405e-16 7.31537e-16 16
3.66942e-17 8.52846e-16 16 -1.14248e-16 1.51415e-15 16 -2.001e-16 2.14531e-15 16 -5.81034e-17
2.44571e-15 16 1.71539e-16 2.51739e-15 16 4.40197e-17 2.46928e-15 16 -2.49498e-16 2.27455e-15
16 -3.58964e-16 2.1367e-15 16 -7.24411e-17 -4.25921e-17 16 -1.44314e-16 -5.43472e-17 16
-1.05699e-16 -4.44638e-18 16 -1.95215e-16 9.43557e-17 16 -2.76142e-16 1.32917e-16 16 -1.6633e-16
9.74595e-17 16 -1.50571e-16 1.36452e-16 16 -2.7323e-16 9.42596e-17 16 -3.49505e-16 4.69794e-17
16 -3.14864e-16 1.32155e-16 16 -6.7359e-17 3.18832e-16 16 2.89817e-16 4.714e-16 16
3.4012e-16 3.38415e-16 16 1.16247e-16 -1.0686e-17 16 -5.68462e-18 -1.86087e-16 16 2.70783e-18
-4.25819e-17 16 -3.2765e-17 1.53866e-16 16 -1.78367e-17 2.38076e-16 16 1.03505e-16 2.46513e-16
16 1.28527e-16 2.90032e-16 16 1.31902e-16 3.01237e-16 16 1.41029e-16 2.50541e-16 16
1.06601e-16 1.01023e-16 16 1.91998e-16 -1.2231e-16 16 2.66598e-16 -2.8865e-16 16 2.28118e-16
-2.51638e-16 16 1.25357e-16 2.44666e-17 16 1.25735e-16 2.72383e-16 16 7.88811e-17 4.90013e-16
16 -1.59586e-16 7.91782e-16 16 -3.36129e-16 1.14274e-15 16 -4.81822e-16 1.39371e-15 16
-3.86187e-16 1.47473e-15 16 -2.73252e-16 1.54261e-15 16 -3.35263e-16 1.70035e-15 16 -3.51609e-16
1.86556e-15 16 -3.31552e-16 2.01368e-15 16 -2.05857e-16 1.99584e-15 16 -1.5048e-16 1.76814e-15
16 -1.87462e-16 1.5683e-15 16 -3.01159e-16 2.24497e-15 
