# vtk DataFile Version 2.0
sampleSurface
ASCII
DATASET POLYDATA
POINTS 153 float
4 -5 0 4 -5 0 4 -5 0 4 -4
1 4 -5 1 4 -4 0 4 -3 1
4 -3 0 4 -2 0 4 -2 0 4
-2 0 4 -2 1 4 -2 0 4 -1
1 4 -1 0 4 0 0 4 0 0
4 0 0 4 0 1 4 0 0 4
1 1 4 1 0 4 2 1 4 2
0 4 3 1 4 3 0 4 4 1
4 4 0 4 5 0 4 5 0 4
5 1 4 5 1 4 -4 2 4 -5
2 4 -3 2 4 -2 2 4 -2 2
4 -2 2 4 -2 2 4 -1 2 4
0 2 4 1 2 4 2 2 4 3
2 4 4 2 4 5 2 4 5 2
4 -5 3 4 -5 3 4 -5 3 4
-4 3 4 -3 3 4 -2 3 4 -2
3 4 -2 3 4 -1 3 4 0 3
4 0 3 4 0 3 4 1 2.6 4
1 3 4 1.4 3 4 2 3 4 3
3 4 4 3 4 5 3 4 5 3
4 -5 4 4 -5 4 4 -4 4 4
-3 4 4 -2 4 4 -2 4 4 -2
4 4 -1 4 4 0 4 4 0 4
4 0 4 4 1 3.66667 4 1 4 4
2 4 4 3 4 4 4 4 4 5
4 4 5 4 4 -5 5 4 -5 5
4 -4 5 4 -3 5 4 -2 5 4
-2 5 4 -2 5 4 -1 5 4 0
5 4 0 5 4 1 4.33333 4 1 5
4 1.4 5 4 2 5 4 3 5 4
4 5 4 5 5 4 5 5 4 -5
5 4 -4 6 4 -5 6 4 -3 6
4 -2 6 4 -2 6 4 -2 6 4
-1 6 4 0 5 4 0 6 4 1
5.4 4 1 6 4 2 6 4 3 6
4 4 6 4 5 6 4 5 6 4
-4 7 4 -5 7 4 -3 7 4 -2
6 4 -2 7 4 -1 7 4 0 7
4 1 7 4 2 7 4 3 7 4
4 7 4 5 7 4 5 7 4 -5
8 4 -5 8 4 -5 8 4 -4 8
4 -3 8 4 -2 8 4 -2 8 4
-2 8 4 -2 8 4 -1 8 4 0
8 4 0 8 4 0 8 4 0 8
4 1 8 4 2 8 4 3 8 4
4 8 4 5 8 4 5 8 
POLYGONS 126 630
3 0 1 2 5 3 4 0 2 5 4
6 3 5 7 3 8 9 10 5 11
6 7 8 10 3 10 9 12 5 13
11 10 12 14 3 15 16 17 5 18
13 14 15 17 3 17 16 19 5 20
18 17 19 21 4 22 20 21 23 4
24 22 23 25 4 26 24 25 27 4
28 29 30 31 4 26 27 28 31 4
32 33 4 3 4 34 32 3 6 3
35 36 37 5 35 37 34 6 11 3
38 36 35 5 39 38 35 11 13 4
40 39 13 18 4 41 40 18 20 4
42 41 20 22 4 43 42 22 24 4
44 43 24 26 4 31 30 45 46 4
44 26 31 46 3 47 48 49 5 50
47 49 33 32 4 51 50 32 34 4
37 36 52 53 4 51 34 37 53 4
54 52 36 38 4 55 54 38 39 3
56 57 58 5 56 58 55 39 40 4
59 60 57 56 4 59 56 40 41 3
61 60 59 5 62 61 59 41 42 4
63 62 42 43 4 64 63 43 44 4
46 45 65 66 4 64 44 46 66 4
67 68 48 47 4 69 67 47 50 4
70 69 50 51 4 53 52 71 72 4
70 51 53 72 4 73 71 52 54 4
74 73 54 55 4 58 57 75 76 4
74 55 58 76 5 77 75 57 60 78
3 79 77 78 3 78 60 61 5 80
79 78 61 62 4 81 80 62 63 4
82 81 63 64 4 66 65 83 84 4
82 64 66 84 4 85 86 68 67 4
87 85 67 69 4 88 87 69 70 4
72 71 89 90 4 88 70 72 90 4
91 89 71 73 4 92 91 73 74 4
76 75 93 94 4 92 74 76 94 5
95 96 93 75 77 3 95 77 79 3
97 96 95 5 98 97 95 79 80 4
99 98 80 81 4 100 99 81 82 4
84 83 101 102 4 100 82 84 102 3
103 86 85 5 104 105 103 85 87 4
106 104 87 88 4 90 89 107 108 4
106 88 90 108 4 109 107 89 91 4
110 109 91 92 3 94 93 111 5 112
110 92 94 111 4 111 93 96 113 4
114 112 111 113 3 113 96 97 5 115
114 113 97 98 4 116 115 98 99 4
117 116 99 100 4 102 101 118 119 4
117 100 102 119 4 120 121 105 104 4
122 120 104 106 3 108 107 123 5 124
122 106 108 123 3 123 107 109 5 125
124 123 109 110 4 126 125 110 112 4
127 126 112 114 4 128 127 114 115 4
129 128 115 116 4 130 129 116 117 4
119 118 131 132 4 130 117 119 132 3
133 134 135 5 136 133 135 121 120 4
137 136 120 122 3 138 139 140 5 138
140 137 122 124 3 141 139 138 5 142
141 138 124 125 3 143 144 145 5 143
145 142 125 126 3 146 144 143 5 147
146 143 126 127 4 148 147 127 128 4
149 148 128 129 4 150 149 129 130 4
132 131 151 152 4 150 130 132 152 
POINT_DATA 153
FIELD attributes 2
p 1 153 float
5.42599e-15 5.42599e-15 5.42599e-15 3.88886e-15 2.88786e-15 2.43261e-15 -3.87057e-16 -5.24394e-15 -1.13566e-14 -1.13566e-14 -1.13566e-14
-9.24664e-15 -1.13566e-14 -1.36424e-14 -1.3945e-14 -1.35533e-14 -1.35533e-14 -1.35533e-14 -1.17165e-14 -1.35533e-14 -1.03775e-14
-1.20995e-14 -8.15967e-15 -1.26873e-14 -1.19386e-14 -2.02883e-14 -8.03476e-15 -1.60938e-14 -4.94837e-15 -4.94837e-15 1.88883e-16
1.88883e-16 2.51495e-15 5.16746e-16 2.54557e-15 -4.2171e-15 -4.2171e-15 -4.2171e-15 -4.2171e-15 -1.04638e-14 -1.08237e-14
-8.30305e-15 -4.94531e-15 -3.36886e-15 1.64633e-15 3.24852e-15 3.24852e-15 -1.42515e-15 -1.42515e-15 -1.42515e-15 -4.3656e-15
-5.0669e-15 -3.92581e-15 -3.92581e-15 -3.92581e-15 -8.43426e-15 -1.20345e-14 -1.20345e-14 -1.20345e-14 -7.78361e-15 -7.43732e-15
-7.59219e-15 -7.8245e-15 -6.8864e-15 4.12862e-16 1.51249e-15 1.51249e-15 -2.73247e-15 -2.73247e-15 -1.05325e-14 -9.93348e-15
-6.23965e-15 -6.23965e-15 -6.23965e-15 -1.17859e-14 -1.34834e-14 -1.34834e-14 -1.34834e-14 -7.28341e-15 -7.20646e-15 -6.69966e-15
-7.10751e-15 -2.88809e-15 -1.07751e-15 -1.07751e-15 -2.40427e-15 -2.40427e-15 -6.7883e-15 -4.63087e-15 -6.99319e-15 -6.99319e-15
-6.99319e-15 -1.93953e-14 -2.05214e-14 -2.05214e-14 -6.71402e-15 -5.72912e-15 -1.46915e-15 4.9208e-15 5.53006e-15 5.28796e-16
-2.22383e-15 -2.22383e-15 -2.40427e-15 6.59209e-16 4.49898e-16 -1.32811e-15 -8.59787e-15 -8.59787e-15 -8.59787e-15 -2.12759e-14
-2.05214e-14 -2.40293e-14 -6.71955e-15 -8.2052e-15 1.10735e-14 1.61102e-14 5.46224e-15 -1.18296e-15 -1.18296e-15 4.59297e-15
3.32907e-15 -1.02499e-15 -8.59787e-15 -6.25571e-15 -9.15385e-15 -1.14416e-14 -8.79199e-15 4.26532e-15 1.23531e-14 7.03181e-15
1.48141e-15 1.48141e-15 4.68933e-15 4.68933e-15 4.68933e-15 3.46998e-15 2.28188e-16 -1.68843e-15 -1.68843e-15 -1.68843e-15
-1.68843e-15 -1.27671e-16 -6.01055e-16 -6.01055e-16 -6.01055e-16 -6.01055e-16 -2.57142e-15 1.17044e-16 3.56853e-15 3.76511e-15
3.24072e-15 3.24072e-15 
U 3 153 float
16 1.22519e-16 7.03488e-17 16 1.22519e-16 7.03488e-17 16 1.22519e-16 7.03488e-17 16 6.38295e-17
-3.34391e-16 16 5.61818e-17 1.01107e-16 16 0 0 16 1.99215e-16 -6.19537e-16
16 0 0 16 0 0 16 0 0 16
0 0 16 6.31486e-16 -7.71051e-16 16 0 0 16 7.33891e-16
-7.32179e-16 16 0 0 16 0 0 16 0 0
16 0 0 16 2.32214e-16 -2.1978e-16 16 0 0 16
-5.66737e-16 -7.73337e-17 16 0 0 16 -6.65314e-16 4.54137e-16 16 0
0 16 -1.87027e-16 4.63489e-16 16 0 0 16 8.33173e-17 -1.77815e-16
16 0 0 16 8.13959e-17 -9.10459e-17 16 8.13959e-17 -9.10459e-17 16
1.10009e-16 -1.84446e-16 16 1.10009e-16 -1.84446e-16 16 -3.11597e-16 -7.26387e-16 16 -1.68301e-16
-2.24557e-16 16 -3.57754e-17 -9.14554e-16 16 5.11954e-16 -9.77365e-16 16 5.11954e-16 -9.77365e-16
16 5.11954e-16 -9.77365e-16 16 5.11954e-16 -9.77365e-16 16 8.44322e-16 -8.80149e-16 16
4.84479e-16 -5.37034e-16 16 -5.3944e-17 -4.92187e-17 16 -2.96607e-16 7.14739e-16 16 -5.07256e-16
7.38238e-16 16 -1.42244e-16 3.31871e-16 16 1.6694e-16 1.36065e-16 16 1.6694e-16 1.36065e-16
16 -4.37632e-16 -3.53278e-16 16 -4.37632e-16 -3.53278e-16 16 -4.37632e-16 -3.53278e-16 16
-6.08588e-16 -4.93345e-16 16 -4.60131e-17 -5.2868e-16 16 6.38262e-16 -8.22035e-16 16 6.38262e-16
-8.22035e-16 16 6.38262e-16 -8.22035e-16 16 1.15901e-15 -7.85133e-16 16 1.08161e-15 -5.13852e-16
16 1.08161e-15 -5.13852e-16 16 1.08161e-15 -5.13852e-16 16 4.00723e-16 6.19289e-17 16
7.03834e-16 1.36027e-16 16 4.79759e-16 3.89089e-16 16 1.43646e-16 7.68681e-16 16 -5.47439e-16
8.74594e-16 16 -5.05774e-16 7.20715e-16 16 -8.26095e-17 3.16634e-16 16 -8.26095e-17 3.16634e-16
16 -3.21237e-16 -2.50495e-16 16 -3.21237e-16 -2.50495e-16 16 -4.67103e-16 1.49317e-16 16
-3.47341e-16 3.43218e-16 16 2.39939e-16 -1.02598e-16 16 2.39939e-16 -1.02598e-16 16 2.39939e-16
-1.02598e-16 16 1.16989e-15 -9.08074e-17 16 1.42822e-15 -2.17164e-16 16 1.42822e-15 -2.17164e-16
16 1.42822e-15 -2.17164e-16 16 1.0539e-15 -1.28027e-16 16 1.22894e-15 -2.60054e-16 16
4.60179e-16 -4.13321e-16 16 -5.61212e-16 -3.02513e-16 16 -7.41018e-16 -1.25672e-16 16 -2.48813e-16
-1.48786e-16 16 -2.48813e-16 -1.48786e-16 16 -3.8553e-17 4.40057e-17 16 -3.8553e-17 4.40057e-17
16 -2.59745e-17 4.31531e-16 16 -3.05415e-16 7.88544e-16 16 1.93139e-16 9.63655e-16 16
1.93139e-16 9.63655e-16 16 1.93139e-16 9.63655e-16 16 1.0159e-15 8.19148e-16 16 9.12858e-16
3.74299e-16 16 9.12858e-16 3.74299e-16 16 1.00019e-15 -2.31716e-16 16 5.42698e-16 -1.75039e-16
16 3.63981e-16 -5.53657e-16 16 9.59052e-17 -1.12158e-15 16 -2.65702e-16 -1.15565e-15 16
-3.40292e-16 -8.85961e-16 16 -1.13295e-16 -5.59065e-16 16 -1.13295e-16 -5.59065e-16 16 -3.8553e-17
4.40057e-17 16 2.52459e-16 5.75619e-16 16 7.10672e-17 4.503e-16 16 1.76415e-16 7.51665e-16
16 2.96809e-16 1.18002e-15 16 2.96809e-16 1.18002e-15 16 2.96809e-16 1.18002e-15 16
5.59111e-16 3.17034e-16 16 9.12858e-16 3.74299e-16 16 4.35832e-16 -6.16907e-16 16 2.4049e-16
-4.7487e-16 16 -2.12822e-16 -9.24617e-16 16 -5.22753e-16 -1.11182e-15 16 -2.87504e-16 -1.10829e-15
16 -7.91289e-17 -1.30641e-15 16 7.6951e-17 -7.65597e-16 16 7.6951e-17 -7.65597e-16 16
3.00568e-16 2.17759e-16 16 7.91857e-17 3.26687e-16 16 3.56708e-16 1.01203e-16 16 2.96809e-16
1.18002e-15 16 -2.08785e-16 2.21695e-16 16 -7.83924e-16 -3.19372e-16 16 -3.4037e-16 -9.95251e-16
16 6.54034e-17 -1.09885e-15 16 -3.09892e-17 -5.33727e-16 16 -4.11937e-16 -2.8801e-16 16
1.55896e-17 -3.7113e-16 16 4.30576e-16 -1.82316e-16 16 4.30576e-16 -1.82316e-16 16 -8.9731e-17
1.4585e-16 16 -8.9731e-17 1.4585e-16 16 -8.9731e-17 1.4585e-16 16 5.61969e-17 -5.08865e-17
16 2.02899e-16 -1.7415e-16 16 -1.39943e-16 -1.86082e-16 16 -1.39943e-16 -1.86082e-16 16
-1.39943e-16 -1.86082e-16 16 -1.39943e-16 -1.86082e-16 16 -6.38638e-16 -7.86999e-17 16 -3.86612e-16
-4.87771e-17 16 -3.86612e-16 -4.87771e-17 16 -3.86612e-16 -4.87771e-17 16 -3.86612e-16 -4.87771e-17
16 1.84933e-16 -9.48606e-17 16 3.44715e-16 1.14647e-16 16 -1.12906e-16 2.68938e-16 16
-1.47293e-17 4.25422e-16 16 5.36414e-16 5.20342e-16 16 5.36414e-16 5.20342e-16 
